<svg width="327" height="316" viewBox="0 0 327 316" fill="none" xmlns="http://www.w3.org/2000/svg">
<rect x="0.5" y="0.5" width="326" height="315" rx="7.5" fill="#EBF0EE" stroke="#C1C7D0"/>
<g clip-path="url(#clip0_48_1445)">
<path d="M93.5732 173H96.7351V165.585H103.988V162.935H96.7351V158.196H104.755V155.545H93.5732V173ZM107.312 173H110.397V165.304C110.397 163.642 111.65 162.466 113.346 162.466C113.866 162.466 114.513 162.56 114.778 162.645V159.807C114.496 159.756 114.011 159.722 113.67 159.722C112.17 159.722 110.917 160.574 110.44 162.091H110.303V159.909H107.312V173ZM120.337 173.264C122.391 173.264 123.618 172.301 124.18 171.202H124.283V173H127.249V164.239C127.249 160.778 124.428 159.739 121.93 159.739C119.178 159.739 117.064 160.966 116.382 163.352L119.263 163.761C119.57 162.866 120.439 162.099 121.947 162.099C123.379 162.099 124.163 162.832 124.163 164.119V164.17C124.163 165.057 123.234 165.099 120.925 165.347C118.385 165.619 115.956 166.378 115.956 169.327C115.956 171.901 117.839 173.264 120.337 173.264ZM121.138 170.997C119.851 170.997 118.93 170.409 118.93 169.276C118.93 168.091 119.962 167.597 121.342 167.401C122.152 167.29 123.771 167.085 124.172 166.761V168.304C124.172 169.761 122.996 170.997 121.138 170.997ZM130.351 173H133.436V165.04C133.436 163.429 134.51 162.338 135.839 162.338C137.143 162.338 138.038 163.216 138.038 164.562V173H141.064V164.835C141.064 163.361 141.942 162.338 143.433 162.338C144.678 162.338 145.666 163.071 145.666 164.69V173H148.76V164.213C148.76 161.29 147.072 159.739 144.669 159.739C142.768 159.739 141.32 160.676 140.74 162.134H140.604C140.101 160.651 138.831 159.739 137.067 159.739C135.311 159.739 133.999 160.642 133.453 162.134H133.3V159.909H130.351V173ZM157.685 173.256C160.737 173.256 162.833 171.764 163.379 169.489L160.498 169.165C160.08 170.273 159.058 170.852 157.728 170.852C155.734 170.852 154.413 169.54 154.387 167.298H163.506V166.352C163.506 161.759 160.745 159.739 157.523 159.739C153.773 159.739 151.327 162.491 151.327 166.531C151.327 170.639 153.739 173.256 157.685 173.256ZM154.396 165.219C154.489 163.548 155.725 162.142 157.566 162.142C159.339 162.142 160.532 163.438 160.549 165.219H154.396ZM168.748 173H171.969L174.424 164.153H174.603L177.058 173H180.271L183.978 159.909H180.825L178.558 169.062H178.43L176.077 159.909H172.967L170.614 169.114H170.495L168.194 159.909H165.049L168.748 173ZM191.491 173.256C195.326 173.256 197.763 170.554 197.763 166.506C197.763 162.449 195.326 159.739 191.491 159.739C187.656 159.739 185.218 162.449 185.218 166.506C185.218 170.554 187.656 173.256 191.491 173.256ZM191.508 170.784C189.386 170.784 188.346 168.892 188.346 166.497C188.346 164.102 189.386 162.185 191.508 162.185C193.596 162.185 194.636 164.102 194.636 166.497C194.636 168.892 193.596 170.784 191.508 170.784ZM200.382 173H203.467V165.304C203.467 163.642 204.72 162.466 206.416 162.466C206.936 162.466 207.584 162.56 207.848 162.645V159.807C207.567 159.756 207.081 159.722 206.74 159.722C205.24 159.722 203.987 160.574 203.51 162.091H203.374V159.909H200.382V173ZM209.898 173H212.983V168.602L214.108 167.401L218.114 173H221.804L216.435 165.56L221.506 159.909H217.901L213.196 165.168H212.983V155.545H209.898V173ZM233.908 163.369C233.482 161.153 231.71 159.739 228.641 159.739C225.488 159.739 223.34 161.29 223.349 163.71C223.34 165.619 224.516 166.881 227.031 167.401L229.263 167.869C230.465 168.134 231.028 168.619 231.028 169.361C231.028 170.256 230.056 170.929 228.59 170.929C227.175 170.929 226.255 170.315 225.991 169.139L222.982 169.429C223.366 171.832 225.386 173.256 228.599 173.256C231.871 173.256 234.181 171.56 234.19 169.08C234.181 167.213 232.979 166.071 230.508 165.534L228.275 165.057C226.945 164.759 226.417 164.298 226.425 163.54C226.417 162.653 227.397 162.04 228.684 162.04C230.107 162.04 230.857 162.815 231.096 163.676L233.908 163.369Z" fill="#344563"/>
<g clip-path="url(#clip1_48_1445)">
<g clip-path="url(#clip2_48_1445)">
<rect x="34.5" y="204" width="73" height="40" rx="8" fill="white"/>
<path d="M47.3608 228V219.273H50.6335C51.304 219.273 51.8665 219.389 52.321 219.622C52.7784 219.855 53.1236 220.182 53.3565 220.602C53.5923 221.02 53.7102 221.507 53.7102 222.064C53.7102 222.624 53.5909 223.109 53.3523 223.521C53.1165 223.93 52.7685 224.247 52.3082 224.472C51.848 224.693 51.2827 224.804 50.6122 224.804H48.2812V223.491H50.3991C50.7912 223.491 51.1122 223.437 51.3622 223.33C51.6122 223.219 51.7969 223.058 51.9162 222.848C52.0384 222.635 52.0994 222.374 52.0994 222.064C52.0994 221.754 52.0384 221.49 51.9162 221.271C51.794 221.05 51.608 220.882 51.358 220.768C51.108 220.652 50.7855 220.594 50.3906 220.594H48.9418V228H47.3608ZM51.8693 224.045L54.0298 228H52.2656L50.1435 224.045H51.8693ZM58.2613 228.128C57.605 228.128 57.0383 227.991 56.561 227.719C56.0866 227.443 55.7215 227.054 55.4658 226.551C55.2101 226.045 55.0823 225.45 55.0823 224.766C55.0823 224.092 55.2101 223.501 55.4658 222.993C55.7243 222.482 56.0851 222.084 56.5482 221.8C57.0113 221.513 57.5553 221.369 58.1803 221.369C58.5837 221.369 58.9644 221.435 59.3224 221.565C59.6832 221.693 60.0013 221.892 60.2769 222.162C60.5553 222.432 60.7741 222.776 60.9332 223.193C61.0922 223.608 61.1718 224.102 61.1718 224.676V225.149H55.8067V224.109H59.6931C59.6903 223.814 59.6263 223.551 59.5013 223.321C59.3763 223.088 59.2016 222.905 58.9772 222.771C58.7556 222.638 58.4971 222.571 58.2016 222.571C57.8863 222.571 57.6093 222.648 57.3707 222.801C57.132 222.952 56.9459 223.151 56.8124 223.398C56.6817 223.642 56.615 223.911 56.6121 224.203V225.111C56.6121 225.491 56.6817 225.818 56.8209 226.091C56.9601 226.361 57.1547 226.568 57.4047 226.713C57.6547 226.855 57.9474 226.926 58.2826 226.926C58.507 226.926 58.7101 226.895 58.892 226.832C59.0738 226.767 59.2314 226.672 59.365 226.547C59.4985 226.422 59.5993 226.267 59.6675 226.082L61.1079 226.244C61.017 226.625 60.8437 226.957 60.588 227.241C60.3351 227.523 60.0113 227.741 59.6164 227.898C59.2215 228.051 58.7698 228.128 58.2613 228.128ZM64.7204 228.132C64.3056 228.132 63.932 228.058 63.5996 227.911C63.2701 227.76 63.0087 227.538 62.8155 227.246C62.6252 226.953 62.53 226.592 62.53 226.163C62.53 225.794 62.5982 225.489 62.7346 225.247C62.8709 225.006 63.057 224.812 63.2928 224.668C63.5286 224.523 63.7942 224.413 64.0897 224.339C64.388 224.263 64.6962 224.207 65.0144 224.173C65.3979 224.134 65.709 224.098 65.9476 224.067C66.1863 224.033 66.3596 223.982 66.4675 223.913C66.5783 223.842 66.6337 223.733 66.6337 223.585V223.56C66.6337 223.239 66.5385 222.99 66.3482 222.814C66.1579 222.638 65.8837 222.55 65.5258 222.55C65.1479 222.55 64.8482 222.632 64.6266 222.797C64.4079 222.962 64.2601 223.156 64.1834 223.381L62.7431 223.176C62.8567 222.778 63.0442 222.446 63.3056 222.179C63.5669 221.909 63.8865 221.707 64.2644 221.574C64.6422 221.438 65.0598 221.369 65.5172 221.369C65.8326 221.369 66.1465 221.406 66.459 221.48C66.7715 221.554 67.057 221.676 67.3155 221.847C67.574 222.014 67.7814 222.243 67.9377 222.533C68.0968 222.822 68.1763 223.185 68.1763 223.619V228H66.6934V227.101H66.6422C66.5485 227.283 66.4164 227.453 66.2459 227.612C66.0783 227.768 65.8667 227.895 65.611 227.991C65.3581 228.085 65.0613 228.132 64.7204 228.132ZM65.1209 226.999C65.4306 226.999 65.699 226.937 65.9263 226.815C66.1536 226.69 66.3283 226.526 66.4505 226.321C66.5755 226.116 66.638 225.893 66.638 225.652V224.881C66.5897 224.92 66.5073 224.957 66.3908 224.991C66.2772 225.026 66.1493 225.055 66.0073 225.081C65.8652 225.107 65.7246 225.129 65.5854 225.149C65.4462 225.169 65.3255 225.186 65.2232 225.2C64.9931 225.232 64.7871 225.283 64.6053 225.354C64.4235 225.425 64.28 225.524 64.1749 225.652C64.0698 225.777 64.0172 225.939 64.0172 226.138C64.0172 226.422 64.1209 226.636 64.3283 226.781C64.5357 226.926 64.7999 226.999 65.1209 226.999ZM72.9426 228.128C72.2892 228.128 71.7281 227.984 71.2593 227.697C70.7934 227.411 70.434 227.014 70.1812 226.509C69.9312 226 69.8062 225.415 69.8062 224.753C69.8062 224.088 69.934 223.501 70.1897 222.993C70.4454 222.482 70.8062 222.084 71.2721 221.8C71.7409 221.513 72.2948 221.369 72.934 221.369C73.4653 221.369 73.9355 221.467 74.3446 221.663C74.7565 221.857 75.0846 222.131 75.3289 222.486C75.5733 222.838 75.7125 223.25 75.7465 223.722H74.2721C74.2125 223.406 74.0704 223.143 73.846 222.933C73.6244 222.72 73.3275 222.614 72.9554 222.614C72.64 222.614 72.363 222.699 72.1244 222.869C71.8858 223.037 71.6997 223.278 71.5662 223.594C71.4355 223.909 71.3701 224.287 71.3701 224.727C71.3701 225.173 71.4355 225.557 71.5662 225.878C71.6968 226.196 71.8801 226.442 72.1159 226.615C72.3545 226.786 72.6343 226.871 72.9554 226.871C73.1826 226.871 73.3858 226.828 73.5647 226.743C73.7465 226.655 73.8985 226.528 74.0207 226.364C74.1429 226.199 74.2267 225.999 74.2721 225.763H75.7465C75.7096 226.226 75.5733 226.636 75.3375 226.994C75.1017 227.349 74.7806 227.628 74.3744 227.83C73.9681 228.028 73.4909 228.128 72.9426 228.128ZM80.6417 221.455V222.648H76.8789V221.455H80.6417ZM77.8079 219.886H79.3505V226.031C79.3505 226.239 79.3818 226.398 79.4443 226.509C79.5096 226.616 79.5948 226.69 79.6999 226.73C79.8051 226.77 79.9215 226.79 80.0494 226.79C80.146 226.79 80.234 226.783 80.3136 226.768C80.396 226.754 80.4585 226.741 80.5011 226.73L80.761 227.936C80.6786 227.964 80.5607 227.996 80.4073 228.03C80.2568 228.064 80.0721 228.084 79.8534 228.089C79.467 228.101 79.119 228.043 78.8093 227.915C78.4997 227.784 78.2539 227.582 78.0721 227.31C77.8931 227.037 77.8051 226.696 77.8079 226.287V219.886ZM83.2421 228.094C82.9836 228.094 82.762 228.003 82.5773 227.821C82.3927 227.639 82.3018 227.418 82.3046 227.156C82.3018 226.901 82.3927 226.682 82.5773 226.5C82.762 226.318 82.9836 226.227 83.2421 226.227C83.4921 226.227 83.7094 226.318 83.8941 226.5C84.0816 226.682 84.1768 226.901 84.1796 227.156C84.1768 227.33 84.1313 227.487 84.0433 227.629C83.958 227.771 83.8444 227.885 83.7023 227.97C83.5631 228.053 83.4097 228.094 83.2421 228.094ZM86.1323 221.455H87.6749V228.375C87.6749 228.847 87.5854 229.236 87.4064 229.543C87.2275 229.849 86.9689 230.078 86.6309 230.229C86.2928 230.379 85.8823 230.455 85.3993 230.455C85.3425 230.455 85.29 230.453 85.2417 230.45C85.1934 230.45 85.1408 230.449 85.084 230.446V229.189C85.1266 229.192 85.165 229.193 85.1991 229.193C85.2332 229.196 85.2687 229.197 85.3056 229.197C85.6011 229.197 85.8127 229.125 85.9405 228.98C86.0684 228.838 86.1323 228.629 86.1323 228.354V221.455ZM86.8993 220.526C86.6522 220.526 86.4405 220.445 86.2644 220.283C86.0911 220.118 86.0045 219.92 86.0045 219.69C86.0045 219.457 86.0911 219.26 86.2644 219.098C86.4405 218.933 86.6522 218.851 86.8993 218.851C87.1437 218.851 87.3525 218.933 87.5258 219.098C87.7019 219.26 87.79 219.457 87.79 219.69C87.79 219.92 87.7019 220.118 87.5258 220.283C87.3525 220.445 87.1437 220.526 86.8993 220.526ZM94.7945 223.185L93.3883 223.338C93.3485 223.196 93.2789 223.062 93.1794 222.938C93.0829 222.812 92.9522 222.712 92.7874 222.635C92.6226 222.558 92.4209 222.52 92.1823 222.52C91.8613 222.52 91.5914 222.589 91.3726 222.729C91.1567 222.868 91.0502 223.048 91.053 223.27C91.0502 223.46 91.1198 223.615 91.2618 223.734C91.4067 223.854 91.6454 223.952 91.9777 224.028L93.0942 224.267C93.7135 224.401 94.1738 224.612 94.4749 224.902C94.7789 225.192 94.9323 225.571 94.9351 226.04C94.9323 226.452 94.8115 226.815 94.5729 227.131C94.3371 227.443 94.009 227.687 93.5885 227.864C93.1681 228.04 92.6851 228.128 92.1397 228.128C91.3385 228.128 90.6937 227.96 90.205 227.625C89.7164 227.287 89.4252 226.817 89.3314 226.214L90.8357 226.07C90.9039 226.365 91.0488 226.588 91.2704 226.739C91.4919 226.889 91.7803 226.964 92.1354 226.964C92.5019 226.964 92.7959 226.889 93.0175 226.739C93.2419 226.588 93.3542 226.402 93.3542 226.18C93.3542 225.993 93.2817 225.838 93.1368 225.716C92.9948 225.594 92.7732 225.5 92.4721 225.435L91.3556 225.2C90.7277 225.07 90.2633 224.849 89.9621 224.54C89.661 224.227 89.5118 223.832 89.5147 223.355C89.5118 222.952 89.6212 222.602 89.8428 222.307C90.0672 222.009 90.3783 221.778 90.776 221.616C91.1766 221.452 91.6383 221.369 92.161 221.369C92.928 221.369 93.5317 221.533 93.9721 221.859C94.4152 222.186 94.6894 222.628 94.7945 223.185Z" fill="#36B37E"/>
<rect x="115.5" y="204" width="106" height="40" rx="8" fill="white"/>
<path d="M128.361 228V219.273H131.634C132.304 219.273 132.866 219.389 133.321 219.622C133.778 219.855 134.124 220.182 134.357 220.602C134.592 221.02 134.71 221.507 134.71 222.064C134.71 222.624 134.591 223.109 134.352 223.521C134.116 223.93 133.768 224.247 133.308 224.472C132.848 224.693 132.283 224.804 131.612 224.804H129.281V223.491H131.399C131.791 223.491 132.112 223.437 132.362 223.33C132.612 223.219 132.797 223.058 132.916 222.848C133.038 222.635 133.099 222.374 133.099 222.064C133.099 221.754 133.038 221.49 132.916 221.271C132.794 221.05 132.608 220.882 132.358 220.768C132.108 220.652 131.786 220.594 131.391 220.594H129.942V228H128.361ZM132.869 224.045L135.03 228H133.266L131.143 224.045H132.869ZM140.629 225.247V221.455H142.172V228H140.676V226.837H140.608C140.46 227.203 140.217 227.503 139.879 227.736C139.544 227.969 139.131 228.085 138.639 228.085C138.21 228.085 137.831 227.99 137.501 227.8C137.175 227.607 136.919 227.327 136.734 226.96C136.55 226.591 136.457 226.145 136.457 225.622V221.455H138V225.384C138 225.798 138.114 226.128 138.341 226.372C138.568 226.616 138.866 226.739 139.236 226.739C139.463 226.739 139.683 226.683 139.896 226.572C140.109 226.462 140.284 226.297 140.42 226.078C140.56 225.857 140.629 225.58 140.629 225.247ZM144.186 228V219.273H145.729V222.537H145.793C145.872 222.378 145.985 222.209 146.129 222.03C146.274 221.848 146.47 221.693 146.718 221.565C146.965 221.435 147.28 221.369 147.664 221.369C148.169 221.369 148.625 221.499 149.031 221.757C149.441 222.013 149.764 222.392 150.003 222.895C150.245 223.395 150.365 224.009 150.365 224.736C150.365 225.455 150.247 226.065 150.012 226.568C149.776 227.071 149.455 227.455 149.048 227.719C148.642 227.983 148.182 228.115 147.668 228.115C147.293 228.115 146.982 228.053 146.735 227.928C146.487 227.803 146.289 227.652 146.138 227.476C145.99 227.297 145.875 227.128 145.793 226.969H145.703V228H144.186ZM145.699 224.727C145.699 225.151 145.759 225.521 145.878 225.839C146 226.158 146.175 226.406 146.402 226.585C146.632 226.761 146.911 226.849 147.237 226.849C147.578 226.849 147.864 226.759 148.094 226.577C148.324 226.392 148.497 226.141 148.614 225.822C148.733 225.501 148.793 225.136 148.793 224.727C148.793 224.321 148.735 223.96 148.618 223.645C148.502 223.33 148.328 223.082 148.098 222.903C147.868 222.724 147.581 222.635 147.237 222.635C146.908 222.635 146.628 222.722 146.398 222.895C146.168 223.068 145.993 223.311 145.874 223.624C145.757 223.936 145.699 224.304 145.699 224.727ZM152.773 230.455C152.563 230.455 152.368 230.438 152.189 230.403C152.013 230.372 151.872 230.335 151.767 230.293L152.125 229.091C152.35 229.156 152.55 229.188 152.726 229.185C152.902 229.182 153.057 229.126 153.19 229.018C153.327 228.913 153.442 228.737 153.536 228.49L153.668 228.136L151.294 221.455H152.93L154.439 226.398H154.507L156.02 221.455H157.661L155.04 228.793C154.918 229.139 154.756 229.436 154.554 229.683C154.352 229.933 154.105 230.124 153.813 230.254C153.523 230.388 153.176 230.455 152.773 230.455ZM165.28 228.128C164.641 228.128 164.087 227.987 163.618 227.706C163.149 227.425 162.785 227.031 162.527 226.526C162.271 226.02 162.143 225.429 162.143 224.753C162.143 224.077 162.271 223.484 162.527 222.976C162.785 222.467 163.149 222.072 163.618 221.791C164.087 221.51 164.641 221.369 165.28 221.369C165.919 221.369 166.473 221.51 166.942 221.791C167.41 222.072 167.773 222.467 168.028 222.976C168.287 223.484 168.416 224.077 168.416 224.753C168.416 225.429 168.287 226.02 168.028 226.526C167.773 227.031 167.41 227.425 166.942 227.706C166.473 227.987 165.919 228.128 165.28 228.128ZM165.288 226.892C165.635 226.892 165.925 226.797 166.158 226.607C166.391 226.413 166.564 226.155 166.677 225.831C166.794 225.507 166.852 225.146 166.852 224.749C166.852 224.348 166.794 223.986 166.677 223.662C166.564 223.335 166.391 223.075 166.158 222.882C165.925 222.689 165.635 222.592 165.288 222.592C164.933 222.592 164.638 222.689 164.402 222.882C164.169 223.075 163.994 223.335 163.878 223.662C163.764 223.986 163.707 224.348 163.707 224.749C163.707 225.146 163.764 225.507 163.878 225.831C163.994 226.155 164.169 226.413 164.402 226.607C164.638 226.797 164.933 226.892 165.288 226.892ZM171.628 224.165V228H170.085V221.455H171.56V222.567H171.637C171.787 222.2 172.027 221.909 172.357 221.693C172.689 221.477 173.1 221.369 173.588 221.369C174.04 221.369 174.433 221.466 174.769 221.659C175.107 221.852 175.368 222.132 175.553 222.499C175.74 222.865 175.833 223.31 175.83 223.832V228H174.287V224.071C174.287 223.634 174.173 223.291 173.946 223.044C173.722 222.797 173.411 222.673 173.013 222.673C172.743 222.673 172.503 222.733 172.293 222.852C172.085 222.969 171.922 223.138 171.803 223.359C171.686 223.581 171.628 223.849 171.628 224.165ZM181.163 228V219.273H184.435C185.106 219.273 185.668 219.389 186.123 219.622C186.58 219.855 186.925 220.182 187.158 220.602C187.394 221.02 187.512 221.507 187.512 222.064C187.512 222.624 187.393 223.109 187.154 223.521C186.918 223.93 186.57 224.247 186.11 224.472C185.65 224.693 185.085 224.804 184.414 224.804H182.083V223.491H184.201C184.593 223.491 184.914 223.437 185.164 223.33C185.414 223.219 185.599 223.058 185.718 222.848C185.84 222.635 185.901 222.374 185.901 222.064C185.901 221.754 185.84 221.49 185.718 221.271C185.596 221.05 185.41 220.882 185.16 220.768C184.91 220.652 184.587 220.594 184.193 220.594H182.744V228H181.163ZM185.671 224.045L187.832 228H186.068L183.945 224.045H185.671ZM191.143 228.132C190.728 228.132 190.354 228.058 190.022 227.911C189.692 227.76 189.431 227.538 189.238 227.246C189.048 226.953 188.952 226.592 188.952 226.163C188.952 225.794 189.021 225.489 189.157 225.247C189.293 225.006 189.479 224.812 189.715 224.668C189.951 224.523 190.217 224.413 190.512 224.339C190.81 224.263 191.119 224.207 191.437 224.173C191.82 224.134 192.131 224.098 192.37 224.067C192.609 224.033 192.782 223.982 192.89 223.913C193.001 223.842 193.056 223.733 193.056 223.585V223.56C193.056 223.239 192.961 222.99 192.771 222.814C192.58 222.638 192.306 222.55 191.948 222.55C191.57 222.55 191.271 222.632 191.049 222.797C190.83 222.962 190.682 223.156 190.606 223.381L189.165 223.176C189.279 222.778 189.467 222.446 189.728 222.179C189.989 221.909 190.309 221.707 190.687 221.574C191.065 221.438 191.482 221.369 191.94 221.369C192.255 221.369 192.569 221.406 192.881 221.48C193.194 221.554 193.479 221.676 193.738 221.847C193.996 222.014 194.204 222.243 194.36 222.533C194.519 222.822 194.599 223.185 194.599 223.619V228H193.116V227.101H193.065C192.971 227.283 192.839 227.453 192.668 227.612C192.501 227.768 192.289 227.895 192.033 227.991C191.78 228.085 191.484 228.132 191.143 228.132ZM191.543 226.999C191.853 226.999 192.121 226.937 192.349 226.815C192.576 226.69 192.751 226.526 192.873 226.321C192.998 226.116 193.06 225.893 193.06 225.652V224.881C193.012 224.92 192.93 224.957 192.813 224.991C192.7 225.026 192.572 225.055 192.43 225.081C192.288 225.107 192.147 225.129 192.008 225.149C191.869 225.169 191.748 225.186 191.646 225.2C191.415 225.232 191.209 225.283 191.028 225.354C190.846 225.425 190.702 225.524 190.597 225.652C190.492 225.777 190.44 225.939 190.44 226.138C190.44 226.422 190.543 226.636 190.751 226.781C190.958 226.926 191.222 226.999 191.543 226.999ZM196.51 228V221.455H198.052V228H196.51ZM197.285 220.526C197.041 220.526 196.831 220.445 196.655 220.283C196.479 220.118 196.39 219.92 196.39 219.69C196.39 219.457 196.479 219.26 196.655 219.098C196.831 218.933 197.041 218.851 197.285 218.851C197.533 218.851 197.743 218.933 197.916 219.098C198.092 219.26 198.18 219.457 198.18 219.69C198.18 219.92 198.092 220.118 197.916 220.283C197.743 220.445 197.533 220.526 197.285 220.526ZM201.541 219.273V228H199.999V219.273H201.541ZM208.661 223.185L207.255 223.338C207.215 223.196 207.145 223.062 207.046 222.938C206.949 222.812 206.819 222.712 206.654 222.635C206.489 222.558 206.287 222.52 206.049 222.52C205.728 222.52 205.458 222.589 205.239 222.729C205.023 222.868 204.917 223.048 204.919 223.27C204.917 223.46 204.986 223.615 205.128 223.734C205.273 223.854 205.512 223.952 205.844 224.028L206.961 224.267C207.58 224.401 208.04 224.612 208.341 224.902C208.645 225.192 208.799 225.571 208.802 226.04C208.799 226.452 208.678 226.815 208.439 227.131C208.204 227.443 207.875 227.687 207.455 227.864C207.034 228.04 206.552 228.128 206.006 228.128C205.205 228.128 204.56 227.96 204.071 227.625C203.583 227.287 203.292 226.817 203.198 226.214L204.702 226.07C204.77 226.365 204.915 226.588 205.137 226.739C205.358 226.889 205.647 226.964 206.002 226.964C206.368 226.964 206.662 226.889 206.884 226.739C207.108 226.588 207.221 226.402 207.221 226.18C207.221 225.993 207.148 225.838 207.003 225.716C206.861 225.594 206.64 225.5 206.338 225.435L205.222 225.2C204.594 225.07 204.13 224.849 203.829 224.54C203.527 224.227 203.378 223.832 203.381 223.355C203.378 222.952 203.488 222.602 203.709 222.307C203.934 222.009 204.245 221.778 204.642 221.616C205.043 221.452 205.505 221.369 206.027 221.369C206.794 221.369 207.398 221.533 207.838 221.859C208.282 222.186 208.556 222.628 208.661 223.185Z" fill="#36B37E"/>
<rect x="229.5" y="204" width="63" height="40" rx="8" fill="white"/>
<path d="M242.361 228V219.273H245.634C246.304 219.273 246.866 219.389 247.321 219.622C247.778 219.855 248.124 220.182 248.357 220.602C248.592 221.02 248.71 221.507 248.71 222.064C248.71 222.624 248.591 223.109 248.352 223.521C248.116 223.93 247.768 224.247 247.308 224.472C246.848 224.693 246.283 224.804 245.612 224.804H243.281V223.491H245.399C245.791 223.491 246.112 223.437 246.362 223.33C246.612 223.219 246.797 223.058 246.916 222.848C247.038 222.635 247.099 222.374 247.099 222.064C247.099 221.754 247.038 221.49 246.916 221.271C246.794 221.05 246.608 220.882 246.358 220.768C246.108 220.652 245.786 220.594 245.391 220.594H243.942V228H242.361ZM246.869 224.045L249.03 228H247.266L245.143 224.045H246.869ZM255.268 221.672C255.229 221.3 255.061 221.01 254.766 220.803C254.473 220.595 254.092 220.491 253.623 220.491C253.294 220.491 253.011 220.541 252.775 220.641C252.54 220.74 252.359 220.875 252.234 221.045C252.109 221.216 252.045 221.411 252.043 221.629C252.043 221.811 252.084 221.969 252.166 222.102C252.251 222.236 252.366 222.349 252.511 222.443C252.656 222.534 252.817 222.611 252.993 222.673C253.169 222.736 253.347 222.788 253.525 222.831L254.344 223.036C254.673 223.112 254.99 223.216 255.294 223.347C255.601 223.477 255.875 223.642 256.116 223.841C256.361 224.04 256.554 224.28 256.696 224.561C256.838 224.842 256.909 225.172 256.909 225.55C256.909 226.061 256.778 226.511 256.517 226.901C256.256 227.287 255.878 227.589 255.383 227.808C254.892 228.024 254.297 228.132 253.598 228.132C252.919 228.132 252.329 228.027 251.829 227.817C251.332 227.607 250.943 227.3 250.662 226.896C250.383 226.493 250.233 226.001 250.21 225.422H251.766C251.788 225.726 251.882 225.979 252.047 226.18C252.212 226.382 252.426 226.533 252.69 226.632C252.957 226.732 253.256 226.781 253.585 226.781C253.929 226.781 254.23 226.73 254.489 226.628C254.75 226.523 254.954 226.378 255.102 226.193C255.25 226.006 255.325 225.787 255.328 225.537C255.325 225.31 255.258 225.122 255.128 224.974C254.997 224.824 254.814 224.699 254.578 224.599C254.345 224.497 254.072 224.406 253.76 224.327L252.767 224.071C252.048 223.886 251.48 223.607 251.062 223.232C250.648 222.854 250.44 222.352 250.44 221.727C250.44 221.213 250.579 220.763 250.858 220.376C251.139 219.99 251.521 219.69 252.004 219.477C252.487 219.261 253.034 219.153 253.645 219.153C254.264 219.153 254.807 219.261 255.273 219.477C255.741 219.69 256.109 219.987 256.376 220.368C256.643 220.746 256.781 221.18 256.79 221.672H255.268ZM258.61 230.455V221.455H260.127V222.537H260.217C260.296 222.378 260.409 222.209 260.553 222.03C260.698 221.848 260.894 221.693 261.142 221.565C261.389 221.435 261.704 221.369 262.088 221.369C262.593 221.369 263.049 221.499 263.455 221.757C263.865 222.013 264.188 222.392 264.427 222.895C264.669 223.395 264.789 224.009 264.789 224.736C264.789 225.455 264.671 226.065 264.436 226.568C264.2 227.071 263.879 227.455 263.472 227.719C263.066 227.983 262.606 228.115 262.092 228.115C261.717 228.115 261.406 228.053 261.159 227.928C260.911 227.803 260.713 227.652 260.562 227.476C260.414 227.297 260.299 227.128 260.217 226.969H260.153V230.455H258.61ZM260.123 224.727C260.123 225.151 260.183 225.521 260.302 225.839C260.424 226.158 260.599 226.406 260.826 226.585C261.056 226.761 261.335 226.849 261.661 226.849C262.002 226.849 262.288 226.759 262.518 226.577C262.748 226.392 262.921 226.141 263.038 225.822C263.157 225.501 263.217 225.136 263.217 224.727C263.217 224.321 263.159 223.96 263.042 223.645C262.926 223.33 262.752 223.082 262.522 222.903C262.292 222.724 262.005 222.635 261.661 222.635C261.332 222.635 261.052 222.722 260.822 222.895C260.592 223.068 260.417 223.311 260.298 223.624C260.181 223.936 260.123 224.304 260.123 224.727ZM269.368 228.128C268.712 228.128 268.145 227.991 267.668 227.719C267.193 227.443 266.828 227.054 266.573 226.551C266.317 226.045 266.189 225.45 266.189 224.766C266.189 224.092 266.317 223.501 266.573 222.993C266.831 222.482 267.192 222.084 267.655 221.8C268.118 221.513 268.662 221.369 269.287 221.369C269.69 221.369 270.071 221.435 270.429 221.565C270.79 221.693 271.108 221.892 271.384 222.162C271.662 222.432 271.881 222.776 272.04 223.193C272.199 223.608 272.279 224.102 272.279 224.676V225.149H266.913V224.109H270.8C270.797 223.814 270.733 223.551 270.608 223.321C270.483 223.088 270.308 222.905 270.084 222.771C269.862 222.638 269.604 222.571 269.308 222.571C268.993 222.571 268.716 222.648 268.477 222.801C268.239 222.952 268.053 223.151 267.919 223.398C267.788 223.642 267.722 223.911 267.719 224.203V225.111C267.719 225.491 267.788 225.818 267.928 226.091C268.067 226.361 268.261 226.568 268.511 226.713C268.761 226.855 269.054 226.926 269.389 226.926C269.614 226.926 269.817 226.895 269.999 226.832C270.18 226.767 270.338 226.672 270.472 226.547C270.605 226.422 270.706 226.267 270.774 226.082L272.215 226.244C272.124 226.625 271.95 226.957 271.695 227.241C271.442 227.523 271.118 227.741 270.723 227.898C270.328 228.051 269.877 228.128 269.368 228.128ZM276.799 228.128C276.145 228.128 275.584 227.984 275.115 227.697C274.65 227.411 274.29 227.014 274.037 226.509C273.787 226 273.662 225.415 273.662 224.753C273.662 224.088 273.79 223.501 274.046 222.993C274.302 222.482 274.662 222.084 275.128 221.8C275.597 221.513 276.151 221.369 276.79 221.369C277.321 221.369 277.792 221.467 278.201 221.663C278.613 221.857 278.941 222.131 279.185 222.486C279.429 222.838 279.569 223.25 279.603 223.722H278.128C278.069 223.406 277.927 223.143 277.702 222.933C277.48 222.72 277.184 222.614 276.811 222.614C276.496 222.614 276.219 222.699 275.98 222.869C275.742 223.037 275.556 223.278 275.422 223.594C275.292 223.909 275.226 224.287 275.226 224.727C275.226 225.173 275.292 225.557 275.422 225.878C275.553 226.196 275.736 226.442 275.972 226.615C276.211 226.786 276.49 226.871 276.811 226.871C277.039 226.871 277.242 226.828 277.421 226.743C277.603 226.655 277.755 226.528 277.877 226.364C277.999 226.199 278.083 225.999 278.128 225.763H279.603C279.566 226.226 279.429 226.636 279.194 226.994C278.958 227.349 278.637 227.628 278.23 227.83C277.824 228.028 277.347 228.128 276.799 228.128Z" fill="#36B37E"/>
</g>
<g clip-path="url(#clip3_48_1445)">
<rect x="77.5" y="252" width="83" height="40" rx="8" fill="white"/>
<path d="M97.831 270.217C97.5625 268.278 96.071 267.153 94.1364 267.153C91.8565 267.153 90.1392 268.815 90.1392 271.636C90.1392 274.453 91.8352 276.119 94.1364 276.119C96.2116 276.119 97.5881 274.777 97.831 273.111L96.2372 273.102C96.0369 274.125 95.2017 274.7 94.1577 274.7C92.7429 274.7 91.7287 273.639 91.7287 271.636C91.7287 269.668 92.7344 268.572 94.1619 268.572C95.223 268.572 96.054 269.173 96.2372 270.217H97.831ZM101.454 276.132C102.481 276.132 103.095 275.651 103.376 275.101H103.427V276H104.91V271.619C104.91 269.889 103.5 269.369 102.251 269.369C100.875 269.369 99.8177 269.983 99.4768 271.176L100.917 271.381C101.071 270.933 101.505 270.55 102.26 270.55C102.975 270.55 103.367 270.916 103.367 271.56V271.585C103.367 272.028 102.903 272.05 101.748 272.173C100.478 272.31 99.2638 272.689 99.2638 274.163C99.2638 275.45 100.206 276.132 101.454 276.132ZM101.855 274.999C101.211 274.999 100.751 274.705 100.751 274.138C100.751 273.545 101.267 273.298 101.957 273.2C102.362 273.145 103.171 273.043 103.372 272.881V273.652C103.372 274.381 102.784 274.999 101.855 274.999ZM106.821 278.455H108.364V274.969H108.428C108.671 275.446 109.178 276.115 110.303 276.115C111.845 276.115 113 274.892 113 272.736C113 270.554 111.811 269.369 110.298 269.369C109.144 269.369 108.662 270.064 108.428 270.537H108.338V269.455H106.821V278.455ZM108.334 272.727C108.334 271.457 108.879 270.635 109.872 270.635C110.899 270.635 111.428 271.509 111.428 272.727C111.428 273.955 110.891 274.849 109.872 274.849C108.888 274.849 108.334 273.997 108.334 272.727ZM115.417 278.442C116.619 278.442 117.314 277.82 117.684 276.793L120.314 269.463L118.665 269.455L117.152 274.398H117.084L115.575 269.455H113.939L116.312 276.136L116.18 276.49C115.886 277.214 115.443 277.27 114.77 277.078L114.412 278.276C114.62 278.365 114.995 278.442 115.417 278.442ZM121.813 276H123.33V274.969H123.419C123.662 275.446 124.169 276.115 125.294 276.115C126.837 276.115 127.991 274.892 127.991 272.736C127.991 270.554 126.803 269.369 125.29 269.369C124.135 269.369 123.653 270.064 123.419 270.537H123.355V267.273H121.813V276ZM123.325 272.727C123.325 271.457 123.871 270.635 124.864 270.635C125.891 270.635 126.419 271.509 126.419 272.727C126.419 273.955 125.882 274.849 124.864 274.849C123.879 274.849 123.325 273.997 123.325 272.727ZM131.546 276.132C132.573 276.132 133.187 275.651 133.468 275.101H133.519V276H135.002V271.619C135.002 269.889 133.592 269.369 132.343 269.369C130.967 269.369 129.91 269.983 129.569 271.176L131.01 271.381C131.163 270.933 131.598 270.55 132.352 270.55C133.068 270.55 133.46 270.916 133.46 271.56V271.585C133.46 272.028 132.995 272.05 131.84 272.173C130.571 272.31 129.356 272.689 129.356 274.163C129.356 275.45 130.298 276.132 131.546 276.132ZM131.947 274.999C131.304 274.999 130.843 274.705 130.843 274.138C130.843 273.545 131.359 273.298 132.049 273.2C132.454 273.145 133.264 273.043 133.464 272.881V273.652C133.464 274.381 132.876 274.999 131.947 274.999ZM136.914 276H138.456V272.152C138.456 271.321 139.083 270.733 139.931 270.733C140.191 270.733 140.514 270.78 140.647 270.822V269.403C140.506 269.378 140.263 269.361 140.093 269.361C139.343 269.361 138.716 269.787 138.477 270.545H138.409V269.455H136.914V276ZM143.786 276.132C144.813 276.132 145.427 275.651 145.708 275.101H145.759V276H147.242V271.619C147.242 269.889 145.831 269.369 144.583 269.369C143.206 269.369 142.15 269.983 141.809 271.176L143.249 271.381C143.402 270.933 143.837 270.55 144.591 270.55C145.307 270.55 145.699 270.916 145.699 271.56V271.585C145.699 272.028 145.235 272.05 144.08 272.173C142.81 272.31 141.596 272.689 141.596 274.163C141.596 275.45 142.537 276.132 143.786 276.132ZM144.187 274.999C143.543 274.999 143.083 274.705 143.083 274.138C143.083 273.545 143.598 273.298 144.289 273.2C144.694 273.145 145.503 273.043 145.704 272.881V273.652C145.704 274.381 145.116 274.999 144.187 274.999Z" fill="#36B37E"/>
<rect x="168.5" y="252" width="81" height="40" rx="8" fill="white"/>
<path d="M186.104 269.672H187.625C187.595 268.197 186.338 267.153 184.48 267.153C182.648 267.153 181.271 268.185 181.276 269.727C181.276 270.98 182.166 271.7 183.602 272.071L184.595 272.327C185.537 272.565 186.159 272.859 186.163 273.537C186.159 274.283 185.452 274.781 184.42 274.781C183.432 274.781 182.665 274.338 182.601 273.422H181.045C181.109 275.156 182.401 276.132 184.433 276.132C186.526 276.132 187.74 275.088 187.744 273.55C187.74 272.037 186.491 271.347 185.179 271.036L184.361 270.831C183.645 270.661 182.869 270.358 182.878 269.629C182.882 268.973 183.47 268.491 184.459 268.491C185.401 268.491 186.023 268.93 186.104 269.672ZM192.343 276.128C193.869 276.128 194.917 275.382 195.19 274.244L193.75 274.082C193.541 274.636 193.029 274.926 192.365 274.926C191.367 274.926 190.707 274.27 190.694 273.149H195.254V272.676C195.254 270.379 193.873 269.369 192.262 269.369C190.387 269.369 189.164 270.746 189.164 272.766C189.164 274.82 190.37 276.128 192.343 276.128ZM190.698 272.109C190.745 271.274 191.363 270.571 192.284 270.571C193.17 270.571 193.767 271.219 193.775 272.109H190.698ZM198.461 267.273H196.919V276H198.461V267.273ZM203.305 276.128C204.831 276.128 205.879 275.382 206.152 274.244L204.712 274.082C204.503 274.636 203.992 274.926 203.327 274.926C202.33 274.926 201.669 274.27 201.656 273.149H206.216V272.676C206.216 270.379 204.835 269.369 203.225 269.369C201.35 269.369 200.127 270.746 200.127 272.766C200.127 274.82 201.332 276.128 203.305 276.128ZM201.661 272.109C201.707 271.274 202.325 270.571 203.246 270.571C204.132 270.571 204.729 271.219 204.737 272.109H201.661ZM209.424 272.165C209.424 271.219 209.995 270.673 210.809 270.673C211.605 270.673 212.083 271.197 212.083 272.071V276H213.625V271.832C213.63 270.264 212.735 269.369 211.384 269.369C210.404 269.369 209.73 269.838 209.432 270.567H209.355V269.455H207.881V276H209.424V272.165ZM215.554 276H217.096V269.455H215.554V276ZM216.329 268.526C216.819 268.526 217.22 268.151 217.22 267.69C217.22 267.226 216.819 266.851 216.329 266.851C215.835 266.851 215.434 267.226 215.434 267.69C215.434 268.151 215.835 268.526 216.329 268.526ZM223.214 273.247C223.214 274.244 222.503 274.739 221.821 274.739C221.079 274.739 220.585 274.214 220.585 273.384V269.455H219.042V273.622C219.042 275.195 219.937 276.085 221.224 276.085C222.204 276.085 222.895 275.57 223.193 274.837H223.261V276H224.757V269.455H223.214V273.247ZM226.703 276H228.246V272.02C228.246 271.214 228.783 270.669 229.448 270.669C230.1 270.669 230.547 271.108 230.547 271.781V276H232.06V271.918C232.06 271.18 232.499 270.669 233.244 270.669C233.867 270.669 234.361 271.036 234.361 271.845V276H235.908V271.607C235.908 270.145 235.064 269.369 233.862 269.369C232.912 269.369 232.188 269.838 231.898 270.567H231.83C231.578 269.825 230.943 269.369 230.061 269.369C229.183 269.369 228.527 269.821 228.254 270.567H228.178V269.455H226.703V276Z" fill="#36B37E"/>
</g>
</g>
</g>
<g filter="url(#filter0_d_48_1445)">
<circle cx="164" cy="80" r="40" fill="white"/>
</g>
<path d="M156 84.7999C156 85.1999 156.2 85.5999 156.6 85.7999L161.6 88.7999C162.2 89.1999 162.8 88.7999 162.8 88.1999V82.5999C162.8 82.3999 162.6 81.9999 162.4 81.9999L157.2 78.5999C156.8 78.3999 156 78.7999 156 79.3999V84.7999Z" fill="#091E42"/>
<path d="M163.6 82.3997V87.9997C163.6 88.5997 164.2 88.9997 164.8 88.5997L169.8 85.5997C170.2 85.3997 170.4 84.9997 170.4 84.5997V79.3997C170.4 78.7997 169.8 78.3997 169.2 78.7997L164 81.5997C163.8 81.7997 163.6 81.9997 163.6 82.3997Z" fill="#091E42"/>
<path d="M169.2 77.7998L163.6 80.9998C163.4 81.1998 163 81.1998 162.8 80.9998L157.2 77.7998C156.6 77.3998 156.6 76.7998 157.2 76.3998L162.8 73.1998C163 72.9998 163.4 72.9998 163.6 73.1998L169.2 76.3998C169.8 76.5998 169.8 77.3998 169.2 77.7998Z" fill="#36B37E"/>
<path d="M144 96.0001C144 96.4001 144.2 96.8001 144.6 97.0001L149.6 100C150.2 100.4 150.8 100 150.8 99.4001V93.8001C150.8 93.6001 150.6 93.2001 150.4 93.2001L145.2 90.2001C144.6 89.8001 144 90.2001 144 90.8001V96.0001V96.0001Z" fill="#091E42"/>
<path d="M151.6 93.4003V99.0003C151.6 99.6003 152.2 100 152.8 99.6003L157.8 96.6003C158.2 96.4003 158.4 96.0003 158.4 95.6003V90.0003C158.4 89.4003 157.8 89.0003 157.2 89.4003L152 92.8003C151.8 93.0003 151.6 93.2003 151.6 93.4003Z" fill="#091E42"/>
<path d="M157.2 88.7998L151.6 91.9998C151.4 92.1998 151 92.1998 150.8 91.9998L145.2 88.7998C144.6 88.3998 144.6 87.7998 145.2 87.3998L150.8 84.1998C151 83.9998 151.4 83.9998 151.6 84.1998L157.2 87.3998C157.6 87.7998 157.6 88.5998 157.2 88.7998Z" fill="#36B37E"/>
<path d="M168.2 96.0001C168.2 96.4001 168.4 96.8001 168.8 97.0001L173.8 100C174.4 100.4 175 100 175 99.4001V93.8001C175 93.6001 174.8 93.2001 174.6 93.2001L169.4 90.2001C168.8 89.8001 168.2 90.2001 168.2 90.8001V96.0001V96.0001Z" fill="#091E42"/>
<path d="M175.6 93.4003V99.0003C175.6 99.6003 176.2 100 176.8 99.6003L181.8 96.6003C182.2 96.4003 182.4 96.0003 182.4 95.6003V90.0003C182.4 89.4003 181.8 89.0003 181.2 89.4003L176 92.8003C175.8 93.0003 175.6 93.2003 175.6 93.4003Z" fill="#091E42"/>
<path d="M181.2 88.7998L175.6 91.9998C175.4 92.1998 175 92.1998 174.8 91.9998L169.2 88.7998C168.6 88.3998 168.6 87.7998 169.2 87.3998L174.8 84.1998C175 83.9998 175.4 83.9998 175.6 84.1998L181.2 87.3998C181.8 87.7998 181.8 88.5998 181.2 88.7998Z" fill="#36B37E"/>
<path d="M144 73.8005C144 74.2005 144.2 74.6005 144.6 74.8005L149.6 77.8005C150 78.0005 150.8 77.6005 150.8 77.0005V71.2005C150.8 71.0005 150.6 70.6005 150.4 70.6005L145.2 67.6005C144.6 67.4005 144 67.6005 144 68.4005V73.8005Z" fill="#091E42"/>
<path d="M151.6 71.1997V76.7997C151.6 77.3997 152.2 77.7997 152.8 77.3997L157.8 74.3997C158.2 74.1997 158.4 73.7997 158.4 73.3997V68.3997C158.4 67.7997 157.8 67.3997 157.2 67.7997L152 70.5997C151.8 70.7997 151.6 70.9997 151.6 71.1997Z" fill="#091E42"/>
<path d="M157.2 66.6L151.6 69.8C151.4 70 151 70 150.8 69.8L145.2 66.6C144.6 66.2 144.6 65.6 145.2 65.2L150.8 62C151 62 151.4 62 151.6 62.2L157.2 65.4C157.6 65.6 157.6 66.4 157.2 66.6Z" fill="#36B37E"/>
<path d="M168.2 73.8005C168.2 74.2005 168.4 74.6005 168.8 74.8005L173.8 77.8005C174.4 78.2005 175 77.8005 175 77.2005V71.2005C175 71.0005 174.8 70.6005 174.6 70.6005L169.4 67.6005C168.8 67.2005 168.2 67.6005 168.2 68.2005V73.8005V73.8005Z" fill="#091E42"/>
<path d="M175.6 71.1997V76.7997C175.6 77.3997 176.2 77.7997 176.8 77.3997L181.8 74.3997C182.2 74.1997 182.4 73.7997 182.4 73.3997V68.3997C182.4 67.7997 181.8 67.3997 181.2 67.7997L176 70.5997C175.8 70.7997 175.6 70.9997 175.6 71.1997Z" fill="#091E42"/>
<path d="M181.2 66.5998L175.6 69.9998C175.4 69.9998 175.2 69.9998 174.8 69.9998L169.2 66.7998C168.6 66.3998 168.6 65.7998 169.2 65.3998L174.8 62.1998C175 61.9998 175.4 61.9998 175.6 62.1998L181.2 65.3998C181.8 65.5998 181.8 66.3998 181.2 66.5998Z" fill="#36B37E"/>
<defs>
<filter id="filter0_d_48_1445" x="100" y="32" width="128" height="128" filterUnits="userSpaceOnUse" color-interpolation-filters="sRGB">
<feFlood flood-opacity="0" result="BackgroundImageFix"/>
<feColorMatrix in="SourceAlpha" type="matrix" values="0 0 0 0 0 0 0 0 0 0 0 0 0 0 0 0 0 0 127 0" result="hardAlpha"/>
<feOffset dy="16"/>
<feGaussianBlur stdDeviation="12"/>
<feColorMatrix type="matrix" values="0 0 0 0 0.145573 0 0 0 0 0.185183 0 0 0 0 0.5375 0 0 0 0.08 0"/>
<feBlend mode="normal" in2="BackgroundImageFix" result="effect1_dropShadow_48_1445"/>
<feBlend mode="normal" in="SourceGraphic" in2="effect1_dropShadow_48_1445" result="shape"/>
</filter>
<clipPath id="clip0_48_1445">
<rect width="327" height="144" fill="white" transform="translate(0 148)"/>
</clipPath>
<clipPath id="clip1_48_1445">
<rect width="258" height="88" fill="white" transform="translate(34.5 204)"/>
</clipPath>
<clipPath id="clip2_48_1445">
<rect width="258" height="40" fill="white" transform="translate(34.5 204)"/>
</clipPath>
<clipPath id="clip3_48_1445">
<rect width="172" height="40" fill="white" transform="translate(77.5 252)"/>
</clipPath>
</defs>
</svg>
