<svg width="1413" height="1015" viewBox="0 0 1413 1015" fill="none" xmlns="http://www.w3.org/2000/svg">
<path d="M123.583 703.018L384.212 528.983" stroke="#A5ADBA" stroke-miterlimit="10" stroke-linecap="round" stroke-dasharray="1 1"/>
<path d="M45.9116 469.07L342.294 408.586" stroke="#A5ADBA" stroke-miterlimit="10" stroke-linecap="round" stroke-dasharray="1 1"/>
<path d="M42.2134 218.288L338.595 278.772" stroke="#A5ADBA" stroke-miterlimit="10" stroke-linecap="round" stroke-dasharray="1 1"/>
<path d="M112.732 -18.7979L373.361 155.237" stroke="#A5ADBA" stroke-miterlimit="10" stroke-linecap="round" stroke-dasharray="1 1"/>
<path d="M249.088 -213.661L442.649 53.0976" stroke="#A5ADBA" stroke-miterlimit="10" stroke-linecap="round" stroke-dasharray="1 1"/>
<path d="M1051.19 -229.638L857.881 36.8358" stroke="#A5ADBA" stroke-miterlimit="10" stroke-linecap="round" stroke-dasharray="1 1"/>
<path d="M1193.22 -40.4814L932.838 133.554" stroke="#A5ADBA" stroke-miterlimit="10" stroke-linecap="round" stroke-dasharray="1 1"/>
<path d="M1270.89 193.753L974.757 253.952" stroke="#A5ADBA" stroke-miterlimit="10" stroke-linecap="round" stroke-dasharray="1 1"/>
<path d="M1274.84 444.248L978.456 383.764" stroke="#A5ADBA" stroke-miterlimit="10" stroke-linecap="round" stroke-dasharray="1 1"/>
<path d="M1204.07 681.337L943.688 507.302" stroke="#A5ADBA" stroke-miterlimit="10" stroke-linecap="round" stroke-dasharray="1 1"/>
<path d="M1067.72 876.198L874.402 609.439" stroke="#A5ADBA" stroke-miterlimit="10" stroke-linecap="round" stroke-dasharray="1 1"/>
<path d="M882.044 1005.44L779.223 678.197" stroke="#A5ADBA" stroke-miterlimit="10" stroke-linecap="round" stroke-dasharray="1 1"/>
<path d="M658.648 929.266L658.648 705.017" stroke="#A5ADBA" stroke-miterlimit="10" stroke-linecap="round" stroke-dasharray="1 1"/>
<path d="M455.225 1014L558.293 686.757" stroke="#A5ADBA" stroke-miterlimit="10" stroke-linecap="round" stroke-dasharray="1 1"/>
<path d="M265.855 892.176L459.169 625.702" stroke="#A5ADBA" stroke-miterlimit="10" stroke-linecap="round" stroke-dasharray="1 1"/>
<path d="M123.583 703.018L384.212 528.983" stroke="#A5ADBA" stroke-miterlimit="10" stroke-linecap="round" stroke-dasharray="1 1"/>
<path d="M45.9116 469.07L342.294 408.586" stroke="#A5ADBA" stroke-miterlimit="10" stroke-linecap="round" stroke-dasharray="1 1"/>
<path d="M42.2134 218.288L338.595 278.772" stroke="#A5ADBA" stroke-miterlimit="10" stroke-linecap="round" stroke-dasharray="1 1"/>
<path d="M112.732 -18.7979L373.361 155.237" stroke="#A5ADBA" stroke-miterlimit="10" stroke-linecap="round" stroke-dasharray="1 1"/>
<path d="M249.088 -213.661L442.649 53.0976" stroke="#A5ADBA" stroke-miterlimit="10" stroke-linecap="round" stroke-dasharray="1 1"/>
<g clip-path="url(#clip0_34_2069)">
<path d="M1069.03 299.001L1182.11 177.563L1346.88 220.128L1233.14 341.528L1069.03 299.001Z" fill="#C5E9DA" stroke="#36B37E" stroke-width="2.29137" stroke-miterlimit="10" stroke-linejoin="round"/>
<path d="M1233.14 341.528L1346.88 220.128L1382.02 387.028L1276.21 505.723L1233.14 341.528Z" fill="white" stroke="#36B37E" stroke-width="2.29137" stroke-miterlimit="10" stroke-linejoin="round"/>
<path d="M1233.14 341.529L1163.86 404.849L1276.21 505.723L1233.14 341.529Z" fill="white" stroke="#36B37E" stroke-width="2.29137" stroke-miterlimit="10" stroke-linejoin="round"/>
<path d="M1163.86 404.848L1069.03 299.001L1233.14 341.528L1163.86 404.848Z" fill="white" stroke="#36B37E" stroke-width="2.29137" stroke-miterlimit="10" stroke-linejoin="round"/>
<path d="M1276.21 505.723L1111.12 459.426L1163.86 404.849L1276.21 505.723Z" fill="#C5E9DA" stroke="#36B37E" stroke-width="2.29137" stroke-miterlimit="10" stroke-linejoin="round"/>
<path d="M1069.03 299.001L1111.12 459.426L1163.86 404.848L1069.03 299.001Z" fill="white" stroke="#36B37E" stroke-width="2.29137" stroke-miterlimit="10" stroke-linejoin="round"/>
<path d="M1198.4 373.216L1219.37 354.211L1198.4 373.216Z" fill="#644DF2"/>
<path d="M1214.81 336.828L1219.37 354.211L1233.14 341.528L1214.81 336.828Z" fill="#36B37E"/>
<path d="M1214.81 336.828L1326.47 214.895L1298.17 207.627L1186.97 329.655L1214.81 336.828Z" fill="#36B37E"/>
<path d="M1166.05 324.118L1277.71 202.186L1249.4 194.917L1138.2 316.945L1166.05 324.118Z" fill="#36B37E"/>
<path d="M1166.05 324.117L1182.97 388.622L1198.4 373.216L1186.97 329.654L1166.05 324.117Z" fill="#36B37E"/>
<path d="M1138.2 316.944L1160.18 400.717L1111.83 346.708L1101.5 307.335L1138.2 316.944Z" fill="#36B37E"/>
<path d="M1101.5 307.336L1118.61 290.102L1085.37 281.311L1069.03 299.002L1101.5 307.336Z" fill="#172B4D"/>
<path d="M1153.85 299.9L1169.79 282.324L1133.55 272.81L1117.15 290.291L1153.85 299.9Z" fill="#172B4D"/>
<path d="M1133.55 272.81L1150.66 255.576L1117.42 246.785L1101.02 264.267L1133.55 272.81Z" fill="#172B4D"/>
<path d="M1159.45 409.476L1163.86 404.849L1127.98 464.317L1111.12 459.426L1159.45 409.476Z" fill="#172B4D"/>
<path d="M1357.93 272.125L1337.05 295.605L1345.51 332.808L1365.84 309.709L1357.93 272.125Z" fill="#36B37E"/>
<path d="M1343.73 325.212L1349.57 353.257L1329.24 376.356L1322.94 348.216L1254.68 423.626C1254.68 423.626 1273.36 494.833 1276.21 505.723C1279.07 516.614 1382.07 387.238 1382.07 387.238L1364.23 302.741L1343.73 325.212Z" fill="#172B4D"/>
</g>
<g opacity="0.88">
<g clip-path="url(#clip1_34_2069)">
<path d="M379.64 777.689L340.458 842.327L263.777 839.413L303.253 774.728L379.64 777.689Z" fill="#C5E9DA" stroke="#36B37E" stroke-width="1.11251" stroke-miterlimit="10" stroke-linejoin="round"/>
<path d="M303.254 774.728L263.778 839.413L233.338 768.982L269.542 706.261L303.254 774.728Z" fill="white" stroke="#36B37E" stroke-width="1.11251" stroke-miterlimit="10" stroke-linejoin="round"/>
<path d="M303.254 774.727L328.243 740.028L269.542 706.26L303.254 774.727Z" fill="white" stroke="#36B37E" stroke-width="1.11251" stroke-miterlimit="10" stroke-linejoin="round"/>
<path d="M328.243 740.029L379.64 777.688L303.254 774.728L328.243 740.029Z" fill="white" stroke="#36B37E" stroke-width="1.11251" stroke-miterlimit="10" stroke-linejoin="round"/>
<path d="M269.542 706.26L346.702 710.793L328.243 740.029L269.542 706.26Z" fill="#C5E9DA" stroke="#36B37E" stroke-width="1.11251" stroke-miterlimit="10" stroke-linejoin="round"/>
<path d="M379.64 777.688L346.702 710.793L328.243 740.029L379.64 777.688Z" fill="white" stroke="#36B37E" stroke-width="1.11251" stroke-miterlimit="10" stroke-linejoin="round"/>
<path d="M315.79 757.356L308.209 767.788L315.79 757.356Z" fill="#644DF2"/>
<path d="M311.778 775.037L308.209 767.789L303.254 774.728L311.778 775.037Z" fill="#36B37E"/>
<path d="M311.778 775.037L273.273 839.756L286.44 840.237L324.734 775.521L311.778 775.037Z" fill="#36B37E"/>
<path d="M334.484 775.949L295.978 840.668L309.145 841.15L347.44 776.433L334.484 775.949Z" fill="#36B37E"/>
<path d="M334.483 775.949L321.239 749.051L315.79 757.356L324.734 775.521L334.483 775.949Z" fill="#36B37E"/>
<path d="M347.439 776.433L330.239 741.501L356.448 760.72L364.532 777.139L347.439 776.433Z" fill="#36B37E"/>
<path d="M364.532 777.139L358.501 786.415L373.99 787.092L379.64 777.689L364.532 777.139Z" fill="#172B4D"/>
<path d="M342.039 785.484L336.557 794.798L353.439 795.506L359.132 786.189L342.039 785.484Z" fill="#172B4D"/>
<path d="M353.439 795.505L347.408 804.781L362.897 805.459L368.59 796.142L353.439 795.505Z" fill="#172B4D"/>
<path d="M329.781 737.556L328.243 740.029L338.808 710.258L346.702 710.793L329.781 737.556Z" fill="#172B4D"/>
<path d="M254.25 817.479L261.391 805.077L254.327 789.438L247.395 801.619L254.25 817.479Z" fill="#36B37E"/>
<path d="M255.791 792.627L250.703 780.786L257.635 768.605L262.934 780.443L286.398 740.494C286.398 740.494 271.778 710.801 269.542 706.26C267.306 701.719 233.295 768.893 233.295 768.893L248.73 804.546L255.791 792.627Z" fill="#172B4D"/>
</g>
</g>
<g opacity="0.32">
<g clip-path="url(#clip2_34_2069)">
<path d="M494.464 93.1912L511.977 116.397L501.009 145.023L483.518 121.699L494.464 93.1912Z" fill="#C5E9DA" stroke="#36B37E" stroke-width="1.11251" stroke-miterlimit="10" stroke-linejoin="round"/>
<path d="M483.518 121.698L501.01 145.022L472.439 147.397L455.209 125.566L483.518 121.698Z" fill="white" stroke="#36B37E" stroke-width="1.11251" stroke-miterlimit="10" stroke-linejoin="round"/>
<path d="M483.518 121.698L474.63 107.744L455.209 125.566L483.518 121.698Z" fill="white" stroke="#36B37E" stroke-width="1.11251" stroke-miterlimit="10" stroke-linejoin="round"/>
<path d="M474.63 107.745L494.464 93.1904L483.518 121.699L474.63 107.745Z" fill="white" stroke="#36B37E" stroke-width="1.11251" stroke-miterlimit="10" stroke-linejoin="round"/>
<path d="M455.209 125.567L466.805 96.9699L474.63 107.745L455.209 125.567Z" fill="#C5E9DA" stroke="#36B37E" stroke-width="1.11251" stroke-miterlimit="10" stroke-linejoin="round"/>
<path d="M494.464 93.1904L466.805 96.9698L474.63 107.745L494.464 93.1904Z" fill="white" stroke="#36B37E" stroke-width="1.11251" stroke-miterlimit="10" stroke-linejoin="round"/>
<path d="M479.072 114.703L481.735 118.924L479.072 114.703Z" fill="#644DF2"/>
<path d="M484.732 118.514L481.735 118.923L483.518 121.698L484.732 118.514Z" fill="#36B37E"/>
<path d="M484.732 118.514L502.362 141.475L504.238 136.558L486.582 113.677L484.732 118.514Z" fill="#36B37E"/>
<path d="M487.997 110.045L505.626 133.006L507.503 128.088L489.847 105.207L487.997 110.045Z" fill="#36B37E"/>
<path d="M487.997 110.045L476.876 111.565L479.072 114.703L486.582 113.677L487.997 110.045Z" fill="#36B37E"/>
<path d="M489.847 105.206L475.403 107.18L485.523 99.7606L492.311 98.833L489.847 105.206Z" fill="#36B37E"/>
<path d="M492.311 98.8336L494.772 102.318L497.018 96.5475L494.464 93.1905L492.311 98.8336Z" fill="#172B4D"/>
<path d="M492.31 108.423L494.855 111.705L497.293 105.412L494.774 102.05L492.31 108.423Z" fill="#172B4D"/>
<path d="M497.293 105.412L499.753 108.896L502 103.126L499.481 99.7637L497.293 105.412Z" fill="#172B4D"/>
<path d="M473.965 106.842L474.63 107.745L465.593 99.8863L466.805 96.9699L473.965 106.842Z" fill="#172B4D"/>
<path d="M492.106 145.78L488.696 141.47L482.313 142.113L485.672 146.315L492.106 145.78Z" fill="#36B37E"/>
<path d="M483.618 141.973L478.818 142.361L475.459 138.159L480.285 137.691L469.364 123.633C469.364 123.633 457.087 125.31 455.209 125.567C453.331 125.823 472.402 147.403 472.402 147.403L486.868 146.19L483.618 141.973Z" fill="#172B4D"/>
</g>
</g>
<g clip-path="url(#clip3_34_2069)">
<path d="M29.0626 348.199L171.72 256.117C171.72 256.117 57.3054 444.144 55.3868 443.333C55.3868 443.333 37.5962 373.66 29.0626 348.199Z" fill="white" stroke="#36B37E" stroke-width="1.43899" stroke-miterlimit="10" stroke-linejoin="round"/>
<path d="M171.72 256.117L176.021 262.274C176.021 262.274 180.657 456.434 180.366 458.325C180.074 460.217 182.936 462.047 178.443 463.248C173.95 464.45 94.3897 451.445 74.8243 447.362C55.3868 443.333 55.3868 443.333 55.3868 443.333L171.72 256.117Z" fill="#36B37E"/>
<path d="M83.2143 336.982L118.14 434.511L177.92 400.872L175.526 298.645L83.2143 336.982Z" fill="#C5E9DA"/>
<mask id="mask0_34_2069" style="mask-type:alpha" maskUnits="userSpaceOnUse" x="83" y="299" width="96" height="137">
<path d="M83.6748 337.685L118.601 435.214L178.38 401.575L175.986 299.348L83.6748 337.685Z" fill="#C5E9DA"/>
</mask>
<g mask="url(#mask0_34_2069)">
<path d="M169.36 396.935L153.38 393.592L153.012 415.137L135.825 412.214L134.729 435.621L152.56 438.041L169.519 440.402L185.607 442.706L184.952 420.729L169.328 418.001L169.36 396.935Z" fill="#36B37E"/>
<path d="M136.656 390.245L153.38 393.591L153.715 373.273L137.635 369.423L136.656 390.245Z" fill="#36B37E"/>
<path d="M119.165 386.574L117.69 409.046L135.825 412.214L136.656 390.245L119.165 386.574Z" fill="#36B37E"/>
<path d="M119.165 386.574L120.556 365.461L102.657 361.308L100.675 382.79L119.165 386.574Z" fill="#36B37E"/>
<path d="M100.675 382.79L81.3651 378.816L78.4752 402.24L75.3975 427.289L96.3019 430.233L116.079 433.01L117.69 409.046L98.5562 405.765L100.675 382.79Z" fill="#36B37E"/>
<path d="M212.999 405.765L211.712 386.931L198.218 383.709L184.032 380.35L183.565 361.707L169.228 357.974L154.199 354.103L153.715 373.274L169.283 376.907L169.359 396.934L184.572 399.953L184.952 420.728L199.885 423.319L199.041 402.967L212.999 405.765Z" fill="#36B37E"/>
<path d="M196.659 348.02L183.117 344.158L183.565 361.707L197.466 365.412L196.659 348.02Z" fill="#36B37E"/>
<path d="M138.402 349.907L154.199 354.103L154.499 335.784L139.242 331.352L123.166 326.729L121.915 345.575L120.556 365.461L137.635 369.423L138.402 349.907Z" fill="#36B37E"/>
<path d="M104.608 341.052L86.5334 336.204L83.9913 356.83L102.657 361.308L104.608 341.052Z" fill="#36B37E"/>
<path d="M64.1977 352.186L60.8003 374.621L81.3649 378.816L83.991 356.83L64.1977 352.186Z" fill="#36B37E"/>
</g>
<path d="M83.2142 336.982L134.804 315.537L97.6194 377.17L83.2142 336.982Z" fill="#172B4D"/>
<path d="M55.043 331.278L43.8712 399.563" stroke="#36B37E" stroke-width="1.43899" stroke-miterlimit="10" stroke-linejoin="round"/>
<path d="M52.7128 345.638L48.2522 335.693L55.0431 331.278L52.7128 345.638Z" fill="#172B4D"/>
<path d="M144.608 273.645L158.406 277.616" stroke="#36B37E" stroke-width="1.43899" stroke-miterlimit="10" stroke-linejoin="round"/>
<path d="M93.083 367.037L127.102 456.588" stroke="white" stroke-width="1.43899" stroke-miterlimit="10" stroke-linejoin="round"/>
</g>
<g clip-path="url(#clip4_34_2069)">
<path d="M1015.33 105.273L910.881 90.86L867.271 46.8531L873.059 -64.2947L887.245 -85.5576L918.888 -80.955L1020.93 33.4192L1015.33 105.273Z" fill="#C5E9DA" stroke="#36B37E" stroke-width="1.51665" stroke-miterlimit="10" stroke-linejoin="round"/>
<path d="M946.233 95.7443L943.819 63.7889C943.819 63.7889 933.268 93.9393 928.879 93.3503C924.371 92.675 946.233 95.7443 946.233 95.7443Z" fill="#36B37E"/>
<path d="M971.196 99.21L995.132 4.66259" stroke="#36B37E" stroke-width="1.51665" stroke-miterlimit="10"/>
<path d="M989.098 28.3086L987.301 -4.30658" stroke="#36B37E" stroke-width="1.51665" stroke-miterlimit="10"/>
<path d="M872.583 -40.8922L915.245 -12.0699L925.799 0.784429L914.733 9.39749L871.831 -27.0019L872.583 -40.8922Z" fill="white" stroke="#36B37E" stroke-width="1.51665"/>
<path d="M943.396 79.1602L943.715 29.8341" stroke="#36B37E" stroke-width="1.51665" stroke-miterlimit="10"/>
<path d="M883.745 -24.6934L871.393 -31.3988L867.324 46.9082L910.935 90.915L914.721 10.3774L909.236 1.0763L883.745 -24.6934Z" fill="#172B4D"/>
</g>
<g opacity="0.48" clip-path="url(#clip5_34_2069)">
<path d="M522.684 623.759L602.846 674.621C602.846 674.621 614.716 684.347 603.555 705.295C592.395 726.243 578.874 721.162 578.874 721.162L495.62 671.321C495.62 671.321 485.754 661.871 495.648 642.492C507.094 619.952 522.684 623.759 522.684 623.759Z" fill="#C5E9DA" stroke="#36B37E" stroke-width="0.736762" stroke-miterlimit="10"/>
<path d="M522.684 623.759C522.684 623.759 534.045 631.006 521.923 654.858C510.533 677.198 495.62 671.322 495.62 671.322C495.62 671.322 486.038 661.037 495.648 642.492C505.259 623.947 516.794 623.617 522.684 623.759Z" fill="#36B37E"/>
<path d="M596.483 670.549C596.483 670.549 589.071 682.287 569.555 690.397C548.857 699.018 537.069 696.134 537.069 696.134L553.792 706.178C553.792 706.178 562.569 708.105 584.204 697.601C601.867 689.044 606.911 680.6 606.911 680.6L602.75 674.592L596.483 670.549Z" fill="#172B4D"/>
<path d="M568.064 652.78C568.064 652.78 560.888 663.29 539.658 670.453C518.428 677.616 503.855 676.332 503.855 676.332L520.578 686.376C520.578 686.376 534.127 688.165 553.259 679.94C570.988 672.269 581.112 661.073 581.112 661.073L570.855 654.536L568.064 652.78Z" fill="#36B37E"/>
<path d="M521.923 654.857C521.923 654.857 544.171 656.602 557.246 645.642L542.903 636.581C542.903 636.581 536.361 639.166 527.412 637.674C527.412 637.674 525.054 648.437 521.923 654.857Z" fill="#172B4D"/>
<path d="M513.43 645.711L510.607 649.518L511.551 666.953C511.551 666.953 518.042 662.297 521.923 654.858L518.482 646.252L513.43 645.711Z" fill="white" stroke="#36B37E" stroke-width="0.736762" stroke-miterlimit="10"/>
<path d="M526.153 629.073C526.153 629.073 525.194 624.836 522.65 623.695L509.184 643.952C509.184 643.952 513.869 645.627 515.035 646.301C516.235 647.039 518.436 648.294 518.436 648.294L526.694 642.707C526.728 642.772 529.557 635.937 526.153 629.073Z" fill="white" stroke="#36B37E" stroke-width="0.736762" stroke-miterlimit="10"/>
<path d="M605.797 700.394C605.797 700.394 593.777 709.235 579.113 712.036C565.486 714.661 564.228 712.444 564.228 712.444L578.874 721.162C578.874 721.162 585.13 723.362 592.968 718.353C600.805 713.344 605.797 700.394 605.797 700.394Z" fill="#36B37E"/>
<path d="M515.07 646.365C515.07 646.365 514.02 639.828 512.761 637.612C511.503 635.395 511.223 634.716 511.223 634.716L508.245 640.208L509.218 644.016L515.07 646.365Z" fill="white" stroke="#36B37E" stroke-width="0.736762" stroke-miterlimit="10"/>
<path d="M510.545 649.553L506.393 648.579L491.509 660.999C491.509 660.999 491.129 662.562 493.266 667.802L494.586 669.983L512.214 652.542C512.152 652.578 512.652 650.022 510.545 649.553Z" fill="white" stroke="#36B37E" stroke-width="0.736762" stroke-miterlimit="10"/>
<path d="M510.545 649.553C510.545 649.553 505.031 659.695 505.244 659.489C505.457 659.282 513.722 653.86 513.722 653.86C513.722 653.86 513.422 649.495 510.545 649.553Z" fill="white" stroke="#36B37E" stroke-width="0.736762" stroke-miterlimit="10"/>
</g>
<g clip-path="url(#clip6_34_2069)">
<path d="M882.023 813.033L971.19 654.367C971.19 654.367 988.362 630.795 1026.64 651.897C1064.93 672.998 1056.21 699.637 1056.21 699.637L969.004 864.318C969.004 864.318 952.26 883.958 916.859 865.28C875.688 843.677 882.023 813.033 882.023 813.033Z" fill="#C5E9DA" stroke="#36B37E" stroke-width="1.38636" stroke-miterlimit="10"/>
<path d="M882.025 813.034C882.025 813.034 894.731 790.546 938.3 813.425C979.108 834.927 969.005 864.318 969.005 864.318C969.005 864.318 950.742 883.434 916.861 865.28C882.979 847.127 881.975 824.566 882.025 813.034Z" fill="#36B37E"/>
<path d="M964.053 666.962C964.053 666.962 985.543 681.054 1000.9 718.959C1017.22 759.159 1012.42 782.331 1012.42 782.331L1030 749.25C1030 749.25 1033.18 732.006 1013.41 690.037C997.313 655.774 981.864 646.201 981.864 646.201L971.143 654.557L964.053 666.962Z" fill="#172B4D"/>
<path d="M932.915 723.203C932.915 723.203 952.177 736.877 965.881 778.17C979.586 819.463 977.778 848.026 977.778 848.026L995.355 814.945C995.355 814.945 998.112 788.368 982.561 751.219C968.06 716.794 947.454 697.378 947.454 697.378L935.993 717.68L932.915 723.203Z" fill="#36B37E"/>
<path d="M938.3 813.425C938.3 813.425 940.67 769.827 920.386 744.626L904.505 773.014C904.505 773.014 909.409 785.725 907.026 803.291C907.026 803.291 926.578 807.525 938.3 813.425Z" fill="#172B4D"/>
<path d="M922.056 830.369L929.041 835.759L960.541 833.297C960.541 833.297 951.892 820.758 938.3 813.425L922.855 820.464L922.056 830.369Z" fill="white" stroke="#36B37E" stroke-width="1.38636" stroke-miterlimit="10"/>
<path d="M891.514 806.057C891.514 806.057 883.884 808.083 881.91 813.103L919.023 838.74C919.023 838.74 921.888 829.512 923.065 827.207C924.359 824.833 926.551 820.481 926.551 820.481L916.155 804.519C916.27 804.45 903.808 799.153 891.514 806.057Z" fill="white" stroke="#36B37E" stroke-width="1.38636" stroke-miterlimit="10"/>
<path d="M1017.7 647.683C1017.7 647.683 1034.12 670.893 1039.7 699.491C1044.93 726.066 1040.96 728.607 1040.96 728.607L1056.22 699.638C1056.22 699.638 1059.97 687.316 1050.64 672.155C1041.3 656.995 1017.7 647.683 1017.7 647.683Z" fill="#36B37E"/>
<path d="M923.181 827.138C923.181 827.138 911.395 829.423 907.43 831.964C903.465 834.505 902.246 835.077 902.246 835.077L912.284 840.711L919.139 838.671L923.181 827.138Z" fill="white" stroke="#36B37E" stroke-width="1.38636" stroke-miterlimit="10"/>
<path d="M929.108 835.879L927.493 844.038L950.482 872.727C950.482 872.727 953.322 873.417 962.724 869.049L966.622 866.388L934.455 832.508C934.522 832.628 929.882 831.74 929.108 835.879Z" fill="white" stroke="#36B37E" stroke-width="1.38636" stroke-miterlimit="10"/>
<path d="M929.108 835.879C929.108 835.879 947.646 846.313 947.265 845.903C946.884 845.493 936.785 829.512 936.785 829.512C936.785 829.512 928.902 830.252 929.108 835.879Z" fill="white" stroke="#36B37E" stroke-width="1.38636" stroke-miterlimit="10"/>
</g>
<defs>
<clipPath id="clip0_34_2069">
<rect width="290.924" height="343.617" fill="white" transform="matrix(0.961993 -0.273075 0.253771 0.967264 1045.93 215.095)"/>
</clipPath>
<clipPath id="clip1_34_2069">
<rect width="131.684" height="155.09" fill="white" transform="matrix(-0.886228 0.472122 -0.440007 -0.893641 397.346 812.572)"/>
</clipPath>
<clipPath id="clip2_34_2069">
<rect width="52.4859" height="57.9979" fill="white" transform="matrix(0.125618 0.994694 -0.988042 0.135005 508.956 91.0186)"/>
</clipPath>
<clipPath id="clip3_34_2069">
<rect width="209.394" height="219.244" fill="white" transform="matrix(0.921134 0.389246 -0.363799 0.931478 79.7607 216.482)"/>
</clipPath>
<clipPath id="clip4_34_2069">
<rect width="214.072" height="145.591" fill="white" transform="matrix(-0.810828 -0.585285 0.554981 -0.831863 988.103 147.539)"/>
</clipPath>
<clipPath id="clip5_34_2069">
<rect width="122.057" height="95.2645" fill="white" transform="matrix(0.469173 0.883106 -0.866973 0.498354 562.29 595.7)"/>
</clipPath>
<clipPath id="clip6_34_2069">
<rect width="225.057" height="182.94" fill="white" transform="matrix(0.857287 -0.514839 0.485306 0.874344 829.878 736.517)"/>
</clipPath>
</defs>
</svg>
