<svg width="327" height="316" viewBox="0 0 327 316" fill="none" xmlns="http://www.w3.org/2000/svg">
<rect x="0.5" y="0.5" width="326" height="315" rx="7.5" fill="#EBF0EE" stroke="#C1C7D0"/>
<g clip-path="url(#clip0_48_1481)">
<path d="M144.11 160.344H147.152C147.093 157.395 144.578 155.307 140.863 155.307C137.198 155.307 134.445 157.369 134.453 160.455C134.453 162.96 136.235 164.401 139.107 165.142L141.093 165.653C142.976 166.131 144.221 166.719 144.229 168.074C144.221 169.565 142.806 170.562 140.743 170.562C138.766 170.562 137.232 169.676 137.104 167.844H133.993C134.121 171.312 136.703 173.264 140.769 173.264C144.953 173.264 147.382 171.176 147.391 168.099C147.382 165.074 144.885 163.693 142.26 163.071L140.624 162.662C139.192 162.321 137.641 161.716 137.658 160.259C137.667 158.946 138.843 157.983 140.82 157.983C142.703 157.983 143.948 158.861 144.11 160.344ZM150.074 173H153.159V168.602L154.284 167.401L158.289 173H161.98L156.61 165.56L161.681 159.909H158.076L153.372 165.168H153.159V155.545H150.074V173ZM163.738 173H166.823V159.909H163.738V173ZM165.289 158.051C166.269 158.051 167.07 157.301 167.07 156.381C167.07 155.452 166.269 154.702 165.289 154.702C164.3 154.702 163.499 155.452 163.499 156.381C163.499 157.301 164.3 158.051 165.289 158.051ZM173.081 155.545H169.995V173H173.081V155.545ZM179.338 155.545H176.253V173H179.338V155.545ZM192.858 163.369C192.431 161.153 190.659 159.739 187.591 159.739C184.437 159.739 182.289 161.29 182.298 163.71C182.289 165.619 183.466 166.881 185.98 167.401L188.213 167.869C189.414 168.134 189.977 168.619 189.977 169.361C189.977 170.256 189.005 170.929 187.539 170.929C186.125 170.929 185.204 170.315 184.94 169.139L181.931 169.429C182.315 171.832 184.335 173.256 187.548 173.256C190.821 173.256 193.13 171.56 193.139 169.08C193.13 167.213 191.929 166.071 189.457 165.534L187.224 165.057C185.895 164.759 185.366 164.298 185.375 163.54C185.366 162.653 186.346 162.04 187.633 162.04C189.056 162.04 189.806 162.815 190.045 163.676L192.858 163.369Z" fill="#344563"/>
<g clip-path="url(#clip1_48_1481)">
<g clip-path="url(#clip2_48_1481)">
<g clip-path="url(#clip3_48_1481)">
<rect x="17" y="204" width="165" height="40" rx="8" fill="white"/>
<path d="M32.8182 228H29.8608V219.273H32.8778C33.7443 219.273 34.4886 219.447 35.1108 219.797C35.7358 220.143 36.2159 220.642 36.5511 221.293C36.8864 221.943 37.054 222.722 37.054 223.628C37.054 224.537 36.8849 225.318 36.5469 225.972C36.2116 226.625 35.7273 227.126 35.0938 227.476C34.4631 227.825 33.7045 228 32.8182 228ZM31.4418 226.632H32.7415C33.3494 226.632 33.8565 226.521 34.2628 226.3C34.669 226.075 34.9744 225.741 35.179 225.298C35.3835 224.852 35.4858 224.295 35.4858 223.628C35.4858 222.96 35.3835 222.406 35.179 221.966C34.9744 221.523 34.6719 221.192 34.2713 220.973C33.8736 220.751 33.3793 220.641 32.7884 220.641H31.4418V226.632ZM40.7314 228.132C40.3167 228.132 39.9431 228.058 39.6107 227.911C39.2812 227.76 39.0198 227.538 38.8266 227.246C38.6363 226.953 38.5411 226.592 38.5411 226.163C38.5411 225.794 38.6093 225.489 38.7457 225.247C38.882 225.006 39.0681 224.812 39.3039 224.668C39.5397 224.523 39.8053 224.413 40.1008 224.339C40.3991 224.263 40.7073 224.207 41.0255 224.173C41.409 224.134 41.7201 224.098 41.9587 224.067C42.1974 224.033 42.3707 223.982 42.4786 223.913C42.5894 223.842 42.6448 223.733 42.6448 223.585V223.56C42.6448 223.239 42.5496 222.99 42.3593 222.814C42.1689 222.638 41.8948 222.55 41.5368 222.55C41.159 222.55 40.8593 222.632 40.6377 222.797C40.4189 222.962 40.2712 223.156 40.1945 223.381L38.7542 223.176C38.8678 222.778 39.0553 222.446 39.3167 222.179C39.578 221.909 39.8976 221.707 40.2755 221.574C40.6533 221.438 41.0709 221.369 41.5283 221.369C41.8437 221.369 42.1576 221.406 42.4701 221.48C42.7826 221.554 43.0681 221.676 43.3266 221.847C43.5851 222.014 43.7925 222.243 43.9488 222.533C44.1079 222.822 44.1874 223.185 44.1874 223.619V228H42.7045V227.101H42.6533C42.5596 227.283 42.4275 227.453 42.257 227.612C42.0894 227.768 41.8778 227.895 41.6221 227.991C41.3692 228.085 41.0724 228.132 40.7314 228.132ZM41.132 226.999C41.4417 226.999 41.7101 226.937 41.9374 226.815C42.1647 226.69 42.3394 226.526 42.4616 226.321C42.5866 226.116 42.6491 225.893 42.6491 225.652V224.881C42.6008 224.92 42.5184 224.957 42.4019 224.991C42.2883 225.026 42.1604 225.055 42.0184 225.081C41.8763 225.107 41.7357 225.129 41.5965 225.149C41.4573 225.169 41.3366 225.186 41.2343 225.2C41.0042 225.232 40.7982 225.283 40.6164 225.354C40.4346 225.425 40.2911 225.524 40.186 225.652C40.0809 225.777 40.0283 225.939 40.0283 226.138C40.0283 226.422 40.132 226.636 40.3394 226.781C40.5468 226.926 40.811 226.999 41.132 226.999ZM49.367 221.455V222.648H45.6042V221.455H49.367ZM46.5332 219.886H48.0758V226.031C48.0758 226.239 48.1071 226.398 48.1696 226.509C48.2349 226.616 48.3201 226.69 48.4253 226.73C48.5304 226.77 48.6468 226.79 48.7747 226.79C48.8713 226.79 48.9593 226.783 49.0389 226.768C49.1213 226.754 49.1838 226.741 49.2264 226.73L49.4863 227.936C49.4039 227.964 49.2861 227.996 49.1326 228.03C48.9821 228.064 48.7974 228.084 48.5787 228.089C48.1923 228.101 47.8443 228.043 47.5346 227.915C47.225 227.784 46.9792 227.582 46.7974 227.31C46.6184 227.037 46.5304 226.696 46.5332 226.287V219.886ZM52.9007 228.132C52.4859 228.132 52.1123 228.058 51.7799 227.911C51.4504 227.76 51.189 227.538 50.9958 227.246C50.8055 226.953 50.7103 226.592 50.7103 226.163C50.7103 225.794 50.7785 225.489 50.9149 225.247C51.0512 225.006 51.2373 224.812 51.4731 224.668C51.7089 224.523 51.9745 224.413 52.27 224.339C52.5683 224.263 52.8765 224.207 53.1947 224.173C53.5782 224.134 53.8893 224.098 54.1279 224.067C54.3666 224.033 54.5399 223.982 54.6478 223.913C54.7586 223.842 54.814 223.733 54.814 223.585V223.56C54.814 223.239 54.7188 222.99 54.5285 222.814C54.3382 222.638 54.064 222.55 53.7061 222.55C53.3282 222.55 53.0285 222.632 52.8069 222.797C52.5882 222.962 52.4404 223.156 52.3637 223.381L50.9234 223.176C51.037 222.778 51.2245 222.446 51.4859 222.179C51.7473 221.909 52.0669 221.707 52.4447 221.574C52.8225 221.438 53.2402 221.369 53.6975 221.369C54.0129 221.369 54.3268 221.406 54.6393 221.48C54.9518 221.554 55.2373 221.676 55.4958 221.847C55.7544 222.014 55.9617 222.243 56.118 222.533C56.2771 222.822 56.3566 223.185 56.3566 223.619V228H54.8737V227.101H54.8225C54.7288 227.283 54.5967 227.453 54.4262 227.612C54.2586 227.768 54.047 227.895 53.7913 227.991C53.5385 228.085 53.2416 228.132 52.9007 228.132ZM53.3012 226.999C53.6109 226.999 53.8794 226.937 54.1066 226.815C54.3339 226.69 54.5086 226.526 54.6308 226.321C54.7558 226.116 54.8183 225.893 54.8183 225.652V224.881C54.77 224.92 54.6876 224.957 54.5711 224.991C54.4575 225.026 54.3296 225.055 54.1876 225.081C54.0456 225.107 53.9049 225.129 53.7657 225.149C53.6265 225.169 53.5058 225.186 53.4035 225.2C53.1734 225.232 52.9674 225.283 52.7856 225.354C52.6038 225.425 52.4603 225.524 52.3552 225.652C52.2501 225.777 52.1975 225.939 52.1975 226.138C52.1975 226.422 52.3012 226.636 52.5086 226.781C52.716 226.926 52.9802 226.999 53.3012 226.999ZM58.336 228V219.273H59.8786V222.537H59.9425C60.022 222.378 60.1342 222.209 60.2791 222.03C60.424 221.848 60.62 221.693 60.8672 221.565C61.1144 221.435 61.4297 221.369 61.8132 221.369C62.3189 221.369 62.7749 221.499 63.1811 221.757C63.5902 222.013 63.9141 222.392 64.1527 222.895C64.3942 223.395 64.5149 224.009 64.5149 224.736C64.5149 225.455 64.397 226.065 64.1612 226.568C63.9254 227.071 63.6044 227.455 63.1982 227.719C62.7919 227.983 62.3317 228.115 61.8175 228.115C61.4425 228.115 61.1314 228.053 60.8842 227.928C60.6371 227.803 60.4382 227.652 60.2877 227.476C60.1399 227.297 60.0249 227.128 59.9425 226.969H59.853V228H58.336ZM59.8487 224.727C59.8487 225.151 59.9084 225.521 60.0277 225.839C60.1499 226.158 60.3246 226.406 60.5519 226.585C60.782 226.761 61.0604 226.849 61.3871 226.849C61.728 226.849 62.0135 226.759 62.2436 226.577C62.4737 226.392 62.647 226.141 62.7635 225.822C62.8828 225.501 62.9425 225.136 62.9425 224.727C62.9425 224.321 62.8842 223.96 62.7678 223.645C62.6513 223.33 62.478 223.082 62.2479 222.903C62.0178 222.724 61.7308 222.635 61.3871 222.635C61.0575 222.635 60.7777 222.722 60.5476 222.895C60.3175 223.068 60.1428 223.311 60.0235 223.624C59.907 223.936 59.8487 224.304 59.8487 224.727ZM68.0699 228.132C67.6551 228.132 67.2815 228.058 66.9491 227.911C66.6196 227.76 66.3582 227.538 66.1651 227.246C65.9747 226.953 65.8795 226.592 65.8795 226.163C65.8795 225.794 65.9477 225.489 66.0841 225.247C66.2205 225.006 66.4065 224.812 66.6423 224.668C66.8781 224.523 67.1437 224.413 67.4392 224.339C67.7375 224.263 68.0457 224.207 68.3639 224.173C68.7474 224.134 69.0585 224.098 69.2972 224.067C69.5358 224.033 69.7091 223.982 69.817 223.913C69.9278 223.842 69.9832 223.733 69.9832 223.585V223.56C69.9832 223.239 69.8881 222.99 69.6977 222.814C69.5074 222.638 69.2332 222.55 68.8753 222.55C68.4974 222.55 68.1977 222.632 67.9761 222.797C67.7574 222.962 67.6097 223.156 67.533 223.381L66.0926 223.176C66.2062 222.778 66.3937 222.446 66.6551 222.179C66.9165 221.909 67.2361 221.707 67.6139 221.574C67.9918 221.438 68.4094 221.369 68.8668 221.369C69.1821 221.369 69.496 221.406 69.8085 221.48C70.121 221.554 70.4065 221.676 70.6651 221.847C70.9236 222.014 71.131 222.243 71.2872 222.533C71.4463 222.822 71.5259 223.185 71.5259 223.619V228H70.0429V227.101H69.9918C69.898 227.283 69.7659 227.453 69.5955 227.612C69.4278 227.768 69.2162 227.895 68.9605 227.991C68.7077 228.085 68.4108 228.132 68.0699 228.132ZM68.4705 226.999C68.7801 226.999 69.0486 226.937 69.2759 226.815C69.5031 226.69 69.6778 226.526 69.8 226.321C69.925 226.116 69.9875 225.893 69.9875 225.652V224.881C69.9392 224.92 69.8568 224.957 69.7403 224.991C69.6267 225.026 69.4989 225.055 69.3568 225.081C69.2148 225.107 69.0741 225.129 68.9349 225.149C68.7957 225.169 68.675 225.186 68.5727 225.2C68.3426 225.232 68.1366 225.283 67.9548 225.354C67.773 225.425 67.6295 225.524 67.5244 225.652C67.4193 225.777 67.3668 225.939 67.3668 226.138C67.3668 226.422 67.4705 226.636 67.6778 226.781C67.8852 226.926 68.1494 226.999 68.4705 226.999ZM78.6103 223.185L77.204 223.338C77.1643 223.196 77.0947 223.062 76.9952 222.938C76.8986 222.812 76.768 222.712 76.6032 222.635C76.4384 222.558 76.2367 222.52 75.9981 222.52C75.677 222.52 75.4072 222.589 75.1884 222.729C74.9725 222.868 74.866 223.048 74.8688 223.27C74.866 223.46 74.9356 223.615 75.0776 223.734C75.2225 223.854 75.4611 223.952 75.7935 224.028L76.91 224.267C77.5293 224.401 77.9895 224.612 78.2907 224.902C78.5947 225.192 78.7481 225.571 78.7509 226.04C78.7481 226.452 78.6273 226.815 78.3887 227.131C78.1529 227.443 77.8248 227.687 77.4043 227.864C76.9839 228.04 76.5009 228.128 75.9555 228.128C75.1543 228.128 74.5094 227.96 74.0208 227.625C73.5322 227.287 73.241 226.817 73.1472 226.214L74.6515 226.07C74.7197 226.365 74.8645 226.588 75.0861 226.739C75.3077 226.889 75.5961 226.964 75.9512 226.964C76.3177 226.964 76.6117 226.889 76.8333 226.739C77.0577 226.588 77.1699 226.402 77.1699 226.18C77.1699 225.993 77.0975 225.838 76.9526 225.716C76.8106 225.594 76.589 225.5 76.2878 225.435L75.1714 225.2C74.5435 225.07 74.079 224.849 73.7779 224.54C73.4768 224.227 73.3276 223.832 73.3305 223.355C73.3276 222.952 73.437 222.602 73.6586 222.307C73.883 222.009 74.1941 221.778 74.5918 221.616C74.9924 221.452 75.454 221.369 75.9768 221.369C76.7438 221.369 77.3475 221.533 77.7878 221.859C78.231 222.186 78.5052 222.628 78.6103 223.185ZM83.2807 228.128C82.6244 228.128 82.0576 227.991 81.5804 227.719C81.1059 227.443 80.7409 227.054 80.4852 226.551C80.2295 226.045 80.1017 225.45 80.1017 224.766C80.1017 224.092 80.2295 223.501 80.4852 222.993C80.7437 222.482 81.1045 222.084 81.5676 221.8C82.0307 221.513 82.5747 221.369 83.1997 221.369C83.6031 221.369 83.9838 221.435 84.3417 221.565C84.7025 221.693 85.0207 221.892 85.2963 222.162C85.5747 222.432 85.7934 222.776 85.9525 223.193C86.1116 223.608 86.1912 224.102 86.1912 224.676V225.149H80.8261V224.109H84.7125C84.7096 223.814 84.6457 223.551 84.5207 223.321C84.3957 223.088 84.221 222.905 83.9966 222.771C83.775 222.638 83.5164 222.571 83.221 222.571C82.9057 222.571 82.6287 222.648 82.39 222.801C82.1514 222.952 81.9653 223.151 81.8318 223.398C81.7011 223.642 81.6343 223.911 81.6315 224.203V225.111C81.6315 225.491 81.7011 225.818 81.8403 226.091C81.9795 226.361 82.1741 226.568 82.4241 226.713C82.6741 226.855 82.9667 226.926 83.302 226.926C83.5264 226.926 83.7295 226.895 83.9113 226.832C84.0932 226.767 84.2508 226.672 84.3843 226.547C84.5179 226.422 84.6187 226.267 84.6869 226.082L86.1272 226.244C86.0363 226.625 85.863 226.957 85.6074 227.241C85.3545 227.523 85.0307 227.741 84.6358 227.898C84.2409 228.051 83.7892 228.128 83.2807 228.128ZM91.261 219.273H93.1956L95.7865 225.597H95.8888L98.4797 219.273H100.414V228H98.8973V222.004H98.8164L96.4044 227.974H95.2709L92.859 221.991H92.778V228H91.261V219.273ZM104.311 228.132C103.897 228.132 103.523 228.058 103.191 227.911C102.861 227.76 102.6 227.538 102.406 227.246C102.216 226.953 102.121 226.592 102.121 226.163C102.121 225.794 102.189 225.489 102.325 225.247C102.462 225.006 102.648 224.812 102.884 224.668C103.12 224.523 103.385 224.413 103.681 224.339C103.979 224.263 104.287 224.207 104.605 224.173C104.989 224.134 105.3 224.098 105.539 224.067C105.777 224.033 105.95 223.982 106.058 223.913C106.169 223.842 106.225 223.733 106.225 223.585V223.56C106.225 223.239 106.129 222.99 105.939 222.814C105.749 222.638 105.475 222.55 105.117 222.55C104.739 222.55 104.439 222.632 104.218 222.797C103.999 222.962 103.851 223.156 103.774 223.381L102.334 223.176C102.448 222.778 102.635 222.446 102.897 222.179C103.158 221.909 103.477 221.707 103.855 221.574C104.233 221.438 104.651 221.369 105.108 221.369C105.424 221.369 105.737 221.406 106.05 221.48C106.362 221.554 106.648 221.676 106.906 221.847C107.165 222.014 107.372 222.243 107.529 222.533C107.688 222.822 107.767 223.185 107.767 223.619V228H106.284V227.101H106.233C106.139 227.283 106.007 227.453 105.837 227.612C105.669 227.768 105.458 227.895 105.202 227.991C104.949 228.085 104.652 228.132 104.311 228.132ZM104.712 226.999C105.022 226.999 105.29 226.937 105.517 226.815C105.745 226.69 105.919 226.526 106.041 226.321C106.166 226.116 106.229 225.893 106.229 225.652V224.881C106.181 224.92 106.098 224.957 105.982 224.991C105.868 225.026 105.74 225.055 105.598 225.081C105.456 225.107 105.316 225.129 105.176 225.149C105.037 225.169 104.916 225.186 104.814 225.2C104.584 225.232 104.378 225.283 104.196 225.354C104.014 225.425 103.871 225.524 103.766 225.652C103.661 225.777 103.608 225.939 103.608 226.138C103.608 226.422 103.712 226.636 103.919 226.781C104.127 226.926 104.391 226.999 104.712 226.999ZM111.221 224.165V228H109.678V221.455H111.153V222.567H111.23C111.38 222.2 111.62 221.909 111.95 221.693C112.282 221.477 112.693 221.369 113.181 221.369C113.633 221.369 114.026 221.466 114.362 221.659C114.7 221.852 114.961 222.132 115.146 222.499C115.333 222.865 115.426 223.31 115.423 223.832V228H113.88V224.071C113.88 223.634 113.766 223.291 113.539 223.044C113.315 222.797 113.004 222.673 112.606 222.673C112.336 222.673 112.096 222.733 111.886 222.852C111.678 222.969 111.515 223.138 111.396 223.359C111.279 223.581 111.221 223.849 111.221 224.165ZM119.234 228.132C118.82 228.132 118.446 228.058 118.114 227.911C117.784 227.76 117.523 227.538 117.33 227.246C117.139 226.953 117.044 226.592 117.044 226.163C117.044 225.794 117.112 225.489 117.249 225.247C117.385 225.006 117.571 224.812 117.807 224.668C118.043 224.523 118.308 224.413 118.604 224.339C118.902 224.263 119.21 224.207 119.528 224.173C119.912 224.134 120.223 224.098 120.462 224.067C120.7 224.033 120.874 223.982 120.982 223.913C121.092 223.842 121.148 223.733 121.148 223.585V223.56C121.148 223.239 121.053 222.99 120.862 222.814C120.672 222.638 120.398 222.55 120.04 222.55C119.662 222.55 119.362 222.632 119.141 222.797C118.922 222.962 118.774 223.156 118.697 223.381L117.257 223.176C117.371 222.778 117.558 222.446 117.82 222.179C118.081 221.909 118.401 221.707 118.778 221.574C119.156 221.438 119.574 221.369 120.031 221.369C120.347 221.369 120.661 221.406 120.973 221.48C121.286 221.554 121.571 221.676 121.83 221.847C122.088 222.014 122.295 222.243 122.452 222.533C122.611 222.822 122.69 223.185 122.69 223.619V228H121.207V227.101H121.156C121.063 227.283 120.93 227.453 120.76 227.612C120.592 227.768 120.381 227.895 120.125 227.991C119.872 228.085 119.575 228.132 119.234 228.132ZM119.635 226.999C119.945 226.999 120.213 226.937 120.44 226.815C120.668 226.69 120.842 226.526 120.965 226.321C121.09 226.116 121.152 225.893 121.152 225.652V224.881C121.104 224.92 121.021 224.957 120.905 224.991C120.791 225.026 120.663 225.055 120.521 225.081C120.379 225.107 120.239 225.129 120.099 225.149C119.96 225.169 119.84 225.186 119.737 225.2C119.507 225.232 119.301 225.283 119.119 225.354C118.938 225.425 118.794 225.524 118.689 225.652C118.584 225.777 118.531 225.939 118.531 226.138C118.531 226.422 118.635 226.636 118.842 226.781C119.05 226.926 119.314 226.999 119.635 226.999ZM127.448 230.591C126.894 230.591 126.418 230.516 126.021 230.365C125.623 230.217 125.303 230.018 125.062 229.768C124.82 229.518 124.653 229.241 124.559 228.938L125.948 228.601C126.011 228.729 126.102 228.855 126.221 228.98C126.34 229.108 126.501 229.213 126.702 229.295C126.907 229.381 127.164 229.423 127.474 229.423C127.911 229.423 128.273 229.317 128.56 229.104C128.847 228.893 128.991 228.547 128.991 228.064V226.824H128.914C128.834 226.983 128.718 227.146 128.565 227.314C128.414 227.482 128.214 227.622 127.964 227.736C127.717 227.849 127.405 227.906 127.03 227.906C126.528 227.906 126.072 227.788 125.663 227.553C125.256 227.314 124.932 226.959 124.691 226.487C124.452 226.013 124.333 225.419 124.333 224.706C124.333 223.987 124.452 223.381 124.691 222.886C124.932 222.389 125.258 222.013 125.667 221.757C126.076 221.499 126.532 221.369 127.035 221.369C127.418 221.369 127.734 221.435 127.981 221.565C128.231 221.693 128.43 221.848 128.577 222.03C128.725 222.209 128.837 222.378 128.914 222.537H128.999V221.455H130.521V228.107C130.521 228.666 130.387 229.129 130.12 229.496C129.853 229.862 129.488 230.136 129.025 230.318C128.562 230.5 128.036 230.591 127.448 230.591ZM127.461 226.696C127.788 226.696 128.066 226.616 128.296 226.457C128.526 226.298 128.701 226.07 128.82 225.771C128.94 225.473 128.999 225.115 128.999 224.697C128.999 224.286 128.94 223.925 128.82 223.615C128.704 223.305 128.53 223.065 128.3 222.895C128.073 222.722 127.793 222.635 127.461 222.635C127.117 222.635 126.83 222.724 126.6 222.903C126.37 223.082 126.197 223.328 126.08 223.641C125.964 223.95 125.905 224.303 125.905 224.697C125.905 225.098 125.964 225.449 126.08 225.75C126.2 226.048 126.374 226.281 126.604 226.449C126.837 226.614 127.123 226.696 127.461 226.696ZM135.359 228.128C134.703 228.128 134.136 227.991 133.659 227.719C133.185 227.443 132.819 227.054 132.564 226.551C132.308 226.045 132.18 225.45 132.18 224.766C132.18 224.092 132.308 223.501 132.564 222.993C132.822 222.482 133.183 222.084 133.646 221.8C134.109 221.513 134.653 221.369 135.278 221.369C135.682 221.369 136.062 221.435 136.42 221.565C136.781 221.693 137.099 221.892 137.375 222.162C137.653 222.432 137.872 222.776 138.031 223.193C138.19 223.608 138.27 224.102 138.27 224.676V225.149H132.905V224.109H136.791C136.788 223.814 136.724 223.551 136.599 223.321C136.474 223.088 136.3 222.905 136.075 222.771C135.854 222.638 135.595 222.571 135.3 222.571C134.984 222.571 134.707 222.648 134.469 222.801C134.23 222.952 134.044 223.151 133.91 223.398C133.78 223.642 133.713 223.911 133.71 224.203V225.111C133.71 225.491 133.78 225.818 133.919 226.091C134.058 226.361 134.253 226.568 134.503 226.713C134.753 226.855 135.045 226.926 135.381 226.926C135.605 226.926 135.808 226.895 135.99 226.832C136.172 226.767 136.329 226.672 136.463 226.547C136.596 226.422 136.697 226.267 136.765 226.082L138.206 226.244C138.115 226.625 137.942 226.957 137.686 227.241C137.433 227.523 137.109 227.741 136.714 227.898C136.319 228.051 135.868 228.128 135.359 228.128ZM139.935 228V221.455H141.409V222.567H141.486C141.622 222.192 141.848 221.899 142.163 221.689C142.479 221.476 142.855 221.369 143.293 221.369C143.736 221.369 144.11 221.477 144.413 221.693C144.72 221.906 144.936 222.197 145.061 222.567H145.129C145.274 222.203 145.519 221.913 145.862 221.697C146.209 221.479 146.619 221.369 147.094 221.369C147.696 221.369 148.188 221.56 148.568 221.94C148.949 222.321 149.139 222.876 149.139 223.607V228H147.592V223.845C147.592 223.439 147.485 223.142 147.269 222.955C147.053 222.764 146.788 222.669 146.476 222.669C146.104 222.669 145.813 222.786 145.602 223.018C145.395 223.249 145.291 223.548 145.291 223.918V228H143.779V223.781C143.779 223.443 143.676 223.173 143.472 222.972C143.27 222.77 143.006 222.669 142.679 222.669C142.458 222.669 142.256 222.726 142.074 222.839C141.892 222.95 141.747 223.108 141.639 223.312C141.531 223.514 141.477 223.75 141.477 224.02V228H139.935ZM153.962 228.128C153.306 228.128 152.739 227.991 152.262 227.719C151.787 227.443 151.422 227.054 151.167 226.551C150.911 226.045 150.783 225.45 150.783 224.766C150.783 224.092 150.911 223.501 151.167 222.993C151.425 222.482 151.786 222.084 152.249 221.8C152.712 221.513 153.256 221.369 153.881 221.369C154.285 221.369 154.665 221.435 155.023 221.565C155.384 221.693 155.702 221.892 155.978 222.162C156.256 222.432 156.475 222.776 156.634 223.193C156.793 223.608 156.873 224.102 156.873 224.676V225.149H151.508V224.109H155.394C155.391 223.814 155.327 223.551 155.202 223.321C155.077 223.088 154.902 222.905 154.678 222.771C154.456 222.638 154.198 222.571 153.902 222.571C153.587 222.571 153.31 222.648 153.071 222.801C152.833 222.952 152.647 223.151 152.513 223.398C152.383 223.642 152.316 223.911 152.313 224.203V225.111C152.313 225.491 152.383 225.818 152.522 226.091C152.661 226.361 152.856 226.568 153.106 226.713C153.356 226.855 153.648 226.926 153.983 226.926C154.208 226.926 154.411 226.895 154.593 226.832C154.775 226.767 154.932 226.672 155.066 226.547C155.199 226.422 155.3 226.267 155.368 226.082L156.809 226.244C156.718 226.625 156.544 226.957 156.289 227.241C156.036 227.523 155.712 227.741 155.317 227.898C154.922 228.051 154.471 228.128 153.962 228.128ZM160.08 224.165V228H158.538V221.455H160.012V222.567H160.089C160.239 222.2 160.479 221.909 160.809 221.693C161.141 221.477 161.552 221.369 162.04 221.369C162.492 221.369 162.886 221.466 163.221 221.659C163.559 221.852 163.82 222.132 164.005 222.499C164.192 222.865 164.285 223.31 164.282 223.832V228H162.739V224.071C162.739 223.634 162.626 223.291 162.398 223.044C162.174 222.797 161.863 222.673 161.465 222.673C161.195 222.673 160.955 222.733 160.745 222.852C160.538 222.969 160.374 223.138 160.255 223.359C160.138 223.581 160.08 223.849 160.08 224.165ZM169.479 221.455V222.648H165.716V221.455H169.479ZM166.645 219.886H168.187V226.031C168.187 226.239 168.219 226.398 168.281 226.509C168.346 226.616 168.432 226.69 168.537 226.73C168.642 226.77 168.758 226.79 168.886 226.79C168.983 226.79 169.071 226.783 169.15 226.768C169.233 226.754 169.295 226.741 169.338 226.73L169.598 227.936C169.516 227.964 169.398 227.996 169.244 228.03C169.094 228.064 168.909 228.084 168.69 228.089C168.304 228.101 167.956 228.043 167.646 227.915C167.337 227.784 167.091 227.582 166.909 227.31C166.73 227.037 166.642 226.696 166.645 226.287V219.886Z" fill="#36B37E"/>
<rect x="190" y="204" width="120" height="40" rx="8" fill="white"/>
<path d="M204.028 219.273L206.3 226.142H206.389L208.656 219.273H210.395L207.318 228H205.366L202.294 219.273H204.028ZM214.031 228.128C213.375 228.128 212.808 227.991 212.331 227.719C211.856 227.443 211.491 227.054 211.235 226.551C210.98 226.045 210.852 225.45 210.852 224.766C210.852 224.092 210.98 223.501 211.235 222.993C211.494 222.482 211.855 222.084 212.318 221.8C212.781 221.513 213.325 221.369 213.95 221.369C214.353 221.369 214.734 221.435 215.092 221.565C215.453 221.693 215.771 221.892 216.046 222.162C216.325 222.432 216.544 222.776 216.703 223.193C216.862 223.608 216.941 224.102 216.941 224.676V225.149H211.576V224.109H215.463C215.46 223.814 215.396 223.551 215.271 223.321C215.146 223.088 214.971 222.905 214.747 222.771C214.525 222.638 214.267 222.571 213.971 222.571C213.656 222.571 213.379 222.648 213.14 222.801C212.902 222.952 212.715 223.151 212.582 223.398C212.451 223.642 212.385 223.911 212.382 224.203V225.111C212.382 225.491 212.451 225.818 212.59 226.091C212.73 226.361 212.924 226.568 213.174 226.713C213.424 226.855 213.717 226.926 214.052 226.926C214.277 226.926 214.48 226.895 214.661 226.832C214.843 226.767 215.001 226.672 215.135 226.547C215.268 226.422 215.369 226.267 215.437 226.082L216.877 226.244C216.786 226.625 216.613 226.957 216.358 227.241C216.105 227.523 215.781 227.741 215.386 227.898C214.991 228.051 214.539 228.128 214.031 228.128ZM218.606 228V221.455H220.102V222.545H220.17C220.29 222.168 220.494 221.876 220.784 221.672C221.077 221.464 221.41 221.361 221.785 221.361C221.871 221.361 221.966 221.365 222.071 221.374C222.179 221.379 222.268 221.389 222.339 221.403V222.822C222.274 222.8 222.17 222.78 222.028 222.763C221.889 222.743 221.754 222.733 221.623 222.733C221.342 222.733 221.089 222.794 220.865 222.916C220.643 223.036 220.469 223.202 220.341 223.415C220.213 223.628 220.149 223.874 220.149 224.152V228H218.606ZM228.897 223.185L227.491 223.338C227.451 223.196 227.382 223.062 227.282 222.938C227.186 222.812 227.055 222.712 226.89 222.635C226.726 222.558 226.524 222.52 226.285 222.52C225.964 222.52 225.694 222.589 225.476 222.729C225.26 222.868 225.153 223.048 225.156 223.27C225.153 223.46 225.223 223.615 225.365 223.734C225.51 223.854 225.748 223.952 226.081 224.028L227.197 224.267C227.817 224.401 228.277 224.612 228.578 224.902C228.882 225.192 229.035 225.571 229.038 226.04C229.035 226.452 228.915 226.815 228.676 227.131C228.44 227.443 228.112 227.687 227.692 227.864C227.271 228.04 226.788 228.128 226.243 228.128C225.442 228.128 224.797 227.96 224.308 227.625C223.819 227.287 223.528 226.817 223.434 226.214L224.939 226.07C225.007 226.365 225.152 226.588 225.373 226.739C225.595 226.889 225.883 226.964 226.238 226.964C226.605 226.964 226.899 226.889 227.12 226.739C227.345 226.588 227.457 226.402 227.457 226.18C227.457 225.993 227.385 225.838 227.24 225.716C227.098 225.594 226.876 225.5 226.575 225.435L225.459 225.2C224.831 225.07 224.366 224.849 224.065 224.54C223.764 224.227 223.615 223.832 223.618 223.355C223.615 222.952 223.724 222.602 223.946 222.307C224.17 222.009 224.481 221.778 224.879 221.616C225.28 221.452 225.741 221.369 226.264 221.369C227.031 221.369 227.635 221.533 228.075 221.859C228.518 222.186 228.792 222.628 228.897 223.185ZM230.67 228V221.455H232.213V228H230.67ZM231.446 220.526C231.201 220.526 230.991 220.445 230.815 220.283C230.639 220.118 230.551 219.92 230.551 219.69C230.551 219.457 230.639 219.26 230.815 219.098C230.991 218.933 231.201 218.851 231.446 218.851C231.693 218.851 231.903 218.933 232.076 219.098C232.253 219.26 232.341 219.457 232.341 219.69C232.341 219.92 232.253 220.118 232.076 220.283C231.903 220.445 231.693 220.526 231.446 220.526ZM237.014 228.128C236.375 228.128 235.821 227.987 235.352 227.706C234.883 227.425 234.52 227.031 234.261 226.526C234.006 226.02 233.878 225.429 233.878 224.753C233.878 224.077 234.006 223.484 234.261 222.976C234.52 222.467 234.883 222.072 235.352 221.791C235.821 221.51 236.375 221.369 237.014 221.369C237.653 221.369 238.207 221.51 238.676 221.791C239.145 222.072 239.507 222.467 239.763 222.976C240.021 223.484 240.15 224.077 240.15 224.753C240.15 225.429 240.021 226.02 239.763 226.526C239.507 227.031 239.145 227.425 238.676 227.706C238.207 227.987 237.653 228.128 237.014 228.128ZM237.023 226.892C237.369 226.892 237.659 226.797 237.892 226.607C238.125 226.413 238.298 226.155 238.412 225.831C238.528 225.507 238.587 225.146 238.587 224.749C238.587 224.348 238.528 223.986 238.412 223.662C238.298 223.335 238.125 223.075 237.892 222.882C237.659 222.689 237.369 222.592 237.023 222.592C236.668 222.592 236.372 222.689 236.136 222.882C235.903 223.075 235.729 223.335 235.612 223.662C235.499 223.986 235.442 224.348 235.442 224.749C235.442 225.146 235.499 225.507 235.612 225.831C235.729 226.155 235.903 226.413 236.136 226.607C236.372 226.797 236.668 226.892 237.023 226.892ZM243.362 224.165V228H241.82V221.455H243.294V222.567H243.371C243.522 222.2 243.762 221.909 244.091 221.693C244.423 221.477 244.834 221.369 245.323 221.369C245.774 221.369 246.168 221.466 246.503 221.659C246.841 221.852 247.102 222.132 247.287 222.499C247.475 222.865 247.567 223.31 247.564 223.832V228H246.022V224.071C246.022 223.634 245.908 223.291 245.681 223.044C245.456 222.797 245.145 222.673 244.747 222.673C244.477 222.673 244.237 222.733 244.027 222.852C243.82 222.969 243.656 223.138 243.537 223.359C243.421 223.581 243.362 223.849 243.362 224.165ZM260.367 222.217H258.773C258.728 221.956 258.644 221.724 258.522 221.523C258.4 221.318 258.248 221.145 258.066 221.003C257.884 220.861 257.677 220.754 257.444 220.683C257.214 220.609 256.965 220.572 256.698 220.572C256.224 220.572 255.803 220.692 255.437 220.93C255.07 221.166 254.783 221.513 254.576 221.97C254.369 222.425 254.265 222.98 254.265 223.636C254.265 224.304 254.369 224.866 254.576 225.324C254.786 225.778 255.073 226.122 255.437 226.355C255.803 226.585 256.222 226.7 256.694 226.7C256.955 226.7 257.2 226.666 257.427 226.598C257.657 226.527 257.863 226.423 258.045 226.287C258.229 226.151 258.384 225.983 258.509 225.784C258.637 225.585 258.725 225.358 258.773 225.102L260.367 225.111C260.308 225.526 260.178 225.915 259.979 226.278C259.783 226.642 259.526 226.963 259.208 227.241C258.89 227.517 258.518 227.733 258.092 227.889C257.666 228.043 257.193 228.119 256.673 228.119C255.906 228.119 255.221 227.942 254.619 227.587C254.016 227.232 253.542 226.719 253.195 226.048C252.849 225.378 252.675 224.574 252.675 223.636C252.675 222.696 252.85 221.892 253.2 221.224C253.549 220.554 254.025 220.041 254.627 219.686C255.229 219.331 255.911 219.153 256.673 219.153C257.158 219.153 257.61 219.222 258.028 219.358C258.445 219.494 258.818 219.695 259.144 219.959C259.471 220.22 259.739 220.541 259.95 220.922C260.163 221.3 260.302 221.732 260.367 222.217ZM264.962 228.128C264.323 228.128 263.769 227.987 263.3 227.706C262.831 227.425 262.468 227.031 262.209 226.526C261.953 226.02 261.826 225.429 261.826 224.753C261.826 224.077 261.953 223.484 262.209 222.976C262.468 222.467 262.831 222.072 263.3 221.791C263.769 221.51 264.323 221.369 264.962 221.369C265.601 221.369 266.155 221.51 266.624 221.791C267.093 222.072 267.455 222.467 267.711 222.976C267.969 223.484 268.098 224.077 268.098 224.753C268.098 225.429 267.969 226.02 267.711 226.526C267.455 227.031 267.093 227.425 266.624 227.706C266.155 227.987 265.601 228.128 264.962 228.128ZM264.97 226.892C265.317 226.892 265.607 226.797 265.84 226.607C266.073 226.413 266.246 226.155 266.36 225.831C266.476 225.507 266.534 225.146 266.534 224.749C266.534 224.348 266.476 223.986 266.36 223.662C266.246 223.335 266.073 223.075 265.84 222.882C265.607 222.689 265.317 222.592 264.97 222.592C264.615 222.592 264.32 222.689 264.084 222.882C263.851 223.075 263.676 223.335 263.56 223.662C263.446 223.986 263.39 224.348 263.39 224.749C263.39 225.146 263.446 225.507 263.56 225.831C263.676 226.155 263.851 226.413 264.084 226.607C264.32 226.797 264.615 226.892 264.97 226.892ZM271.31 224.165V228H269.768V221.455H271.242V222.567H271.319C271.469 222.2 271.709 221.909 272.039 221.693C272.371 221.477 272.782 221.369 273.27 221.369C273.722 221.369 274.116 221.466 274.451 221.659C274.789 221.852 275.05 222.132 275.235 222.499C275.422 222.865 275.515 223.31 275.512 223.832V228H273.969V224.071C273.969 223.634 273.856 223.291 273.628 223.044C273.404 222.797 273.093 222.673 272.695 222.673C272.425 222.673 272.185 222.733 271.975 222.852C271.768 222.969 271.604 223.138 271.485 223.359C271.368 223.581 271.31 223.849 271.31 224.165ZM280.709 221.455V222.648H276.946V221.455H280.709ZM277.875 219.886H279.417V226.031C279.417 226.239 279.449 226.398 279.511 226.509C279.576 226.616 279.662 226.69 279.767 226.73C279.872 226.77 279.988 226.79 280.116 226.79C280.213 226.79 280.301 226.783 280.38 226.768C280.463 226.754 280.525 226.741 280.568 226.73L280.828 227.936C280.746 227.964 280.628 227.996 280.474 228.03C280.324 228.064 280.139 228.084 279.92 228.089C279.534 228.101 279.186 228.043 278.876 227.915C278.567 227.784 278.321 227.582 278.139 227.31C277.96 227.037 277.872 226.696 277.875 226.287V219.886ZM282.359 228V221.455H283.854V222.545H283.923C284.042 222.168 284.246 221.876 284.536 221.672C284.829 221.464 285.163 221.361 285.538 221.361C285.623 221.361 285.718 221.365 285.823 221.374C285.931 221.379 286.021 221.389 286.092 221.403V222.822C286.026 222.8 285.923 222.78 285.781 222.763C285.641 222.743 285.506 222.733 285.376 222.733C285.095 222.733 284.842 222.794 284.617 222.916C284.396 223.036 284.221 223.202 284.093 223.415C283.965 223.628 283.901 223.874 283.901 224.152V228H282.359ZM290.062 228.128C289.423 228.128 288.869 227.987 288.4 227.706C287.931 227.425 287.568 227.031 287.309 226.526C287.054 226.02 286.926 225.429 286.926 224.753C286.926 224.077 287.054 223.484 287.309 222.976C287.568 222.467 287.931 222.072 288.4 221.791C288.869 221.51 289.423 221.369 290.062 221.369C290.701 221.369 291.255 221.51 291.724 221.791C292.193 222.072 292.555 222.467 292.811 222.976C293.069 223.484 293.198 224.077 293.198 224.753C293.198 225.429 293.069 226.02 292.811 226.526C292.555 227.031 292.193 227.425 291.724 227.706C291.255 227.987 290.701 228.128 290.062 228.128ZM290.071 226.892C290.417 226.892 290.707 226.797 290.94 226.607C291.173 226.413 291.346 226.155 291.46 225.831C291.576 225.507 291.635 225.146 291.635 224.749C291.635 224.348 291.576 223.986 291.46 223.662C291.346 223.335 291.173 223.075 290.94 222.882C290.707 222.689 290.417 222.592 290.071 222.592C289.716 222.592 289.42 222.689 289.184 222.882C288.951 223.075 288.777 223.335 288.66 223.662C288.546 223.986 288.49 224.348 288.49 224.749C288.49 225.146 288.546 225.507 288.66 225.831C288.777 226.155 288.951 226.413 289.184 226.607C289.42 226.797 289.716 226.892 290.071 226.892ZM296.41 219.273V228H294.868V219.273H296.41Z" fill="#36B37E"/>
</g>
<g clip-path="url(#clip4_48_1481)">
<rect x="20" y="252" width="44" height="40" rx="8" fill="white"/>
<path d="M40.331 270.217H38.7372C38.6918 269.956 38.608 269.724 38.4858 269.523C38.3636 269.318 38.2116 269.145 38.0298 269.003C37.848 268.861 37.6406 268.754 37.4077 268.683C37.1776 268.609 36.929 268.572 36.6619 268.572C36.1875 268.572 35.767 268.692 35.4006 268.93C35.0341 269.166 34.7472 269.513 34.5398 269.97C34.3324 270.425 34.2287 270.98 34.2287 271.636C34.2287 272.304 34.3324 272.866 34.5398 273.324C34.75 273.778 35.0369 274.122 35.4006 274.355C35.767 274.585 36.1861 274.7 36.6577 274.7C36.919 274.7 37.1634 274.666 37.3906 274.598C37.6207 274.527 37.8267 274.423 38.0085 274.287C38.1932 274.151 38.348 273.983 38.473 273.784C38.6009 273.585 38.6889 273.358 38.7372 273.102L40.331 273.111C40.2713 273.526 40.142 273.915 39.9432 274.278C39.7472 274.642 39.4901 274.963 39.1719 275.241C38.8537 275.517 38.4815 275.733 38.0554 275.889C37.6293 276.043 37.1563 276.119 36.6364 276.119C35.8693 276.119 35.1847 275.942 34.5824 275.587C33.9801 275.232 33.5057 274.719 33.1591 274.048C32.8125 273.378 32.6392 272.574 32.6392 271.636C32.6392 270.696 32.8139 269.892 33.1634 269.224C33.5128 268.554 33.9886 268.041 34.5909 267.686C35.1932 267.331 35.875 267.153 36.6364 267.153C37.1222 267.153 37.5739 267.222 37.9915 267.358C38.4091 267.494 38.7813 267.695 39.108 267.959C39.4347 268.22 39.7031 268.541 39.9134 268.922C40.1264 269.3 40.2656 269.732 40.331 270.217ZM42.1388 276V267.273H43.7197V274.675H47.5635V276H42.1388ZM50.8766 267.273V276H49.2956V267.273H50.8766Z" fill="#36B37E"/>
<rect x="72" y="252" width="136" height="40" rx="8" fill="white"/>
<path d="M86.6974 276L84.2344 267.273H85.9347L87.5071 273.686H87.5881L89.267 267.273H90.8139L92.4972 273.69H92.5739L94.1463 267.273H95.8466L93.3835 276H91.8239L90.0767 269.876H90.0085L88.2571 276H86.6974ZM99.4644 276.128C98.8082 276.128 98.2414 275.991 97.7641 275.719C97.2897 275.443 96.9246 275.054 96.6689 274.551C96.4133 274.045 96.2854 273.45 96.2854 272.766C96.2854 272.092 96.4133 271.501 96.6689 270.993C96.9275 270.482 97.2883 270.084 97.7513 269.8C98.2144 269.513 98.7584 269.369 99.3834 269.369C99.7868 269.369 100.168 269.435 100.525 269.565C100.886 269.693 101.204 269.892 101.48 270.162C101.758 270.432 101.977 270.776 102.136 271.193C102.295 271.608 102.375 272.102 102.375 272.676V273.149H97.0099V272.109H100.896C100.893 271.814 100.829 271.551 100.704 271.321C100.579 271.088 100.405 270.905 100.18 270.771C99.9587 270.638 99.7002 270.571 99.4047 270.571C99.0894 270.571 98.8124 270.648 98.5738 270.801C98.3351 270.952 98.1491 271.151 98.0155 271.398C97.8849 271.642 97.8181 271.911 97.8153 272.203V273.111C97.8153 273.491 97.8849 273.818 98.0241 274.091C98.1633 274.361 98.3579 274.568 98.6079 274.713C98.8579 274.855 99.1505 274.926 99.4857 274.926C99.7101 274.926 99.9133 274.895 100.095 274.832C100.277 274.767 100.435 274.672 100.568 274.547C100.702 274.422 100.802 274.267 100.871 274.082L102.311 274.244C102.22 274.625 102.047 274.957 101.791 275.241C101.538 275.523 101.214 275.741 100.82 275.898C100.425 276.051 99.9729 276.128 99.4644 276.128ZM104.108 276V267.273H105.651V270.537H105.715C105.794 270.378 105.906 270.209 106.051 270.03C106.196 269.848 106.392 269.693 106.639 269.565C106.887 269.435 107.202 269.369 107.585 269.369C108.091 269.369 108.547 269.499 108.953 269.757C109.362 270.013 109.686 270.392 109.925 270.895C110.166 271.395 110.287 272.009 110.287 272.736C110.287 273.455 110.169 274.065 109.933 274.568C109.698 275.071 109.377 275.455 108.97 275.719C108.564 275.983 108.104 276.115 107.59 276.115C107.215 276.115 106.904 276.053 106.656 275.928C106.409 275.803 106.21 275.652 106.06 275.476C105.912 275.297 105.797 275.128 105.715 274.969H105.625V276H104.108ZM105.621 272.727C105.621 273.151 105.681 273.521 105.8 273.839C105.922 274.158 106.097 274.406 106.324 274.585C106.554 274.761 106.833 274.849 107.159 274.849C107.5 274.849 107.786 274.759 108.016 274.577C108.246 274.392 108.419 274.141 108.536 273.822C108.655 273.501 108.715 273.136 108.715 272.727C108.715 272.321 108.656 271.96 108.54 271.645C108.423 271.33 108.25 271.082 108.02 270.903C107.79 270.724 107.503 270.635 107.159 270.635C106.83 270.635 106.55 270.722 106.32 270.895C106.09 271.068 105.915 271.311 105.796 271.624C105.679 271.936 105.621 272.304 105.621 272.727ZM118.321 276H115.363V267.273H118.38C119.247 267.273 119.991 267.447 120.613 267.797C121.238 268.143 121.718 268.642 122.054 269.293C122.389 269.943 122.556 270.722 122.556 271.628C122.556 272.537 122.387 273.318 122.049 273.972C121.714 274.625 121.23 275.126 120.596 275.476C119.966 275.825 119.207 276 118.321 276ZM116.944 274.632H118.244C118.852 274.632 119.359 274.521 119.765 274.3C120.172 274.075 120.477 273.741 120.681 273.298C120.886 272.852 120.988 272.295 120.988 271.628C120.988 270.96 120.886 270.406 120.681 269.966C120.477 269.523 120.174 269.192 119.774 268.973C119.376 268.751 118.882 268.641 118.291 268.641H116.944V274.632ZM127.248 276.128C126.592 276.128 126.025 275.991 125.548 275.719C125.073 275.443 124.708 275.054 124.453 274.551C124.197 274.045 124.069 273.45 124.069 272.766C124.069 272.092 124.197 271.501 124.453 270.993C124.711 270.482 125.072 270.084 125.535 269.8C125.998 269.513 126.542 269.369 127.167 269.369C127.571 269.369 127.951 269.435 128.309 269.565C128.67 269.693 128.988 269.892 129.264 270.162C129.542 270.432 129.761 270.776 129.92 271.193C130.079 271.608 130.159 272.102 130.159 272.676V273.149H124.794V272.109H128.68C128.677 271.814 128.613 271.551 128.488 271.321C128.363 271.088 128.188 270.905 127.964 270.771C127.742 270.638 127.484 270.571 127.188 270.571C126.873 270.571 126.596 270.648 126.358 270.801C126.119 270.952 125.933 271.151 125.799 271.398C125.669 271.642 125.602 271.911 125.599 272.203V273.111C125.599 273.491 125.669 273.818 125.808 274.091C125.947 274.361 126.142 274.568 126.392 274.713C126.642 274.855 126.934 274.926 127.269 274.926C127.494 274.926 127.697 274.895 127.879 274.832C128.061 274.767 128.218 274.672 128.352 274.547C128.485 274.422 128.586 274.267 128.654 274.082L130.095 274.244C130.004 274.625 129.831 274.957 129.575 275.241C129.322 275.523 128.998 275.741 128.603 275.898C128.208 276.051 127.757 276.128 127.248 276.128ZM137.483 269.455L135.152 276H133.447L131.116 269.455H132.761L134.265 274.317H134.334L135.842 269.455H137.483ZM141.585 276.128C140.929 276.128 140.362 275.991 139.885 275.719C139.411 275.443 139.046 275.054 138.79 274.551C138.534 274.045 138.406 273.45 138.406 272.766C138.406 272.092 138.534 271.501 138.79 270.993C139.048 270.482 139.409 270.084 139.872 269.8C140.335 269.513 140.879 269.369 141.504 269.369C141.908 269.369 142.288 269.435 142.646 269.565C143.007 269.693 143.325 269.892 143.601 270.162C143.879 270.432 144.098 270.776 144.257 271.193C144.416 271.608 144.496 272.102 144.496 272.676V273.149H139.131V272.109H143.017C143.014 271.814 142.95 271.551 142.825 271.321C142.7 271.088 142.526 270.905 142.301 270.771C142.08 270.638 141.821 270.571 141.526 270.571C141.21 270.571 140.933 270.648 140.695 270.801C140.456 270.952 140.27 271.151 140.136 271.398C140.006 271.642 139.939 271.911 139.936 272.203V273.111C139.936 273.491 140.006 273.818 140.145 274.091C140.284 274.361 140.479 274.568 140.729 274.713C140.979 274.855 141.271 274.926 141.607 274.926C141.831 274.926 142.034 274.895 142.216 274.832C142.398 274.767 142.556 274.672 142.689 274.547C142.823 274.422 142.923 274.267 142.992 274.082L144.432 274.244C144.341 274.625 144.168 274.957 143.912 275.241C143.659 275.523 143.335 275.741 142.94 275.898C142.546 276.051 142.094 276.128 141.585 276.128ZM147.704 267.273V276H146.161V267.273H147.704ZM152.505 276.128C151.866 276.128 151.312 275.987 150.843 275.706C150.374 275.425 150.011 275.031 149.752 274.526C149.496 274.02 149.369 273.429 149.369 272.753C149.369 272.077 149.496 271.484 149.752 270.976C150.011 270.467 150.374 270.072 150.843 269.791C151.312 269.51 151.866 269.369 152.505 269.369C153.144 269.369 153.698 269.51 154.167 269.791C154.636 270.072 154.998 270.467 155.253 270.976C155.512 271.484 155.641 272.077 155.641 272.753C155.641 273.429 155.512 274.02 155.253 274.526C154.998 275.031 154.636 275.425 154.167 275.706C153.698 275.987 153.144 276.128 152.505 276.128ZM152.513 274.892C152.86 274.892 153.15 274.797 153.383 274.607C153.616 274.413 153.789 274.155 153.903 273.831C154.019 273.507 154.077 273.146 154.077 272.749C154.077 272.348 154.019 271.986 153.903 271.662C153.789 271.335 153.616 271.075 153.383 270.882C153.15 270.689 152.86 270.592 152.513 270.592C152.158 270.592 151.863 270.689 151.627 270.882C151.394 271.075 151.219 271.335 151.103 271.662C150.989 271.986 150.932 272.348 150.932 272.749C150.932 273.146 150.989 273.507 151.103 273.831C151.219 274.155 151.394 274.413 151.627 274.607C151.863 274.797 152.158 274.892 152.513 274.892ZM157.311 278.455V269.455H158.828V270.537H158.917C158.997 270.378 159.109 270.209 159.254 270.03C159.399 269.848 159.595 269.693 159.842 269.565C160.089 269.435 160.404 269.369 160.788 269.369C161.294 269.369 161.75 269.499 162.156 269.757C162.565 270.013 162.889 270.392 163.127 270.895C163.369 271.395 163.49 272.009 163.49 272.736C163.49 273.455 163.372 274.065 163.136 274.568C162.9 275.071 162.579 275.455 162.173 275.719C161.767 275.983 161.306 276.115 160.792 276.115C160.417 276.115 160.106 276.053 159.859 275.928C159.612 275.803 159.413 275.652 159.262 275.476C159.115 275.297 159 275.128 158.917 274.969H158.853V278.455H157.311ZM158.823 272.727C158.823 273.151 158.883 273.521 159.002 273.839C159.125 274.158 159.299 274.406 159.526 274.585C159.757 274.761 160.035 274.849 160.362 274.849C160.703 274.849 160.988 274.759 161.218 274.577C161.448 274.392 161.622 274.141 161.738 273.822C161.857 273.501 161.917 273.136 161.917 272.727C161.917 272.321 161.859 271.96 161.742 271.645C161.626 271.33 161.453 271.082 161.223 270.903C160.992 270.724 160.705 270.635 160.362 270.635C160.032 270.635 159.752 270.722 159.522 270.895C159.292 271.068 159.117 271.311 158.998 271.624C158.882 271.936 158.823 272.304 158.823 272.727ZM165.171 276V269.455H166.645V270.567H166.722C166.858 270.192 167.084 269.899 167.399 269.689C167.715 269.476 168.091 269.369 168.529 269.369C168.972 269.369 169.345 269.477 169.649 269.693C169.956 269.906 170.172 270.197 170.297 270.567H170.365C170.51 270.203 170.754 269.913 171.098 269.697C171.445 269.479 171.855 269.369 172.33 269.369C172.932 269.369 173.423 269.56 173.804 269.94C174.185 270.321 174.375 270.876 174.375 271.607V276H172.828V271.845C172.828 271.439 172.72 271.142 172.504 270.955C172.288 270.764 172.024 270.669 171.712 270.669C171.34 270.669 171.048 270.786 170.838 271.018C170.631 271.249 170.527 271.548 170.527 271.918V276H169.014V271.781C169.014 271.443 168.912 271.173 168.708 270.972C168.506 270.77 168.242 270.669 167.915 270.669C167.693 270.669 167.492 270.726 167.31 270.839C167.128 270.95 166.983 271.108 166.875 271.312C166.767 271.514 166.713 271.75 166.713 272.02V276H165.171ZM179.198 276.128C178.542 276.128 177.975 275.991 177.498 275.719C177.023 275.443 176.658 275.054 176.402 274.551C176.147 274.045 176.019 273.45 176.019 272.766C176.019 272.092 176.147 271.501 176.402 270.993C176.661 270.482 177.022 270.084 177.485 269.8C177.948 269.513 178.492 269.369 179.117 269.369C179.52 269.369 179.901 269.435 180.259 269.565C180.62 269.693 180.938 269.892 181.213 270.162C181.492 270.432 181.711 270.776 181.87 271.193C182.029 271.608 182.108 272.102 182.108 272.676V273.149H176.743V272.109H180.63C180.627 271.814 180.563 271.551 180.438 271.321C180.313 271.088 180.138 270.905 179.914 270.771C179.692 270.638 179.434 270.571 179.138 270.571C178.823 270.571 178.546 270.648 178.307 270.801C178.069 270.952 177.882 271.151 177.749 271.398C177.618 271.642 177.552 271.911 177.549 272.203V273.111C177.549 273.491 177.618 273.818 177.757 274.091C177.897 274.361 178.091 274.568 178.341 274.713C178.591 274.855 178.884 274.926 179.219 274.926C179.444 274.926 179.647 274.895 179.829 274.832C180.01 274.767 180.168 274.672 180.302 274.547C180.435 274.422 180.536 274.267 180.604 274.082L182.044 274.244C181.954 274.625 181.78 274.957 181.525 275.241C181.272 275.523 180.948 275.741 180.553 275.898C180.158 276.051 179.706 276.128 179.198 276.128ZM185.316 272.165V276H183.773V269.455H185.248V270.567H185.325C185.475 270.2 185.715 269.909 186.045 269.693C186.377 269.477 186.788 269.369 187.276 269.369C187.728 269.369 188.121 269.466 188.457 269.659C188.795 269.852 189.056 270.132 189.241 270.499C189.428 270.865 189.521 271.31 189.518 271.832V276H187.975V272.071C187.975 271.634 187.861 271.291 187.634 271.044C187.41 270.797 187.099 270.673 186.701 270.673C186.431 270.673 186.191 270.733 185.981 270.852C185.773 270.969 185.61 271.138 185.491 271.359C185.374 271.581 185.316 271.849 185.316 272.165ZM194.714 269.455V270.648H190.952V269.455H194.714ZM191.881 267.886H193.423V274.031C193.423 274.239 193.454 274.398 193.517 274.509C193.582 274.616 193.667 274.69 193.773 274.73C193.878 274.77 193.994 274.79 194.122 274.79C194.219 274.79 194.307 274.783 194.386 274.768C194.469 274.754 194.531 274.741 194.574 274.73L194.834 275.936C194.751 275.964 194.633 275.996 194.48 276.03C194.329 276.064 194.145 276.084 193.926 276.089C193.54 276.101 193.192 276.043 192.882 275.915C192.572 275.784 192.327 275.582 192.145 275.31C191.966 275.037 191.878 274.696 191.881 274.287V267.886Z" fill="#36B37E"/>
<rect x="216" y="252" width="91" height="40" rx="8" fill="white"/>
<path d="M229.982 276H228.294L231.366 267.273H233.318L236.395 276H234.707L232.376 269.062H232.308L229.982 276ZM230.037 272.578H234.639V273.848H230.037V272.578ZM237.904 276V267.273H241.177C241.848 267.273 242.41 267.398 242.865 267.648C243.322 267.898 243.667 268.241 243.9 268.679C244.136 269.114 244.254 269.608 244.254 270.162C244.254 270.722 244.136 271.219 243.9 271.653C243.664 272.088 243.316 272.43 242.856 272.68C242.396 272.928 241.829 273.051 241.156 273.051H238.987V271.751H240.943C241.335 271.751 241.656 271.683 241.906 271.547C242.156 271.411 242.34 271.223 242.46 270.984C242.582 270.746 242.643 270.472 242.643 270.162C242.643 269.852 242.582 269.58 242.46 269.344C242.34 269.108 242.154 268.925 241.902 268.794C241.652 268.661 241.329 268.594 240.934 268.594H239.485V276H237.904ZM247.568 267.273V276H245.987V267.273H247.568ZM255.934 276H252.977V267.273H255.994C256.86 267.273 257.604 267.447 258.227 267.797C258.852 268.143 259.332 268.642 259.667 269.293C260.002 269.943 260.17 270.722 260.17 271.628C260.17 272.537 260.001 273.318 259.663 273.972C259.327 274.625 258.843 275.126 258.21 275.476C257.579 275.825 256.82 276 255.934 276ZM254.558 274.632H255.857C256.465 274.632 256.972 274.521 257.379 274.3C257.785 274.075 258.09 273.741 258.295 273.298C258.499 272.852 258.602 272.295 258.602 271.628C258.602 270.96 258.499 270.406 258.295 269.966C258.09 269.523 257.788 269.192 257.387 268.973C256.989 268.751 256.495 268.641 255.904 268.641H254.558V274.632ZM264.861 276.128C264.205 276.128 263.638 275.991 263.161 275.719C262.687 275.443 262.322 275.054 262.066 274.551C261.81 274.045 261.682 273.45 261.682 272.766C261.682 272.092 261.81 271.501 262.066 270.993C262.325 270.482 262.685 270.084 263.148 269.8C263.611 269.513 264.155 269.369 264.78 269.369C265.184 269.369 265.565 269.435 265.923 269.565C266.283 269.693 266.601 269.892 266.877 270.162C267.155 270.432 267.374 270.776 267.533 271.193C267.692 271.608 267.772 272.102 267.772 272.676V273.149H262.407V272.109H266.293C266.29 271.814 266.226 271.551 266.101 271.321C265.976 271.088 265.802 270.905 265.577 270.771C265.356 270.638 265.097 270.571 264.802 270.571C264.486 270.571 264.209 270.648 263.971 270.801C263.732 270.952 263.546 271.151 263.413 271.398C263.282 271.642 263.215 271.911 263.212 272.203V273.111C263.212 273.491 263.282 273.818 263.421 274.091C263.56 274.361 263.755 274.568 264.005 274.713C264.255 274.855 264.548 274.926 264.883 274.926C265.107 274.926 265.31 274.895 265.492 274.832C265.674 274.767 265.832 274.672 265.965 274.547C266.099 274.422 266.2 274.267 266.268 274.082L267.708 274.244C267.617 274.625 267.444 274.957 267.188 275.241C266.935 275.523 266.611 275.741 266.217 275.898C265.822 276.051 265.37 276.128 264.861 276.128ZM274.61 271.185L273.204 271.338C273.164 271.196 273.095 271.062 272.995 270.938C272.899 270.812 272.768 270.712 272.603 270.635C272.438 270.558 272.237 270.52 271.998 270.52C271.677 270.52 271.407 270.589 271.188 270.729C270.972 270.868 270.866 271.048 270.869 271.27C270.866 271.46 270.936 271.615 271.078 271.734C271.222 271.854 271.461 271.952 271.794 272.028L272.91 272.267C273.529 272.401 273.99 272.612 274.291 272.902C274.595 273.192 274.748 273.571 274.751 274.04C274.748 274.452 274.627 274.815 274.389 275.131C274.153 275.443 273.825 275.687 273.404 275.864C272.984 276.04 272.501 276.128 271.955 276.128C271.154 276.128 270.509 275.96 270.021 275.625C269.532 275.287 269.241 274.817 269.147 274.214L270.651 274.07C270.72 274.365 270.865 274.588 271.086 274.739C271.308 274.889 271.596 274.964 271.951 274.964C272.318 274.964 272.612 274.889 272.833 274.739C273.058 274.588 273.17 274.402 273.17 274.18C273.17 273.993 273.097 273.838 272.953 273.716C272.811 273.594 272.589 273.5 272.288 273.435L271.171 273.2C270.544 273.07 270.079 272.849 269.778 272.54C269.477 272.227 269.328 271.832 269.33 271.355C269.328 270.952 269.437 270.602 269.659 270.307C269.883 270.009 270.194 269.778 270.592 269.616C270.992 269.452 271.454 269.369 271.977 269.369C272.744 269.369 273.348 269.533 273.788 269.859C274.231 270.186 274.505 270.628 274.61 271.185ZM276.383 276V269.455H277.926V276H276.383ZM277.158 268.526C276.914 268.526 276.704 268.445 276.528 268.283C276.352 268.118 276.264 267.92 276.264 267.69C276.264 267.457 276.352 267.26 276.528 267.098C276.704 266.933 276.914 266.851 277.158 266.851C277.406 266.851 277.616 266.933 277.789 267.098C277.965 267.26 278.053 267.457 278.053 267.69C278.053 267.92 277.965 268.118 277.789 268.283C277.616 268.445 277.406 268.526 277.158 268.526ZM282.718 278.591C282.164 278.591 281.689 278.516 281.291 278.365C280.893 278.217 280.574 278.018 280.332 277.768C280.091 277.518 279.923 277.241 279.829 276.938L281.218 276.601C281.281 276.729 281.372 276.855 281.491 276.98C281.61 277.108 281.771 277.213 281.973 277.295C282.177 277.381 282.434 277.423 282.744 277.423C283.181 277.423 283.544 277.317 283.831 277.104C284.118 276.893 284.261 276.547 284.261 276.064V274.824H284.184C284.105 274.983 283.988 275.146 283.835 275.314C283.684 275.482 283.484 275.622 283.234 275.736C282.987 275.849 282.676 275.906 282.301 275.906C281.798 275.906 281.342 275.788 280.933 275.553C280.527 275.314 280.203 274.959 279.961 274.487C279.723 274.013 279.603 273.419 279.603 272.706C279.603 271.987 279.723 271.381 279.961 270.886C280.203 270.389 280.528 270.013 280.937 269.757C281.346 269.499 281.802 269.369 282.305 269.369C282.689 269.369 283.004 269.435 283.251 269.565C283.501 269.693 283.7 269.848 283.848 270.03C283.995 270.209 284.108 270.378 284.184 270.537H284.27V269.455H285.791V276.107C285.791 276.666 285.657 277.129 285.39 277.496C285.123 277.862 284.758 278.136 284.295 278.318C283.832 278.5 283.306 278.591 282.718 278.591ZM282.731 274.696C283.058 274.696 283.336 274.616 283.566 274.457C283.797 274.298 283.971 274.07 284.091 273.771C284.21 273.473 284.27 273.115 284.27 272.697C284.27 272.286 284.21 271.925 284.091 271.615C283.974 271.305 283.801 271.065 283.571 270.895C283.343 270.722 283.064 270.635 282.731 270.635C282.387 270.635 282.101 270.724 281.87 270.903C281.64 271.082 281.467 271.328 281.351 271.641C281.234 271.95 281.176 272.303 281.176 272.697C281.176 273.098 281.234 273.449 281.351 273.75C281.47 274.048 281.645 274.281 281.875 274.449C282.108 274.614 282.393 274.696 282.731 274.696ZM289.274 272.165V276H287.732V269.455H289.206V270.567H289.283C289.434 270.2 289.674 269.909 290.003 269.693C290.336 269.477 290.746 269.369 291.235 269.369C291.686 269.369 292.08 269.466 292.415 269.659C292.753 269.852 293.015 270.132 293.199 270.499C293.387 270.865 293.479 271.31 293.476 271.832V276H291.934V272.071C291.934 271.634 291.82 271.291 291.593 271.044C291.368 270.797 291.057 270.673 290.659 270.673C290.39 270.673 290.149 270.733 289.939 270.852C289.732 270.969 289.568 271.138 289.449 271.359C289.333 271.581 289.274 271.849 289.274 272.165Z" fill="#36B37E"/>
</g>
</g>
</g>
</g>
<g filter="url(#filter0_d_48_1481)">
<circle cx="164" cy="80" r="40" fill="white"/>
</g>
<g clip-path="url(#clip5_48_1481)">
<path d="M160.2 60H169.2C170.4 60 171.2 61.2 171 62.4L166.6 76.8H171.2C172.6 76.8 173.6 78.2 173 79.6L164 98C163.6 98.6 162.6 98.4 162.8 97.6L165 83.6H158C156.8 83.6 156 82.6 156.2 81.4L158.4 61.8C158.4 60.8 159.2 60 160.2 60Z" fill="#36B37E"/>
<path d="M142.437 72.6706L145.644 70.8185C146.072 70.5716 146.608 70.8406 146.787 71.3153L148.222 77.4238L149.862 76.4772C150.361 76.1891 151.009 76.4892 151.088 77.1185L151.718 85.6189C151.701 85.9181 151.303 86.0516 151.207 85.7214L149.071 80.2101L146.576 81.6506C146.148 81.8975 145.654 81.7008 145.475 81.2261L142.171 73.6914C141.962 73.33 142.08 72.8764 142.437 72.6706Z" fill="#091E42"/>
<path d="M186.626 72.6706L183.418 70.8185C182.99 70.5716 182.455 70.8406 182.275 71.3153L180.84 77.4238L179.2 76.4772C178.701 76.1891 178.053 76.4892 177.975 77.1185L177.344 85.6189C177.361 85.9181 177.759 86.0516 177.855 85.7214L179.991 80.2101L182.486 81.6506C182.914 81.8975 183.408 81.7008 183.587 81.2261L186.892 73.6914C187.1 73.33 186.982 72.8764 186.626 72.6706Z" fill="#091E42"/>
</g>
<defs>
<filter id="filter0_d_48_1481" x="100" y="32" width="128" height="128" filterUnits="userSpaceOnUse" color-interpolation-filters="sRGB">
<feFlood flood-opacity="0" result="BackgroundImageFix"/>
<feColorMatrix in="SourceAlpha" type="matrix" values="0 0 0 0 0 0 0 0 0 0 0 0 0 0 0 0 0 0 127 0" result="hardAlpha"/>
<feOffset dy="16"/>
<feGaussianBlur stdDeviation="12"/>
<feColorMatrix type="matrix" values="0 0 0 0 0.145573 0 0 0 0 0.185183 0 0 0 0 0.5375 0 0 0 0.08 0"/>
<feBlend mode="normal" in2="BackgroundImageFix" result="effect1_dropShadow_48_1481"/>
<feBlend mode="normal" in="SourceGraphic" in2="effect1_dropShadow_48_1481" result="shape"/>
</filter>
<clipPath id="clip0_48_1481">
<rect width="327" height="144" fill="white" transform="translate(0 148)"/>
</clipPath>
<clipPath id="clip1_48_1481">
<rect width="293" height="88" fill="white" transform="translate(17 204)"/>
</clipPath>
<clipPath id="clip2_48_1481">
<rect width="293" height="88" fill="white" transform="translate(17 204)"/>
</clipPath>
<clipPath id="clip3_48_1481">
<rect width="293" height="40" fill="white" transform="translate(17 204)"/>
</clipPath>
<clipPath id="clip4_48_1481">
<rect width="287" height="40" fill="white" transform="translate(20 252)"/>
</clipPath>
<clipPath id="clip5_48_1481">
<rect width="48" height="48" fill="white" transform="translate(140 56)"/>
</clipPath>
</defs>
</svg>
