<svg width="327" height="316" viewBox="0 0 327 316" fill="none" xmlns="http://www.w3.org/2000/svg">
<rect x="0.5" y="0.5" width="326" height="315" rx="7.5" fill="#EBF0EE" stroke="#C1C7D0"/>
<g filter="url(#filter0_d_48_1415)">
<circle cx="164" cy="80" r="40" fill="white"/>
</g>
<g clip-path="url(#clip0_48_1415)">
<path d="M176.271 78.8957H185.704C185.852 78.8957 185.999 78.7486 185.999 78.6014C185.336 68.7419 178.187 60.5747 168.753 58.5145C168.532 58.4409 168.311 58.7352 168.532 58.9559C172.954 63.8857 175.755 70.9492 176.049 78.675C175.976 78.8221 176.123 78.8957 176.271 78.8957Z" fill="#091E42"/>
<path d="M164.184 58C164.11 58 164.037 58 163.963 58C163.889 58 163.816 58 163.742 58C158.067 62.3411 154.529 70.0669 154.161 78.602C154.161 78.7492 154.308 78.8963 154.455 78.8963H173.471C173.618 78.8963 173.765 78.7492 173.765 78.602C173.471 70.0669 169.859 62.3411 164.184 58Z" fill="#36B37E"/>
<path d="M154.455 81.1035C154.308 81.1035 154.161 81.2507 154.161 81.3978C154.529 90.0065 158.067 97.6587 163.742 102C163.816 102 163.889 102 163.963 102C164.037 102 164.11 102 164.184 102C169.859 97.6587 173.397 89.9329 173.765 81.3978C173.765 81.2507 173.618 81.1035 173.471 81.1035H154.455Z" fill="#091E42"/>
<path d="M175.976 81.3243C175.681 89.05 172.954 96.1136 168.532 101.043C168.384 101.264 168.532 101.558 168.753 101.485C178.187 99.4246 185.41 91.2574 185.999 81.3978C185.999 81.2507 185.852 81.1035 185.704 81.1035H176.271C176.123 81.1035 175.976 81.2507 175.976 81.3243Z" fill="#36B37E"/>
<path d="M151.728 81.1035H142.294C142.147 81.1035 142 81.2507 142 81.3978C142.589 91.2574 149.812 99.4246 159.246 101.485C159.467 101.558 159.688 101.264 159.467 101.043C154.971 96.1136 152.244 89.05 151.949 81.3243C152.023 81.2507 151.876 81.1035 151.728 81.1035Z" fill="#36B37E"/>
<path d="M152.023 78.675C152.318 70.9492 155.045 63.8857 159.467 58.9559C159.614 58.7352 159.467 58.4409 159.246 58.5145C149.812 60.5747 142.589 68.7419 142 78.6014C142 78.7486 142.147 78.8957 142.294 78.8957H151.728C151.876 78.8957 152.023 78.8221 152.023 78.675Z" fill="#091E42"/>
</g>
<g clip-path="url(#clip1_48_1415)">
<path d="M101.331 173H112.18V170.349H104.493V155.545H101.331V173ZM118.555 173.264C120.609 173.264 121.837 172.301 122.399 171.202H122.501V173H125.467V164.239C125.467 160.778 122.646 159.739 120.149 159.739C117.396 159.739 115.283 160.966 114.601 163.352L117.482 163.761C117.788 162.866 118.658 162.099 120.166 162.099C121.598 162.099 122.382 162.832 122.382 164.119V164.17C122.382 165.057 121.453 165.099 119.143 165.347C116.604 165.619 114.175 166.378 114.175 169.327C114.175 171.901 116.058 173.264 118.555 173.264ZM119.357 170.997C118.07 170.997 117.149 170.409 117.149 169.276C117.149 168.091 118.18 167.597 119.561 167.401C120.371 167.29 121.99 167.085 122.391 166.761V168.304C122.391 169.761 121.214 170.997 119.357 170.997ZM131.655 165.33C131.655 163.438 132.797 162.347 134.425 162.347C136.018 162.347 136.973 163.395 136.973 165.142V173H140.058V164.665C140.067 161.528 138.277 159.739 135.575 159.739C133.615 159.739 132.268 160.676 131.672 162.134H131.518V159.909H128.57V173H131.655V165.33ZM148.888 178.131C152.425 178.131 155.033 176.511 155.033 173.213V159.909H151.99V162.074H151.82C151.351 161.128 150.371 159.739 148.061 159.739C145.036 159.739 142.658 162.108 142.658 166.412C142.658 170.682 145.036 172.812 148.053 172.812C150.294 172.812 151.342 171.611 151.82 170.648H151.973V173.128C151.973 175.003 150.695 175.795 148.939 175.795C147.081 175.795 146.263 174.918 145.888 174.202L143.109 174.875C143.672 176.656 145.555 178.131 148.888 178.131ZM148.913 170.392C146.876 170.392 145.803 168.807 145.803 166.395C145.803 164.017 146.859 162.27 148.913 162.27C150.899 162.27 151.99 163.915 151.99 166.395C151.99 168.892 150.882 170.392 148.913 170.392ZM166.538 167.494C166.538 169.489 165.115 170.477 163.751 170.477C162.268 170.477 161.28 169.429 161.28 167.767V159.909H158.195V168.244C158.195 171.389 159.984 173.17 162.558 173.17C164.518 173.17 165.899 172.139 166.496 170.673H166.632V173H169.624V159.909H166.538V167.494ZM176.563 173.264C178.617 173.264 179.844 172.301 180.407 171.202H180.509V173H183.475V164.239C183.475 160.778 180.654 159.739 178.157 159.739C175.404 159.739 173.29 160.966 172.609 163.352L175.489 163.761C175.796 162.866 176.665 162.099 178.174 162.099C179.606 162.099 180.39 162.832 180.39 164.119V164.17C180.39 165.057 179.461 165.099 177.151 165.347C174.612 165.619 172.183 166.378 172.183 169.327C172.183 171.901 174.066 173.264 176.563 173.264ZM177.364 170.997C176.077 170.997 175.157 170.409 175.157 169.276C175.157 168.091 176.188 167.597 177.569 167.401C178.379 167.29 179.998 167.085 180.398 166.761V168.304C180.398 169.761 179.222 170.997 177.364 170.997ZM192.271 178.131C195.808 178.131 198.415 176.511 198.415 173.213V159.909H195.373V162.074H195.202C194.734 161.128 193.754 159.739 191.444 159.739C188.418 159.739 186.04 162.108 186.04 166.412C186.04 170.682 188.418 172.812 191.435 172.812C193.677 172.812 194.725 171.611 195.202 170.648H195.356V173.128C195.356 175.003 194.077 175.795 192.322 175.795C190.464 175.795 189.646 174.918 189.271 174.202L186.492 174.875C187.055 176.656 188.938 178.131 192.271 178.131ZM192.296 170.392C190.259 170.392 189.185 168.807 189.185 166.395C189.185 164.017 190.242 162.27 192.296 162.27C194.282 162.27 195.373 163.915 195.373 166.395C195.373 168.892 194.265 170.392 192.296 170.392ZM207.373 173.256C210.424 173.256 212.521 171.764 213.066 169.489L210.185 169.165C209.768 170.273 208.745 170.852 207.415 170.852C205.421 170.852 204.1 169.54 204.075 167.298H213.194V166.352C213.194 161.759 210.433 159.739 207.211 159.739C203.461 159.739 201.015 162.491 201.015 166.531C201.015 170.639 203.427 173.256 207.373 173.256ZM204.083 165.219C204.177 163.548 205.413 162.142 207.254 162.142C209.026 162.142 210.219 163.438 210.237 165.219H204.083ZM226.151 163.369C225.724 161.153 223.952 159.739 220.884 159.739C217.73 159.739 215.582 161.29 215.591 163.71C215.582 165.619 216.759 166.881 219.273 167.401L221.506 167.869C222.707 168.134 223.27 168.619 223.27 169.361C223.27 170.256 222.298 170.929 220.832 170.929C219.418 170.929 218.497 170.315 218.233 169.139L215.224 169.429C215.608 171.832 217.628 173.256 220.841 173.256C224.114 173.256 226.423 171.56 226.432 169.08C226.423 167.213 225.222 166.071 222.75 165.534L220.517 165.057C219.188 164.759 218.659 164.298 218.668 163.54C218.659 162.653 219.639 162.04 220.926 162.04C222.349 162.04 223.099 162.815 223.338 163.676L226.151 163.369Z" fill="#344563"/>
<g clip-path="url(#clip2_48_1415)">
<rect x="24.5" y="204" width="89" height="40" rx="8" fill="white"/>
<path d="M40.804 219.273V225.409C40.7997 226.33 40.3736 226.82 39.6151 226.82C38.9077 226.82 38.4347 226.389 38.4219 225.682H36.8494C36.8494 227.293 38.0256 228.119 39.5554 228.119C41.2386 228.119 42.3679 227.097 42.3722 225.409V219.273H40.804ZM46.2627 228.132C47.2897 228.132 47.9033 227.651 48.1846 227.101H48.2357V228H49.7187V223.619C49.7187 221.889 48.3082 221.369 47.0596 221.369C45.6832 221.369 44.6263 221.983 44.2854 223.176L45.7258 223.381C45.8792 222.933 46.3138 222.55 47.0681 222.55C47.784 222.55 48.1761 222.916 48.1761 223.56V223.585C48.1761 224.028 47.7116 224.05 46.5567 224.173C45.2868 224.31 44.0724 224.689 44.0724 226.163C44.0724 227.45 45.0141 228.132 46.2627 228.132ZM46.6633 226.999C46.0198 226.999 45.5596 226.705 45.5596 226.138C45.5596 225.545 46.0752 225.298 46.7655 225.2C47.1704 225.145 47.98 225.043 48.1803 224.881V225.652C48.1803 226.381 47.5922 226.999 46.6633 226.999ZM57.242 221.455H55.6014L54.0929 226.317H54.0247L52.5204 221.455H50.8755L53.2065 228H54.9111L57.242 221.455ZM60.3655 228.132C61.3925 228.132 62.0061 227.651 62.2874 227.101H62.3385V228H63.8215V223.619C63.8215 221.889 62.411 221.369 61.1624 221.369C59.786 221.369 58.7291 221.983 58.3882 223.176L59.8286 223.381C59.982 222.933 60.4166 222.55 61.1709 222.55C61.8868 222.55 62.2789 222.916 62.2789 223.56V223.585C62.2789 224.028 61.8144 224.05 60.6595 224.173C59.3897 224.31 58.1752 224.689 58.1752 226.163C58.1752 227.45 59.1169 228.132 60.3655 228.132ZM60.7661 226.999C60.1226 226.999 59.6624 226.705 59.6624 226.138C59.6624 225.545 60.178 225.298 60.8684 225.2C61.2732 225.145 62.0828 225.043 62.2831 224.881V225.652C62.2831 226.381 61.6951 226.999 60.7661 226.999ZM70.5437 221.672H72.065C72.0352 220.197 70.7781 219.153 68.9201 219.153C67.0877 219.153 65.7113 220.185 65.7156 221.727C65.7156 222.98 66.6062 223.7 68.0423 224.071L69.0352 224.327C69.9769 224.565 70.5991 224.859 70.6034 225.537C70.5991 226.283 69.8917 226.781 68.8605 226.781C67.8718 226.781 67.1048 226.338 67.0409 225.422H65.4855C65.5494 227.156 66.8406 228.132 68.8732 228.132C70.9656 228.132 72.1801 227.088 72.1843 225.55C72.1801 224.037 70.9315 223.347 69.619 223.036L68.8008 222.831C68.0849 222.661 67.3093 222.358 67.3178 221.629C67.3221 220.973 67.9102 220.491 68.8988 220.491C69.8406 220.491 70.4627 220.93 70.5437 221.672ZM76.7407 228.128C78.3856 228.128 79.4339 227.152 79.5447 225.763H78.0702C77.9381 226.466 77.431 226.871 76.7535 226.871C75.7904 226.871 75.1683 226.065 75.1683 224.727C75.1683 223.406 75.8032 222.614 76.7535 222.614C77.495 222.614 77.9509 223.091 78.0702 223.722H79.5447C79.4381 222.303 78.3302 221.369 76.7322 221.369C74.8146 221.369 73.6043 222.754 73.6043 224.753C73.6043 226.734 74.7847 228.128 76.7407 228.128ZM81.1714 228H82.714V224.152C82.714 223.321 83.3404 222.733 84.1884 222.733C84.4484 222.733 84.7722 222.78 84.9043 222.822V221.403C84.7637 221.378 84.5208 221.361 84.3503 221.361C83.6003 221.361 82.9739 221.787 82.7353 222.545H82.6671V221.455H81.1714V228ZM86.2892 228H87.8318V221.455H86.2892V228ZM87.0647 220.526C87.5548 220.526 87.9554 220.151 87.9554 219.69C87.9554 219.226 87.5548 218.851 87.0647 218.851C86.5704 218.851 86.1699 219.226 86.1699 219.69C86.1699 220.151 86.5704 220.526 87.0647 220.526ZM89.7781 230.455H91.3207V226.969H91.3846C91.6275 227.446 92.1346 228.115 93.2596 228.115C94.8022 228.115 95.9571 226.892 95.9571 224.736C95.9571 222.554 94.7681 221.369 93.2554 221.369C92.1005 221.369 91.619 222.064 91.3846 222.537H91.2951V221.455H89.7781V230.455ZM91.2909 224.727C91.2909 223.457 91.8363 222.635 92.8292 222.635C93.8562 222.635 94.3846 223.509 94.3846 224.727C94.3846 225.955 93.8477 226.849 92.8292 226.849C91.8448 226.849 91.2909 225.997 91.2909 224.727ZM100.907 221.455H99.6154V219.886H98.0727V221.455H97.1438V222.648H98.0727V226.287C98.0642 227.518 98.9591 228.124 100.118 228.089C100.557 228.077 100.86 227.991 101.026 227.936L100.766 226.73C100.681 226.751 100.506 226.79 100.314 226.79C99.9264 226.79 99.6154 226.653 99.6154 226.031V222.648H100.907V221.455Z" fill="#36B37E"/>
<rect x="121.5" y="204" width="55" height="40" rx="8" fill="white"/>
<path d="M134.361 228H135.942V224.804H137.553L139.266 228H141.03L139.142 224.54C140.169 224.126 140.71 223.249 140.71 222.064C140.71 220.398 139.636 219.273 137.634 219.273H134.361V228ZM135.942 223.491V220.594H137.391C138.571 220.594 139.099 221.135 139.099 222.064C139.099 222.993 138.571 223.491 137.399 223.491H135.942ZM146.629 225.247C146.629 226.244 145.918 226.739 145.236 226.739C144.494 226.739 144 226.214 144 225.384V221.455H142.457V225.622C142.457 227.195 143.352 228.085 144.639 228.085C145.619 228.085 146.31 227.57 146.608 226.837H146.676V228H148.172V221.455H146.629V225.247ZM150.186 228H151.703V226.969H151.793C152.036 227.446 152.543 228.115 153.668 228.115C155.21 228.115 156.365 226.892 156.365 224.736C156.365 222.554 155.176 221.369 153.664 221.369C152.509 221.369 152.027 222.064 151.793 222.537H151.729V219.273H150.186V228ZM151.699 224.727C151.699 223.457 152.245 222.635 153.237 222.635C154.264 222.635 154.793 223.509 154.793 224.727C154.793 225.955 154.256 226.849 153.237 226.849C152.253 226.849 151.699 225.997 151.699 224.727ZM158.773 230.442C159.975 230.442 160.669 229.82 161.04 228.793L163.669 221.463L162.02 221.455L160.507 226.398H160.439L158.93 221.455H157.294L159.668 228.136L159.536 228.49C159.242 229.214 158.798 229.27 158.125 229.078L157.767 230.276C157.976 230.365 158.351 230.442 158.773 230.442Z" fill="#36B37E"/>
<rect x="184.5" y="204" width="60" height="40" rx="8" fill="white"/>
<path d="M197.361 228V219.273H198.942V222.967H202.986V219.273H204.571V228H202.986V224.293H198.942V228H197.361ZM206.267 220.598V219.273H213.23V220.598H210.533V228H208.964V220.598H206.267ZM214.932 219.273H216.867L219.458 225.597H219.56L222.151 219.273H224.086V228H222.569V222.004H222.488L220.076 227.974H218.942L216.53 221.991H216.449V228H214.932V219.273ZM226.167 228V219.273H227.748V226.675H231.592V228H226.167Z" fill="#36B37E"/>
<rect x="252.5" y="204" width="50" height="40" rx="8" fill="white"/>
<path d="M272.831 222.217C272.562 220.278 271.071 219.153 269.136 219.153C266.857 219.153 265.139 220.815 265.139 223.636C265.139 226.453 266.835 228.119 269.136 228.119C271.212 228.119 272.588 226.777 272.831 225.111L271.237 225.102C271.037 226.125 270.202 226.7 269.158 226.7C267.743 226.7 266.729 225.639 266.729 223.636C266.729 221.668 267.734 220.572 269.162 220.572C270.223 220.572 271.054 221.173 271.237 222.217H272.831ZM279.382 221.672H280.903C280.873 220.197 279.616 219.153 277.758 219.153C275.926 219.153 274.549 220.185 274.554 221.727C274.554 222.98 275.444 223.7 276.88 224.071L277.873 224.327C278.815 224.565 279.437 224.859 279.441 225.537C279.437 226.283 278.73 226.781 277.698 226.781C276.71 226.781 275.943 226.338 275.879 225.422H274.323C274.387 227.156 275.679 228.132 277.711 228.132C279.804 228.132 281.018 227.088 281.022 225.55C281.018 224.037 279.769 223.347 278.457 223.036L277.639 222.831C276.923 222.661 276.147 222.358 276.156 221.629C276.16 220.973 276.748 220.491 277.737 220.491C278.679 220.491 279.301 220.93 279.382 221.672ZM287.535 221.672H289.056C289.026 220.197 287.769 219.153 285.911 219.153C284.079 219.153 282.702 220.185 282.707 221.727C282.707 222.98 283.597 223.7 285.033 224.071L286.026 224.327C286.968 224.565 287.59 224.859 287.594 225.537C287.59 226.283 286.883 226.781 285.851 226.781C284.863 226.781 284.096 226.338 284.032 225.422H282.476C282.54 227.156 283.832 228.132 285.864 228.132C287.957 228.132 289.171 227.088 289.175 225.55C289.171 224.037 287.922 223.347 286.61 223.036L285.792 222.831C285.076 222.661 284.3 222.358 284.309 221.629C284.313 220.973 284.901 220.491 285.89 220.491C286.832 220.491 287.454 220.93 287.535 221.672Z" fill="#36B37E"/>
</g>
</g>
<defs>
<filter id="filter0_d_48_1415" x="100" y="32" width="128" height="128" filterUnits="userSpaceOnUse" color-interpolation-filters="sRGB">
<feFlood flood-opacity="0" result="BackgroundImageFix"/>
<feColorMatrix in="SourceAlpha" type="matrix" values="0 0 0 0 0 0 0 0 0 0 0 0 0 0 0 0 0 0 127 0" result="hardAlpha"/>
<feOffset dy="16"/>
<feGaussianBlur stdDeviation="12"/>
<feColorMatrix type="matrix" values="0 0 0 0 0.145573 0 0 0 0 0.185183 0 0 0 0 0.5375 0 0 0 0.08 0"/>
<feBlend mode="normal" in2="BackgroundImageFix" result="effect1_dropShadow_48_1415"/>
<feBlend mode="normal" in="SourceGraphic" in2="effect1_dropShadow_48_1415" result="shape"/>
</filter>
<clipPath id="clip0_48_1415">
<rect width="44" height="44" fill="white" transform="translate(142 58)"/>
</clipPath>
<clipPath id="clip1_48_1415">
<rect width="327" height="96" fill="white" transform="translate(0 148)"/>
</clipPath>
<clipPath id="clip2_48_1415">
<rect width="278" height="40" fill="white" transform="translate(24.5 204)"/>
</clipPath>
</defs>
</svg>
