<svg width="54" height="54" viewBox="0 0 54 54" fill="none" xmlns="http://www.w3.org/2000/svg">
<path d="M21.216 5.304C18.4026 5.304 15.7044 6.42162 13.715 8.41101C11.7256 10.4004 10.608 13.0986 10.608 15.912C10.608 18.7254 11.7256 21.4236 13.715 23.413C15.7044 25.4024 18.4026 26.52 21.216 26.52C24.0294 26.52 26.7276 25.4024 28.717 23.413C30.7064 21.4236 31.824 18.7254 31.824 15.912C31.824 13.0986 30.7064 10.4004 28.717 8.41101C26.7276 6.42162 24.0294 5.304 21.216 5.304ZM5.304 15.912C5.304 11.6919 6.98044 7.6446 9.96452 4.66052C12.9486 1.67644 16.9959 0 21.216 0C25.4361 0 29.4834 1.67644 32.4675 4.66052C35.4516 7.6446 37.128 11.6919 37.128 15.912C37.128 20.1321 35.4516 24.1794 32.4675 27.1635C29.4834 30.1476 25.4361 31.824 21.216 31.824C16.9959 31.824 12.9486 30.1476 9.96452 27.1635C6.98044 24.1794 5.304 20.1321 5.304 15.912ZM39.3239 4.65956C39.5702 4.41299 39.8626 4.21738 40.1846 4.08392C40.5065 3.95046 40.8516 3.88177 41.2001 3.88177C41.5487 3.88177 41.8938 3.95046 42.2157 4.08392C42.5376 4.21738 42.8301 4.41299 43.0764 4.65956C44.5543 6.13716 45.7266 7.89141 46.5264 9.82212C47.3262 11.7528 47.7379 13.8222 47.7379 15.912C47.7379 18.0018 47.3262 20.0712 46.5264 22.0019C45.7266 23.9326 44.5543 25.6868 43.0764 27.1644C42.83 27.4108 42.5375 27.6063 42.2156 27.7396C41.8937 27.873 41.5486 27.9416 41.2001 27.9416C40.8517 27.9416 40.5066 27.873 40.1847 27.7396C39.8628 27.6063 39.5703 27.4108 39.3239 27.1644C39.0775 26.918 38.882 26.6255 38.7487 26.3036C38.6153 25.9817 38.5467 25.6366 38.5467 25.2881C38.5467 24.9397 38.6153 24.5946 38.7487 24.2727C38.882 23.9508 39.0775 23.6583 39.3239 23.4119C41.3125 21.4226 42.4297 18.7249 42.4297 15.912C42.4297 13.0991 41.3125 10.4014 39.3239 8.41214C39.0773 8.16584 38.8817 7.87336 38.7482 7.55141C38.6148 7.22946 38.5461 6.88437 38.5461 6.53585C38.5461 6.18734 38.6148 5.84224 38.7482 5.5203C38.8817 5.19835 39.0773 4.90586 39.3239 4.65956ZM41.1856 39.1356C41.3565 38.4539 41.7911 37.868 42.3937 37.5065C42.9964 37.145 43.7179 37.0375 44.3998 37.2076C47.9216 38.088 50.152 40.3369 51.4329 42.9041C52.674 45.3837 53.04 48.155 53.04 50.388C53.04 51.0914 52.7606 51.7659 52.2632 52.2632C51.7659 52.7606 51.0914 53.04 50.388 53.04C49.6846 53.04 49.0101 52.7606 48.5127 52.2632C48.0154 51.7659 47.736 51.0914 47.736 50.388C47.736 48.6456 47.439 46.7733 46.6911 45.2749C45.983 43.8614 44.8957 42.798 43.1136 42.3524C42.4319 42.1815 41.846 41.7469 41.4845 41.1443C41.123 40.5416 41.0155 39.8174 41.1856 39.1356ZM11.934 42.432C8.59248 42.432 5.304 45.6489 5.304 50.388C5.304 51.0914 5.02459 51.7659 4.52725 52.2632C4.0299 52.7606 3.35535 53.04 2.652 53.04C1.94865 53.04 1.2741 52.7606 0.776753 52.2632C0.279406 51.7659 0 51.0914 0 50.388C0 43.4079 5.02024 37.128 11.934 37.128H30.498C37.4118 37.128 42.432 43.4079 42.432 50.388C42.432 51.0914 42.1526 51.7659 41.6552 52.2632C41.1579 52.7606 40.4834 53.04 39.78 53.04C39.0766 53.04 38.4021 52.7606 37.9048 52.2632C37.4074 51.7659 37.128 51.0914 37.128 50.388C37.128 45.6489 33.8395 42.432 30.498 42.432H11.934Z" fill="white"/>
</svg>
