<svg width="54" height="54" viewBox="0 0 54 54" fill="none" xmlns="http://www.w3.org/2000/svg">
<path d="M21.216 5.304C18.4026 5.304 15.7044 6.42162 13.715 8.41101C11.7256 10.4004 10.608 13.0986 10.608 15.912C10.608 18.7254 11.7256 21.4236 13.715 23.413C15.7044 25.4024 18.4026 26.52 21.216 26.52C24.0294 26.52 26.7276 25.4024 28.717 23.413C30.7064 21.4236 31.824 18.7254 31.824 15.912C31.824 13.0986 30.7064 10.4004 28.717 8.41101C26.7276 6.42162 24.0294 5.304 21.216 5.304ZM5.304 15.912C5.304 11.6919 6.98044 7.6446 9.96452 4.66052C12.9486 1.67644 16.9959 0 21.216 0C25.4361 0 29.4834 1.67644 32.4675 4.66052C35.4516 7.6446 37.128 11.6919 37.128 15.912C37.128 20.1321 35.4516 24.1794 32.4675 27.1635C29.4834 30.1476 25.4361 31.824 21.216 31.824C16.9959 31.824 12.9486 30.1476 9.96452 27.1635C6.98044 24.1794 5.304 20.1321 5.304 15.912ZM45.084 23.868C45.7874 23.868 46.4619 24.1474 46.9592 24.6448C47.4566 25.1421 47.736 25.8166 47.736 26.52V29.172H50.388C51.0914 29.172 51.7659 29.4514 52.2632 29.9488C52.7606 30.4461 53.04 31.1206 53.04 31.824C53.04 32.5274 52.7606 33.2019 52.2632 33.6992C51.7659 34.1966 51.0914 34.476 50.388 34.476H47.736V37.128C47.736 37.8314 47.4566 38.5059 46.9592 39.0032C46.4619 39.5006 45.7874 39.78 45.084 39.78C44.3806 39.78 43.7061 39.5006 43.2087 39.0032C42.7114 38.5059 42.432 37.8314 42.432 37.128V34.476H39.78C39.0766 34.476 38.4021 34.1966 37.9048 33.6992C37.4074 33.2019 37.128 32.5274 37.128 31.824C37.128 31.1206 37.4074 30.4461 37.9048 29.9488C38.4021 29.4514 39.0766 29.172 39.78 29.172H42.432V26.52C42.432 25.8166 42.7114 25.1421 43.2087 24.6448C43.7061 24.1474 44.3806 23.868 45.084 23.868ZM11.934 42.432C8.59248 42.432 5.304 45.6489 5.304 50.388C5.304 51.0914 5.02459 51.7659 4.52725 52.2632C4.0299 52.7606 3.35535 53.04 2.652 53.04C1.94865 53.04 1.2741 52.7606 0.776753 52.2632C0.279406 51.7659 0 51.0914 0 50.388C0 43.4079 5.02024 37.128 11.934 37.128H30.498C37.4118 37.128 42.432 43.4079 42.432 50.388C42.432 51.0914 42.1526 51.7659 41.6552 52.2632C41.1579 52.7606 40.4834 53.04 39.78 53.04C39.0766 53.04 38.4021 52.7606 37.9048 52.2632C37.4074 51.7659 37.128 51.0914 37.128 50.388C37.128 45.6489 33.8395 42.432 30.498 42.432H11.934Z" fill="white"/>
</svg>
