<svg width="57" height="45" viewBox="0 0 57 45" fill="none" xmlns="http://www.w3.org/2000/svg">
<path d="M2 42.9855V40.5745C2 31.254 9.55581 23.6982 18.8764 23.6982C28.1969 23.6982 35.7527 31.254 35.7527 40.5745V42.9855" stroke="#C61010" stroke-width="3.61636" stroke-linecap="round"/>
<path d="M30.9309 28.52C30.9309 21.8625 36.328 16.4655 42.9855 16.4655C49.6429 16.4655 55.04 21.8625 55.04 28.52V29.7255" stroke="#C61010" stroke-width="3.61636" stroke-linecap="round"/>
<path d="M18.8764 23.6982C24.2023 23.6982 28.52 19.3805 28.52 14.0545C28.52 8.72851 24.2023 4.41091 18.8764 4.41091C13.5503 4.41091 9.23273 8.72851 9.23273 14.0545C9.23273 19.3805 13.5503 23.6982 18.8764 23.6982Z" stroke="#C61010" stroke-width="3.61636" stroke-linecap="round" stroke-linejoin="round"/>
<path d="M42.9855 16.4655C46.9801 16.4655 50.2182 13.2272 50.2182 9.23273C50.2182 5.23821 46.9801 2 42.9855 2C38.9908 2 35.7527 5.23821 35.7527 9.23273C35.7527 13.2272 38.9908 16.4655 42.9855 16.4655Z" stroke="#C61010" stroke-width="3.61636" stroke-linecap="round" stroke-linejoin="round"/>
</svg>
