<svg width="302" height="302" viewBox="0 0 302 302" fill="none" xmlns="http://www.w3.org/2000/svg">
<path d="M163.373 276.477H113.104C109.771 276.477 106.575 275.153 104.218 272.796C101.861 270.44 100.537 267.243 100.537 263.91V185.994H75.4028C72.0698 185.994 68.8733 184.67 66.5165 182.313C64.1597 179.956 62.8357 176.76 62.8357 173.427V128.185C62.8357 124.852 64.1597 121.655 66.5165 119.299C68.8733 116.942 72.0698 115.618 75.4028 115.618H100.537V94.2537C101.418 75.1058 109.845 57.0857 123.974 44.1333C138.104 31.1809 156.788 24.3501 175.94 25.1345H213.641C216.974 25.1345 220.171 26.4585 222.528 28.8153C224.884 31.1721 226.208 34.3686 226.208 37.7016V82.9433C226.208 86.2763 224.884 89.4728 222.528 91.8296C220.171 94.1864 216.974 95.5104 213.641 95.5104H175.94V115.618H213.641C215.582 115.603 217.499 116.038 219.244 116.888C220.988 117.739 222.511 118.981 223.695 120.519C224.866 122.08 225.657 123.892 226.006 125.811C226.355 127.731 226.252 129.705 225.706 131.578L213.139 176.82C212.378 179.538 210.725 181.921 208.446 183.586C206.166 185.25 203.392 186.098 200.572 185.994H175.94V263.91C175.94 267.243 174.616 270.44 172.259 272.796C169.902 275.153 166.706 276.477 163.373 276.477ZM125.671 251.343H150.806V173.427C150.806 170.094 152.13 166.897 154.486 164.54C156.843 162.184 160.04 160.86 163.373 160.86H191.523L197.053 140.752H163.373C160.04 140.752 156.843 139.428 154.486 137.071C152.13 134.715 150.806 131.518 150.806 128.185V94.2537C151.128 87.8079 153.918 81.7332 158.597 77.2881C163.276 72.843 169.486 70.3681 175.94 70.3762H201.074V50.2687H175.94C163.458 49.5083 151.18 53.7 141.77 61.9344C132.359 70.1688 126.575 81.7817 125.671 94.2537V128.185C125.671 131.518 124.347 134.715 121.991 137.071C119.634 139.428 116.437 140.752 113.104 140.752H87.97V160.86H113.104C116.437 160.86 119.634 162.184 121.991 164.54C124.347 166.897 125.671 170.094 125.671 173.427V251.343Z" fill="#231F20"/>
</svg>
