<svg width="59" height="54" viewBox="0 0 59 54" fill="none" xmlns="http://www.w3.org/2000/svg">
<path d="M0 5.8934C0 4.33038 0.62091 2.83137 1.72614 1.72614C2.83137 0.62091 4.33038 0 5.8934 0H53.0406C54.6037 0 56.1027 0.62091 57.2079 1.72614C58.3131 2.83137 58.934 4.33038 58.934 5.8934V38.3071C58.934 39.8702 58.3131 41.3692 57.2079 42.4744C56.1027 43.5796 54.6037 44.2005 53.0406 44.2005H39.5271L31.5503 52.1773C30.9977 52.7297 30.2484 53.04 29.467 53.04C28.6857 53.04 27.9363 52.7297 27.3837 52.1773L19.407 44.2005H5.8934C4.33038 44.2005 2.83137 43.5796 1.72614 42.4744C0.62091 41.3692 0 39.8702 0 38.3071V5.8934ZM53.0406 5.8934H5.8934V38.3071H20.6269C21.4084 38.3073 22.1577 38.6179 22.7102 39.1705L29.467 45.9273L36.2238 39.1705C36.7763 38.6179 37.5257 38.3073 38.3071 38.3071H53.0406V5.8934ZM11.7868 16.2069C11.7868 15.4253 12.0973 14.6758 12.6499 14.1232C13.2025 13.5706 13.952 13.2602 14.7335 13.2602H44.2005C44.982 13.2602 45.7315 13.5706 46.2842 14.1232C46.8368 14.6758 47.1472 15.4253 47.1472 16.2069C47.1472 16.9884 46.8368 17.7379 46.2842 18.2905C45.7315 18.8431 44.982 19.1536 44.2005 19.1536H14.7335C13.952 19.1536 13.2025 18.8431 12.6499 18.2905C12.0973 17.7379 11.7868 16.9884 11.7868 16.2069ZM11.7868 27.9937C11.7868 27.2122 12.0973 26.4626 12.6499 25.91C13.2025 25.3574 13.952 25.047 14.7335 25.047H32.4137C33.1952 25.047 33.9447 25.3574 34.4974 25.91C35.05 26.4626 35.3604 27.2122 35.3604 27.9937C35.3604 28.7752 35.05 29.5247 34.4974 30.0773C33.9447 30.6299 33.1952 30.9404 32.4137 30.9404H14.7335C13.952 30.9404 13.2025 30.6299 12.6499 30.0773C12.0973 29.5247 11.7868 28.7752 11.7868 27.9937Z" fill="white"/>
</svg>
