<svg width="54" height="54" viewBox="0 0 54 54" fill="none" xmlns="http://www.w3.org/2000/svg">
<path d="M44.3105 24.31H8.72951C7.56998 24.31 6.63 25.25 6.63 26.4095V26.6305C6.63 27.79 7.56998 28.73 8.72951 28.73H44.3105C45.47 28.73 46.41 27.79 46.41 26.6305V26.4095C46.41 25.25 45.47 24.31 44.3105 24.31Z" fill="#231F20"/>
<path d="M44.3105 35.36H8.72951C7.56998 35.36 6.63 36.3 6.63 37.4595V37.6805C6.63 38.84 7.56998 39.78 8.72951 39.78H44.3105C45.47 39.78 46.41 38.84 46.41 37.6805V37.4595C46.41 36.3 45.47 35.36 44.3105 35.36Z" fill="#231F20"/>
<path d="M44.3105 13.26H8.72951C7.56998 13.26 6.63 14.2 6.63 15.3595V15.5805C6.63 16.74 7.56998 17.68 8.72951 17.68H44.3105C45.47 17.68 46.41 16.74 46.41 15.5805V15.3595C46.41 14.2 45.47 13.26 44.3105 13.26Z" fill="#231F20"/>
</svg>
