<svg width="54" height="54" viewBox="0 0 54 54" fill="none" xmlns="http://www.w3.org/2000/svg">
<path d="M22.1 30.94H30.94V46.41H22.1V30.94Z" fill="#C61010"/>
<path d="M45.1282 22.4978L28.0891 5.08301C27.8837 4.87587 27.6392 4.71145 27.3699 4.59926C27.1006 4.48706 26.8117 4.42929 26.52 4.42929C26.2283 4.42929 25.9394 4.48706 25.6701 4.59926C25.4008 4.71145 25.1564 4.87587 24.9509 5.08301L7.9118 22.5199C7.4995 22.9355 7.17387 23.4289 6.95383 23.9715C6.73379 24.514 6.62371 25.0948 6.63 25.6802V44.2C6.62829 45.3313 7.06045 46.4203 7.83749 47.2425C8.61453 48.0648 9.67728 48.5578 10.8069 48.62H17.68V28.73C17.68 28.1439 17.9128 27.5818 18.3273 27.1673C18.7418 26.7528 19.3039 26.52 19.89 26.52H33.15C33.7361 26.52 34.2983 26.7528 34.7127 27.1673C35.1272 27.5818 35.36 28.1439 35.36 28.73V48.62H42.2331C43.3627 48.5578 44.4255 48.0648 45.2025 47.2425C45.9796 46.4203 46.4117 45.3313 46.41 44.2V25.6802C46.4118 24.4933 45.9521 23.3522 45.1282 22.4978Z" fill="#C61010"/>
</svg>
