<svg width="61" height="107" viewBox="0 0 61 107" fill="none" xmlns="http://www.w3.org/2000/svg">
<path d="M48.1518 45.3955L38.7009 75.6374H20.3622L10.9116 45.3955C8.21673 36.7719 9.92828 27.3749 15.4905 20.2552L27.3639 5.05727C28.4652 3.64758 30.598 3.64758 31.6992 5.05727L43.5726 20.2552C49.1347 27.3749 50.8462 36.7719 48.1518 45.3955Z" stroke="#C61010" stroke-width="6.87701" stroke-linecap="round" stroke-linejoin="round"/>
<path d="M20.3622 89.3914C20.3622 98.5608 29.5316 103.145 29.5316 103.145C29.5316 103.145 38.7009 98.5608 38.7009 89.3914" stroke="#C61010" stroke-width="6.87701" stroke-linecap="round" stroke-linejoin="round"/>
<path d="M13.4852 55.0064C-2.56118 66.4681 6.60817 84.8068 6.60817 84.8068L20.3622 75.6374" stroke="#C61010" stroke-width="6.87701" stroke-linecap="round" stroke-linejoin="round"/>
<path d="M47.5548 55.0064C63.6012 66.4681 54.4319 84.8068 54.4319 84.8068L40.6778 75.6374" stroke="#C61010" stroke-width="6.87701" stroke-linecap="round" stroke-linejoin="round"/>
<path d="M29.5316 48.1294C24.4673 48.1294 20.3622 44.0243 20.3622 38.96C20.3622 33.8959 24.4673 29.7907 29.5316 29.7907C34.5958 29.7907 38.7009 33.8959 38.7009 38.96C38.7009 44.0243 34.5958 48.1294 29.5316 48.1294Z" stroke="#C61010" stroke-width="6.87701" stroke-linecap="round" stroke-linejoin="round"/>
</svg>
