<svg width="54" height="54" viewBox="0 0 54 54" fill="none" xmlns="http://www.w3.org/2000/svg">
<path d="M0 5.304C0 3.89729 0.698516 2.5482 1.94188 1.55351C3.18525 0.558812 4.87161 0 6.63 0H33.15C34.0291 0.000150202 34.8722 0.279655 35.4937 0.777036L52.0687 14.037C52.6904 14.5343 53.0398 15.2087 53.04 15.912V47.736C53.04 49.1427 52.3415 50.4918 51.0981 51.4865C49.8548 52.4812 48.1684 53.04 46.41 53.04H6.63C4.87161 53.04 3.18525 52.4812 1.94188 51.4865C0.698516 50.4918 0 49.1427 0 47.736V5.304ZM36.2371 15.912C39.1552 15.912 40.4442 12.2373 38.1655 10.4144V10.4144C36.1442 8.79732 33.15 10.2364 33.15 12.8249V12.8249C33.15 14.5299 34.5321 15.912 36.2371 15.912V15.912ZM26.52 9.304C26.52 7.09486 24.7291 5.304 22.52 5.304H10.63C8.42086 5.304 6.63 7.09486 6.63 9.304V43.736C6.63 45.9451 8.42086 47.736 10.63 47.736H42.41C44.6191 47.736 46.41 45.9451 46.41 43.736V25.216C46.41 23.0069 44.6191 21.216 42.41 21.216H29.835C28.9558 21.216 28.1126 20.9366 27.4909 20.4392C26.8693 19.9419 26.52 19.2674 26.52 18.564V9.304ZM13.26 29.172C13.26 28.4686 13.6093 27.7941 14.2309 27.2968C14.8526 26.7994 15.6958 26.52 16.575 26.52H36.465C37.3442 26.52 38.1874 26.7994 38.8091 27.2968C39.4307 27.7941 39.78 28.4686 39.78 29.172C39.78 29.8754 39.4307 30.5499 38.8091 31.0472C38.1874 31.5446 37.3442 31.824 36.465 31.824H16.575C15.6958 31.824 14.8526 31.5446 14.2309 31.0472C13.6093 30.5499 13.26 29.8754 13.26 29.172ZM13.26 39.78C13.26 39.0766 13.6093 38.4021 14.2309 37.9047C14.8526 37.4074 15.6958 37.128 16.575 37.128H36.465C37.3442 37.128 38.1874 37.4074 38.8091 37.9047C39.4307 38.4021 39.78 39.0766 39.78 39.78C39.78 40.4834 39.4307 41.1579 38.8091 41.6552C38.1874 42.1526 37.3442 42.432 36.465 42.432H16.575C15.6958 42.432 14.8526 42.1526 14.2309 41.6552C13.6093 41.1579 13.26 40.4834 13.26 39.78Z" fill="white"/>
</svg>
