<svg width="59" height="69" viewBox="0 0 59 69" fill="none" xmlns="http://www.w3.org/2000/svg">
<path d="M53.3097 34.4436V14.7867C53.3097 14.2863 53.111 13.8065 52.7572 13.4527L42.8569 3.55259C42.5032 3.19875 42.0233 3 41.5231 3H4.88661C3.84467 3 3 3.84467 3 4.88661V64.0005C3 65.0425 3.84467 65.8871 4.88661 65.8871H25.0105" stroke="#C61010" stroke-width="4.71653" stroke-linecap="round" stroke-linejoin="round"/>
<path d="M15.5774 28.1548H40.7323M15.5774 15.5774H28.1548M15.5774 40.7323H25.0105" stroke="#C61010" stroke-width="4.71653" stroke-linecap="round" stroke-linejoin="round"/>
<path d="M46.8766 49.9748L50.021 46.8304C51.3979 45.4535 53.6304 45.4535 55.0073 46.8304C56.3842 48.2073 56.3842 50.4398 55.0073 51.8167L51.8629 54.9611M46.8766 49.9748L37.4715 59.3799C37.0002 59.8512 36.6908 60.4602 36.5883 61.1187L35.8251 66.0126L40.7187 65.2497C41.3775 65.1469 41.9862 64.8375 42.4575 64.3662L51.8629 54.9611M46.8766 49.9748L51.8629 54.9611" stroke="#C61010" stroke-width="4.71653" stroke-linecap="round" stroke-linejoin="round"/>
<path d="M40.7323 3V13.6908C40.7323 14.7328 41.5768 15.5774 42.6189 15.5774H53.3097" stroke="#C61010" stroke-width="4.71653" stroke-linecap="round" stroke-linejoin="round"/>
</svg>
