<svg width="40" height="36" viewBox="0 0 40 36" fill="none" xmlns="http://www.w3.org/2000/svg">
<path d="M0.835812 0.782934C1.37114 0.302151 2.09711 0.0320618 2.85407 0.0320618C3.61103 0.0320618 4.337 0.302151 4.87233 0.782934L19.9822 14.3572L35.092 0.782934C35.3553 0.537991 35.6703 0.342616 36.0186 0.208209C36.3669 0.0738028 36.7415 0.00305587 37.1205 9.68306e-05C37.4996 -0.00286221 37.8755 0.0620253 38.2263 0.190974C38.5771 0.319923 38.8958 0.51035 39.1639 0.751145C39.4319 0.991939 39.6439 1.27828 39.7874 1.59346C39.931 1.90863 40.0032 2.24633 39.9999 2.58686C39.9966 2.92738 39.9178 3.2639 39.7682 3.57679C39.6186 3.88968 39.4011 4.17266 39.1285 4.40924L24.0187 17.9835L39.1285 31.5578C39.6485 32.0415 39.9362 32.6893 39.9297 33.3617C39.9232 34.0341 39.623 34.6773 39.0937 35.1528C38.5644 35.6283 37.8485 35.898 37.1 35.9039C36.3515 35.9097 35.6304 35.6512 35.092 35.1841L19.9822 21.6098L4.87233 35.1841C4.33393 35.6512 3.61283 35.9097 2.86434 35.9039C2.11586 35.898 1.39987 35.6283 0.870586 35.1528C0.341305 34.6773 0.0410805 34.0341 0.0345763 33.3617C0.0280721 32.6893 0.315809 32.0415 0.835812 31.5578L15.9456 17.9835L0.835812 4.40924C0.300642 3.92831 0 3.27612 0 2.59608C0 1.91605 0.300642 1.26386 0.835812 0.782934Z" fill="#343232"/>
</svg>
