<svg width="302" height="302" viewBox="0 0 302 302" fill="none" xmlns="http://www.w3.org/2000/svg">
<path d="M106.946 251.343H105.941C85.6873 251.166 65.7264 246.487 47.5038 237.645C44.1518 236.07 41.3919 233.464 39.628 230.208C37.8641 226.951 37.189 223.216 37.7014 219.548C38.2587 215.856 39.9684 212.433 42.5863 209.77C45.2043 207.107 48.5967 205.339 52.2793 204.719C63.5722 203.212 74.4362 199.406 84.1998 193.534C67.2488 180.281 54.1989 162.689 46.4333 142.622C38.6676 122.556 36.4755 100.762 40.0892 79.5503C40.5791 76.1905 42.0241 73.0422 44.252 70.48C46.4799 67.9179 49.3971 66.0498 52.6563 65.098C55.8272 64.1022 59.2207 64.0597 62.4155 64.9757C65.6104 65.8917 68.4658 67.7259 70.6273 70.2506C77.9665 79.8743 87.1895 87.9019 97.7334 93.8437C108.277 99.7855 119.921 103.517 131.955 104.81C132.53 90.0043 138.892 76.0153 149.675 65.8521C155.058 60.6967 161.414 56.6644 168.372 53.9901C175.33 51.3157 182.75 50.0529 190.201 50.2751C197.652 50.4974 204.984 52.2002 211.77 55.2845C218.556 58.3688 224.66 62.7727 229.727 68.2398C231.047 69.4069 232.688 70.1507 234.435 70.3748C236.183 70.5988 237.958 70.2929 239.53 69.4965C242.526 68.0833 245.863 67.5513 249.15 67.9627C252.437 68.374 255.54 69.7116 258.096 71.8195C260.651 73.9274 262.555 76.7187 263.585 79.8676C264.614 83.0166 264.727 86.3934 263.91 89.604C261.011 101.544 255.519 112.7 247.824 122.279C246.128 158.029 230.366 191.659 203.976 215.836C177.586 240.013 142.708 252.776 106.946 251.343ZM106.946 226.209H107.952C122.563 226.711 137.129 224.308 150.805 219.139C164.481 213.97 176.994 206.138 187.62 196.096C198.246 186.055 206.773 174.004 212.707 160.642C218.641 147.28 221.863 132.874 222.187 118.257C222.395 114.251 224.046 110.456 226.837 107.575C229.902 103.695 232.516 99.4787 234.628 95.0078C230.101 95.0165 225.623 94.0694 221.487 92.2287C217.351 90.388 213.649 87.695 210.625 84.3258C207.717 81.4423 204.263 79.1679 200.465 77.6358C196.667 76.1037 192.602 75.3447 188.507 75.4031C184.371 75.2962 180.255 76.0071 176.395 77.4952C172.534 78.9833 169.006 81.2191 166.012 84.0744C161.973 87.9074 159.011 92.734 157.423 98.0713C155.835 103.409 155.677 109.069 156.964 114.487L160.231 128.813L145.527 129.819C130.461 131.047 115.307 128.986 101.115 123.779C86.9239 118.571 74.0341 110.34 63.3384 99.6577C62.8797 116.201 67.018 132.547 75.2934 146.88C83.5688 161.212 95.6569 172.968 110.214 180.841L122.153 187.628L114.235 198.938C105.673 210.167 93.9417 218.572 80.5553 223.067C89.1426 225.219 97.968 226.275 106.821 226.209H106.946Z" fill="#231F20"/>
</svg>
