<svg width="54" height="54" viewBox="0 0 54 54" fill="none" xmlns="http://www.w3.org/2000/svg">
<path d="M26.5207 5.31274C25.8176 5.31274 25.1433 5.59204 24.6461 6.08919C24.149 6.58635 23.8697 7.26064 23.8697 7.96373C23.8697 12.4492 18.4457 14.6972 15.2725 11.524C15.028 11.2708 14.7354 11.0689 14.412 10.9299C14.0886 10.791 13.7407 10.7179 13.3887 10.7148C13.0367 10.7117 12.6876 10.7788 12.3618 10.9121C12.036 11.0454 11.7401 11.2422 11.4911 11.4911C11.2422 11.7401 11.0454 12.036 10.9121 12.3618C10.7788 12.6876 10.7117 13.0367 10.7148 13.3887C10.7179 13.7407 10.791 14.0886 10.9299 14.412C11.0689 14.7354 11.2708 15.028 11.524 15.2725C14.6972 18.4457 12.4519 23.8697 7.96373 23.8697C7.26064 23.8697 6.58635 24.149 6.08919 24.6461C5.59204 25.1433 5.31274 25.8176 5.31274 26.5207C5.31274 27.2237 5.59204 27.898 6.08919 28.3952C6.58635 28.8924 7.26064 29.1717 7.96373 29.1717C12.4492 29.1717 14.6972 34.5956 11.524 37.7688C11.0411 38.2688 10.7739 38.9384 10.7799 39.6335C10.786 40.3286 11.0648 40.9935 11.5563 41.485C12.0478 41.9765 12.7127 42.2553 13.4078 42.2614C14.1029 42.2674 14.7725 42.0002 15.2725 41.5173C18.4457 38.3441 23.8697 40.5895 23.8697 45.0776C23.8697 45.7807 24.149 46.455 24.6461 46.9521C25.1433 47.4493 25.8176 47.7286 26.5207 47.7286C27.2237 47.7286 27.898 47.4493 28.3952 46.9521C28.8924 46.455 29.1717 45.7807 29.1717 45.0776C29.1717 40.5921 34.5956 38.3441 37.7688 41.5173C38.0134 41.7705 38.3059 41.9725 38.6293 42.1114C38.9527 42.2503 39.3006 42.3235 39.6526 42.3265C40.0046 42.3296 40.3537 42.2625 40.6795 42.1292C41.0053 41.9959 41.3013 41.7991 41.5502 41.5502C41.7991 41.3013 41.9959 41.0053 42.1292 40.6795C42.2625 40.3537 42.3296 40.0046 42.3265 39.6526C42.3235 39.3006 42.2503 38.9527 42.1114 38.6293C41.9725 38.3059 41.7705 38.0134 41.5173 37.7688C38.3441 34.5956 40.5895 29.1717 45.0776 29.1717C45.7807 29.1717 46.455 28.8924 46.9521 28.3952C47.4493 27.898 47.7286 27.2237 47.7286 26.5207C47.7286 25.8176 47.4493 25.1433 46.9521 24.6461C46.455 24.149 45.7807 23.8697 45.0776 23.8697C40.5921 23.8697 38.3441 18.4457 41.5173 15.2725C42.0002 14.7725 42.2674 14.1029 42.2614 13.4078C42.2553 12.7127 41.9765 12.0478 41.485 11.5563C40.9935 11.0648 40.3286 10.786 39.6335 10.7799C38.9384 10.7739 38.2688 11.0411 37.7688 11.524C34.5956 14.6972 29.1717 12.4519 29.1717 7.96373C29.1717 7.26064 28.8924 6.58635 28.3952 6.08919C27.898 5.59204 27.2237 5.31274 26.5207 5.31274ZM18.5889 7.37256C18.7355 5.36913 19.6348 3.49539 21.1062 2.12778C22.5775 0.760165 24.5119 0 26.5207 0C28.5294 0 30.4638 0.760165 31.9352 2.12778C33.4065 3.49539 34.3058 5.36913 34.4524 7.37256C35.9736 6.0661 37.9321 5.38248 39.9359 5.45856C41.9396 5.53465 43.8406 6.36482 45.2584 7.78287C46.6761 9.20092 47.5058 11.1022 47.5814 13.1059C47.657 15.1097 46.9729 17.068 45.6661 18.5889C47.6696 18.7352 49.5435 19.6342 50.9113 21.1053C52.2792 22.5764 53.0397 24.5106 53.04 26.5194C53.0403 28.5282 52.2805 30.4627 50.9131 31.9343C49.5458 33.4059 47.6722 34.3055 45.6688 34.4524C46.9752 35.9736 47.6588 37.9321 47.5828 39.9359C47.5067 41.9396 46.6765 43.8406 45.2585 45.2584C43.8404 46.6761 41.9392 47.5058 39.9354 47.5814C37.9316 47.657 35.9733 46.9729 34.4524 45.6661C34.3058 47.6695 33.4065 49.5433 31.9352 50.9109C30.4638 52.2785 28.5294 53.0387 26.5207 53.0387C24.5119 53.0387 22.5775 52.2785 21.1062 50.9109C19.6348 49.5433 18.7355 47.6695 18.5889 45.6661C17.068 46.9729 15.1097 47.657 13.1059 47.5814C11.1022 47.5058 9.20092 46.6761 7.78287 45.2584C6.36482 43.8406 5.53465 41.9396 5.45856 39.9359C5.38248 37.9321 6.0661 35.9736 7.37256 34.4524C5.36913 34.3058 3.49539 33.4065 2.12778 31.9352C0.760165 30.4638 0 28.5294 0 26.5207C0 24.5119 0.760165 22.5775 2.12778 21.1062C3.49539 19.6348 5.36913 18.7355 7.37256 18.5889C6.06212 17.0683 5.37516 15.1084 5.44951 13.1025C5.52386 11.0965 6.35401 9.19283 7.77342 7.77342C9.19283 6.35401 11.0965 5.52386 13.1025 5.44951C15.1084 5.37516 17.0683 6.06212 18.5889 7.37256Z" fill="white"/>
<path d="M26.5207 21.2187C25.1145 21.2187 23.7659 21.7773 22.7716 22.7716C21.7773 23.7659 21.2187 25.1145 21.2187 26.5207C21.2187 27.9268 21.7773 29.2754 22.7716 30.2697C23.7659 31.2641 25.1145 31.8227 26.5207 31.8227C27.9268 31.8227 29.2754 31.2641 30.2697 30.2697C31.264 29.2754 31.8226 27.9268 31.8226 26.5207C31.8226 25.1145 31.264 23.7659 30.2697 22.7716C29.2754 21.7773 27.9268 21.2187 26.5207 21.2187ZM19.0237 19.0237C20.0018 18.0109 21.1719 17.2031 22.4657 16.6473C23.7594 16.0916 25.1508 15.799 26.5588 15.7868C27.9668 15.7746 29.3631 16.0429 30.6663 16.576C31.9695 17.1092 33.1535 17.8966 34.1491 18.8922C35.1447 19.8879 35.9321 21.0718 36.4653 22.375C36.9985 23.6782 37.2668 25.0745 37.2545 26.4825C37.2423 27.8905 36.9498 29.282 36.394 30.5757C35.8383 31.8694 35.0304 33.0395 34.0177 34.0177C32.0177 35.9493 29.3391 37.0181 26.5588 36.9939C23.7785 36.9698 21.1189 35.8546 19.1528 33.8885C17.1868 31.9224 16.0716 29.2628 16.0474 26.4825C16.0232 23.7022 17.0921 21.0236 19.0237 19.0237Z" fill="#FD8888"/>
</svg>
