<svg width="58" height="58" viewBox="0 0 58 58" fill="none" xmlns="http://www.w3.org/2000/svg">
<path d="M28.52 36.476C32.9141 36.476 36.476 32.9141 36.476 28.52C36.476 24.1259 32.9141 20.564 28.52 20.564C24.1259 20.564 20.564 24.1259 20.564 28.52C20.564 32.9141 24.1259 36.476 28.52 36.476Z" stroke="#C61010" stroke-width="3.978" stroke-linecap="round" stroke-linejoin="round"/>
<path d="M48.7346 24.2646L45.8235 17.2352L49.736 12.608L44.432 7.304L39.83 11.2368L32.6513 8.28455L31.0004 2H25.8176L24.1418 8.3678L17.1281 11.3243L12.608 7.304L7.304 12.608L11.1583 17.352L8.29187 24.3996L2 25.868V31.172L8.36774 32.9104L11.3238 39.9228L7.304 44.432L12.608 49.736L17.3582 45.8649L24.2688 48.7078L25.868 55.04H31.172L32.7751 48.7102L39.8045 45.7991C40.9762 46.6366 44.432 49.736 44.432 49.736L49.736 44.432L45.8002 39.7894L48.7121 32.7579L55.0397 31.1115L55.04 25.868L48.7346 24.2646Z" stroke="#C61010" stroke-width="3.978" stroke-linecap="round" stroke-linejoin="round"/>
</svg>
